<?xml version="1.0" encoding="UTF-8" standalone="no"?>
<!-- Created with Inkscape (http://www.inkscape.org/) -->

<svg
   width="143.95523mm"
   height="136.51143mm"
   viewBox="0 0 143.95523 136.51143"
   version="1.1"
   id="svg5"
   xml:space="preserve"
   xmlns:inkscape="http://www.inkscape.org/namespaces/inkscape"
   xmlns:sodipodi="http://sodipodi.sourceforge.net/DTD/sodipodi-0.dtd"
   xmlns="http://www.w3.org/2000/svg"
   xmlns:svg="http://www.w3.org/2000/svg"><sodipodi:namedview
     id="namedview7"
     pagecolor="#505050"
     bordercolor="#eeeeee"
     borderopacity="1"
     inkscape:showpageshadow="0"
     inkscape:pageopacity="0"
     inkscape:pagecheckerboard="0"
     inkscape:deskcolor="#505050"
     inkscape:document-units="mm"
     showgrid="false" /><defs
     id="defs2" /><g
     inkscape:label="Layer 1"
     inkscape:groupmode="layer"
     id="layer1"
     transform="translate(-22.242173,-57.49515)"><g
       id="g1433"
       transform="translate(6.7622638,49.065044)"
       style="fill:#f9ffff;fill-opacity:0"
       inkscape:export-filename="call.svg"
       inkscape:export-xdpi="96"
       inkscape:export-ydpi="96"><path
         style="fill:#f9ffff;fill-opacity:0;stroke:#ffffff;stroke-width:1.506;paint-order:markers stroke fill"
         d="M 16.337844,126.09893 C 44.88564,76.645276 79.575026,31.840612 143.65825,9.2861566 c 8.21548,7.1667174 15.53494,14.9789084 14.99618,28.4520304 -8.60656,9.048814 -17.49568,17.484952 -27.93695,22.5556 -3.20313,-1.433132 -7.13232,-5.656504 -11.5427,-11.72911 -30.533906,12.102033 -54.396478,31.254656 -67.806592,61.453943 4.297045,3.41628 7.344682,6.57851 9.70067,9.60011 -7.562281,12.64959 -13.045485,17.81339 -18.952488,24.5031 -9.141693,-1.73429 -18.278052,-3.5101 -25.778526,-18.0229 z"
         id="path639"
         sodipodi:nodetypes="ccccccccc" /><path
         style="fill:#f9ffff;fill-opacity:0;stroke:#ffffff;stroke-width:1.11641;stroke-dasharray:none;stroke-opacity:1;paint-order:markers stroke fill"
         d="m 81.011849,97.843954 c 11.88492,-2.73275 22.782181,-6.42868 26.801091,-15.98914 0.85992,-1.68995 3.29798,-0.39171 1.75956,1.24544 -4.70573,9.001313 -14.799421,14.037265 -26.690721,15.98519 -2.26057,0.66119 -4.391985,-0.56915 -1.86993,-1.24149 z"
         id="path1423"
         sodipodi:nodetypes="ccccc" /><path
         style="fill:#f9ffff;fill-opacity:0;stroke:#ffffff;stroke-width:1.65288;stroke-dasharray:none;stroke-opacity:1;paint-order:markers stroke fill"
         d="m 81.800754,109.53871 c 16.845079,-4.22628 32.290296,-9.942157 37.986496,-24.727702 1.21881,-2.61356 4.67439,-0.605792 2.49391,1.926111 -6.66966,13.920811 -20.97594,21.709051 -37.830063,24.721591 -3.204016,1.02255 -6.224975,-0.88021 -2.650343,-1.92 z"
         id="path1425"
         sodipodi:nodetypes="ccccc" /><path
         style="fill:#f9ffff;fill-opacity:0;stroke:#ffffff;stroke-width:2.32513;stroke-dasharray:none;stroke-opacity:1;paint-order:markers stroke fill"
         d="m 87.1443,126.75083 c 21.46972,-6.56173 41.15526,-15.43619 48.41528,-38.392235 1.55342,-4.057814 5.95769,-0.940552 3.17858,2.99048 -8.50074,21.613455 -26.73465,33.705495 -48.215894,38.382755 -4.083643,1.58762 -7.933974,-1.36662 -3.377966,-2.981 z"
         id="path1427"
         sodipodi:nodetypes="ccccc" /></g></g></svg>
