<?xml version="1.0" encoding="UTF-8"?>
<svg width="174.73mm" height="179.33mm" version="1.1" viewBox="0 0 619.11555 635.43305" xmlns="http://www.w3.org/2000/svg" xmlns:xlink="http://www.w3.org/1999/xlink">
 <defs>
  <filter id="ba">
   <feGaussianBlur stdDeviation="2.7742253"/>
  </filter>
  <linearGradient id="bk" x1="404.29" x2="397.14" y1="720.22" y2="808.79" gradientUnits="userSpaceOnUse" spreadMethod="reflect">
   <stop stop-color="#babdb6" offset="0"/>
   <stop stop-color="#eeeeec" offset="1"/>
  </linearGradient>
  <linearGradient id="bl" x1="308.57" x2="338.57" y1="898.08" y2="738.79" gradientUnits="userSpaceOnUse">
   <stop stop-color="#888a85" offset="0"/>
   <stop stop-color="#d8d9d5" offset="1"/>
  </linearGradient>
  <linearGradient id="a" x1="380.7" x2="383.86" y1="750.33" y2="743.26" gradientUnits="userSpaceOnUse">
   <stop stop-color="#888a85" offset="0"/>
   <stop stop-color="#d3d7cf" offset="1"/>
  </linearGradient>
  <filter id="av" x="-.10694" y="-.035646" width="1.2139" height="1.0713" color-interpolation-filters="sRGB">
   <feGaussianBlur stdDeviation="0.89115575"/>
  </filter>
  <linearGradient id="bm" x1="522.5" x2="539" y1="803.36" y2="755.86" gradientTransform="matrix(.96459 0 0 .96459 27.678 112.81)" gradientUnits="userSpaceOnUse">
   <stop stop-color="#8a8c87" offset="0"/>
   <stop stop-color="#e8e8e6" offset="1"/>
  </linearGradient>
  <linearGradient id="aq" x1="530.5" x2="535.5" y1="884.61" y2="838.36" gradientUnits="userSpaceOnUse">
   <stop stop-color="#1e1e1f" offset="0"/>
   <stop stop-color="#535354" offset=".60419"/>
   <stop stop-color="#d3d7cf" offset=".66412"/>
   <stop stop-color="#5a5a5b" offset=".75076"/>
   <stop stop-color="#1a1a1c" offset="1"/>
  </linearGradient>
  <linearGradient id="ar" x1="541.82" x2="540.05" y1="846.59" y2="853.67" gradientUnits="userSpaceOnUse">
   <stop stop-color="#e8e8e6" offset="0"/>
   <stop stop-color="#e8e8e6" stop-opacity="0" offset="1"/>
  </linearGradient>
  <linearGradient id="as" x1="514.62" x2="516.09" y1="808.13" y2="760.08" gradientTransform="matrix(.96459 0 0 .96459 26.087 112.99)" gradientUnits="userSpaceOnUse">
   <stop stop-color="#555556" offset="0"/>
   <stop stop-color="#e8e8e6" offset="1"/>
  </linearGradient>
  <filter id="aw" color-interpolation-filters="sRGB">
   <feGaussianBlur stdDeviation="0.38999749"/>
  </filter>
  <linearGradient id="an" x1="423.91" x2="426.21" y1="744.86" y2="734.78" gradientUnits="userSpaceOnUse">
   <stop stop-color="#989a94" offset="0"/>
   <stop stop-color="#989a94" stop-opacity="0" offset="1"/>
  </linearGradient>
  <filter id="ax" color-interpolation-filters="sRGB">
   <feGaussianBlur stdDeviation="0.49560743"/>
  </filter>
  <filter id="az" x="-.11513" y="-.034434" width="1.2303" height="1.0689" color-interpolation-filters="sRGB">
   <feGaussianBlur stdDeviation="0.91435637"/>
  </filter>
  <linearGradient id="at" x1="616.25" x2="607.87" y1="833.86" y2="935.13" gradientUnits="userSpaceOnUse">
   <stop stop-color="#babdb6" offset="0"/>
   <stop stop-color="#676768" offset="1"/>
  </linearGradient>
  <linearGradient id="au" x1="622.84" x2="624.66" y1="829.75" y2="909.75" gradientUnits="userSpaceOnUse">
   <stop stop-color="#eeeeec" offset="0"/>
   <stop stop-color="#888a85" offset="1"/>
  </linearGradient>
  <filter id="ay" color-interpolation-filters="sRGB">
   <feGaussianBlur stdDeviation="0.87851365"/>
  </filter>
  <linearGradient id="bh" x1="-269.39" x2="-267.74" y1="461.41" y2="461.41" gradientTransform="matrix(103.4 116.94 116.94 -103.4 -24637 79569)" gradientUnits="userSpaceOnUse">
   <stop stop-color="#FFD8BF" offset="0"/>
   <stop stop-color="#BF7400" offset=".5393"/>
   <stop offset="1"/>
  </linearGradient>
  <linearGradient id="bi" x1="-269.41" x2="-267.71" y1="461.3" y2="461.3" gradientTransform="matrix(103.4 116.94 116.94 -103.4 -24637 79569)" gradientUnits="userSpaceOnUse">
   <stop stop-color="#F3C192" offset="0"/>
   <stop stop-color="#D49035" offset=".5393"/>
   <stop stop-color="#765735" offset="1"/>
  </linearGradient>
  <linearGradient id="bj" x1="-269.44" x2="-267.68" y1="461.6" y2="461.6" gradientTransform="matrix(103.4 116.94 116.94 -103.4 -24637 79569)" gradientUnits="userSpaceOnUse">
   <stop stop-color="#F3C192" offset="0"/>
   <stop stop-color="#D49035" offset=".5393"/>
   <stop stop-color="#765735" offset="1"/>
  </linearGradient>
  <radialGradient id="ai" cx="179.05" cy="512.94" r="58.841" gradientTransform="matrix(1 0 0 .36052 0 328.02)" gradientUnits="userSpaceOnUse" xlink:href="#ah"/>
  <linearGradient id="ah">
   <stop offset="0"/>
   <stop stop-opacity="0" offset="1"/>
  </linearGradient>
  <linearGradient id="al" x1="146.43" x2="5.9453" y1="578.08" y2="577.43" gradientUnits="userSpaceOnUse">
   <stop stop-color="#cd5200" offset="0"/>
   <stop stop-color="#caca00" offset="1"/>
  </linearGradient>
  <linearGradient id="am" x1="144.64" x2="5.9286" y1="578.43" y2="579.86" gradientUnits="userSpaceOnUse">
   <stop stop-color="#f60" offset="0"/>
   <stop stop-color="#ff0" offset="1"/>
  </linearGradient>
  <linearGradient id="aj" x1="140.23" x2=".9658" y1="605.49" y2="551.65" gradientUnits="userSpaceOnUse">
   <stop stop-color="#ff8915" offset="0"/>
   <stop stop-color="#ff0" offset="1"/>
  </linearGradient>
  <linearGradient id="ao" x1="69.839" x2="81.112" y1="522.38" y2="575.41" gradientUnits="userSpaceOnUse" xlink:href="#ak"/>
  <linearGradient id="ak">
   <stop stop-color="#fff" stop-opacity=".8" offset="0"/>
   <stop stop-color="#fff" stop-opacity="0" offset="1"/>
  </linearGradient>
  <linearGradient id="ap" x1="162.64" x2="60.352" y1="585.55" y2="555.11" gradientUnits="userSpaceOnUse" xlink:href="#ah"/>
  <linearGradient id="bg" x1="266.68" x2="344.97" y1="462.43" y2="425.56" gradientTransform="matrix(2.5902,0,0,2.5902,-637,-1186)" gradientUnits="userSpaceOnUse">
   <stop stop-color="green" offset="0"/>
   <stop stop-color="#ff0" stop-opacity="0" offset="1"/>
  </linearGradient>
  <linearGradient id="bf" x1="272.24" x2="275.26" y1="419.5" y2="467.48" gradientTransform="matrix(2.5902,0,0,2.5902,-637,-1186)" gradientUnits="userSpaceOnUse" xlink:href="#ak"/>
  <linearGradient id="bb" x1="115.37" x2="-83.018" y1="627.11" y2="550.67" gradientUnits="userSpaceOnUse">
   <stop offset="0"/>
   <stop stop-opacity="0" offset="1"/>
  </linearGradient>
  <linearGradient id="bc" x1="69.839" x2="81.112" y1="522.38" y2="575.41" gradientTransform="matrix(.51396 0 0 .51396 169.54 181.2)" gradientUnits="userSpaceOnUse" xlink:href="#ak"/>
  <linearGradient id="bd" x1="162.64" x2="60.352" y1="585.55" y2="555.11" gradientTransform="matrix(.51396 0 0 .51396 169.54 181.2)" gradientUnits="userSpaceOnUse" xlink:href="#ah"/>
  <linearGradient id="be" x1="248.39" x2="141.07" y1="501.65" y2="468.79" gradientUnits="userSpaceOnUse" xlink:href="#ah"/>
 </defs>
 <g transform="translate(-41.746 -57.832)">
  <g transform="matrix(3.9157 0 0 3.9157 -5954 -1499.2)">
   <g transform="matrix(.44801 0 0 .44801 1475.3 126.38)">
    <path d="m366.46 713.13 76.898 16.087" fill="none" stroke="#000" stroke-width="1px"/>
    <path d="m316.41 845.25-51.688 32.688 93.091 34.162 91.252-34.6-40-6.6562z" fill="#d3d7cf" filter="url(#ba)"/>
    <path d="m356.41 685.26v227.88l92.664-35.652v-166.64z" fill="url(#bk)"/>
    <path d="m304.72 717.93 51.696-32.676v227.88l-51.696-38.083z" fill="url(#bl)"/>
    <path d="m366.77 704.03v187.47l74.583-27.331v-141.09z" fill="none" stroke="#2e3436" stroke-width=".98912"/>
    <g transform="matrix(.94119 0 0 .94119 44.877 46.265)" fill-rule="evenodd">
     <ellipse transform="matrix(-1.4336,0,0,1.2269,921.4,-201.51)" cx="381.84" cy="746.79" rx="1.0102" ry="3.0305" color="#000000" fill="#888a85"/>
     <ellipse transform="matrix(1.2887,0,0,1.2887,-117.72,-248.09)" cx="381.84" cy="746.79" rx="1.0102" ry="3.0305" color="#000000" fill="url(#a)"/>
     <ellipse transform="matrix(.72491 0 0 .72491 97.971 172.48)" cx="381.84" cy="746.79" rx="1.0102" ry="3.0305" color="#000000" fill="#c4c7c1"/>
    </g>
    <g transform="matrix(.9604 0 0 .9604 30.29 31.206)" fill-rule="evenodd">
     <ellipse transform="matrix(-1.4336,0,0,1.2269,921.4,-201.51)" cx="381.84" cy="746.79" rx="1.0102" ry="3.0305" color="#000000" fill="#888a85"/>
     <ellipse transform="matrix(1.2887,0,0,1.2887,-117.72,-248.09)" cx="381.84" cy="746.79" rx="1.0102" ry="3.0305" color="#000000" fill="url(#a)"/>
     <ellipse transform="matrix(.72491 0 0 .72491 97.971 172.48)" cx="381.84" cy="746.79" rx="1.0102" ry="3.0305" color="#000000" fill="#c4c7c1"/>
    </g>
    <g transform="matrix(.98 0 0 .98 15.334 15.707)" fill-rule="evenodd">
     <ellipse transform="matrix(-1.4336,0,0,1.2269,921.4,-201.51)" cx="381.84" cy="746.79" rx="1.0102" ry="3.0305" color="#000000" fill="#888a85"/>
     <ellipse transform="matrix(1.2887,0,0,1.2887,-117.72,-248.09)" cx="381.84" cy="746.79" rx="1.0102" ry="3.0305" color="#000000" fill="url(#a)"/>
     <ellipse transform="matrix(.72491 0 0 .72491 97.971 172.48)" cx="381.84" cy="746.79" rx="1.0102" ry="3.0305" color="#000000" fill="#c4c7c1"/>
    </g>
    <g transform="matrix(.92237 0 0 .92237 59.104 61.618)" fill-rule="evenodd">
     <ellipse transform="matrix(-1.4336,0,0,1.2269,921.4,-201.51)" cx="381.84" cy="746.79" rx="1.0102" ry="3.0305" color="#000000" fill="#888a85"/>
     <ellipse transform="matrix(1.2887,0,0,1.2887,-117.72,-248.09)" cx="381.84" cy="746.79" rx="1.0102" ry="3.0305" color="#000000" fill="url(#a)"/>
     <ellipse transform="matrix(.72491 0 0 .72491 97.971 172.48)" cx="381.84" cy="746.79" rx="1.0102" ry="3.0305" color="#000000" fill="#c4c7c1"/>
    </g>
    <g transform="matrix(.90392 0 0 .90392 72.979 76.162)" fill-rule="evenodd">
     <ellipse transform="matrix(-1.4336,0,0,1.2269,921.4,-201.51)" cx="381.84" cy="746.79" rx="1.0102" ry="3.0305" color="#000000" fill="#888a85"/>
     <ellipse transform="matrix(1.2887,0,0,1.2887,-117.72,-248.09)" cx="381.84" cy="746.79" rx="1.0102" ry="3.0305" color="#000000" fill="url(#a)"/>
     <ellipse transform="matrix(.72491 0 0 .72491 97.971 172.48)" cx="381.84" cy="746.79" rx="1.0102" ry="3.0305" color="#000000" fill="#c4c7c1"/>
    </g>
    <g transform="matrix(.88584 0 0 .88584 86.511 91.035)" fill-rule="evenodd">
     <ellipse transform="matrix(-1.4336,0,0,1.2269,921.4,-201.51)" cx="381.84" cy="746.79" rx="1.0102" ry="3.0305" color="#000000" fill="#888a85"/>
     <ellipse transform="matrix(1.2887,0,0,1.2887,-117.72,-248.09)" cx="381.84" cy="746.79" rx="1.0102" ry="3.0305" color="#000000" fill="url(#a)"/>
     <ellipse transform="matrix(.72491 0 0 .72491 97.971 172.48)" cx="381.84" cy="746.79" rx="1.0102" ry="3.0305" color="#000000" fill="#c4c7c1"/>
    </g>
    <g transform="matrix(.86813 0 0 .86813 99.708 105.13)" fill-rule="evenodd">
     <ellipse transform="matrix(-1.4336,0,0,1.2269,921.4,-201.51)" cx="381.84" cy="746.79" rx="1.0102" ry="3.0305" color="#000000" fill="#888a85"/>
     <ellipse transform="matrix(1.2887,0,0,1.2887,-117.72,-248.09)" cx="381.84" cy="746.79" rx="1.0102" ry="3.0305" color="#000000" fill="url(#a)"/>
     <ellipse transform="matrix(.72491 0 0 .72491 97.971 172.48)" cx="381.84" cy="746.79" rx="1.0102" ry="3.0305" color="#000000" fill="#c4c7c1"/>
    </g>
    <g transform="matrix(.85076 0 0 .85076 112.58 118.92)" fill-rule="evenodd">
     <ellipse transform="matrix(-1.4336,0,0,1.2269,921.4,-201.51)" cx="381.84" cy="746.79" rx="1.0102" ry="3.0305" color="#000000" fill="#888a85"/>
     <ellipse transform="matrix(1.2887,0,0,1.2887,-117.72,-248.09)" cx="381.84" cy="746.79" rx="1.0102" ry="3.0305" color="#000000" fill="url(#a)"/>
     <ellipse transform="matrix(.72491 0 0 .72491 97.971 172.48)" cx="381.84" cy="746.79" rx="1.0102" ry="3.0305" color="#000000" fill="#c4c7c1"/>
    </g>
    <g transform="matrix(.83375 0 0 .83375 125.13 132.13)" fill-rule="evenodd">
     <ellipse transform="matrix(-1.4336,0,0,1.2269,921.4,-201.51)" cx="381.84" cy="746.79" rx="1.0102" ry="3.0305" color="#000000" fill="#888a85"/>
     <ellipse transform="matrix(1.2887,0,0,1.2887,-117.72,-248.09)" cx="381.84" cy="746.79" rx="1.0102" ry="3.0305" color="#000000" fill="url(#a)"/>
     <ellipse transform="matrix(.72491 0 0 .72491 97.971 172.48)" cx="381.84" cy="746.79" rx="1.0102" ry="3.0305" color="#000000" fill="#c4c7c1"/>
    </g>
    <g transform="translate(0,-7.6294e-6)" fill-rule="evenodd">
     <ellipse transform="matrix(-1.4336,0,0,1.2269,921.4,-201.51)" cx="381.84" cy="746.79" rx="1.0102" ry="3.0305" color="#000000" fill="#888a85"/>
     <ellipse transform="matrix(1.2887,0,0,1.2887,-117.72,-248.09)" cx="381.84" cy="746.79" rx="1.0102" ry="3.0305" color="#000000" fill="url(#a)"/>
     <ellipse transform="matrix(.72491 0 0 .72491 97.971 172.48)" cx="381.84" cy="746.79" rx="1.0102" ry="3.0305" color="#000000" fill="#c4c7c1"/>
    </g>
    <g transform="matrix(.94119 -.49562 0 .94119 44.877 386.13)" fill-rule="evenodd">
     <ellipse transform="matrix(-1.4336,0,0,1.2269,921.4,-201.51)" cx="381.84" cy="746.79" rx="1.0102" ry="3.0305" color="#000000" fill="#888a85"/>
     <ellipse transform="matrix(1.2887,0,0,1.2887,-117.72,-248.09)" cx="381.84" cy="746.79" rx="1.0102" ry="3.0305" color="#000000" fill="url(#a)"/>
     <ellipse transform="matrix(.72491 0 0 .72491 97.971 172.48)" cx="381.84" cy="746.79" rx="1.0102" ry="3.0305" color="#000000" fill="#c4c7c1"/>
    </g>
    <g transform="matrix(.9604 -.50573 0 .9604 30.29 378.75)" fill-rule="evenodd">
     <ellipse transform="matrix(-1.4336,0,0,1.2269,921.4,-201.51)" cx="381.84" cy="746.79" rx="1.0102" ry="3.0305" color="#000000" fill="#888a85"/>
     <ellipse transform="matrix(1.2887,0,0,1.2887,-117.72,-248.09)" cx="381.84" cy="746.79" rx="1.0102" ry="3.0305" color="#000000" fill="url(#a)"/>
     <ellipse transform="matrix(.72491 0 0 .72491 97.971 172.48)" cx="381.84" cy="746.79" rx="1.0102" ry="3.0305" color="#000000" fill="#c4c7c1"/>
    </g>
    <g transform="matrix(.98 -.51605 0 .98 15.334 371.13)" fill-rule="evenodd">
     <ellipse transform="matrix(-1.4336,0,0,1.2269,921.4,-201.51)" cx="381.84" cy="746.79" rx="1.0102" ry="3.0305" color="#000000" fill="#888a85"/>
     <ellipse transform="matrix(1.2887,0,0,1.2887,-117.72,-248.09)" cx="381.84" cy="746.79" rx="1.0102" ry="3.0305" color="#000000" fill="url(#a)"/>
     <ellipse transform="matrix(.72491 0 0 .72491 97.971 172.48)" cx="381.84" cy="746.79" rx="1.0102" ry="3.0305" color="#000000" fill="#c4c7c1"/>
    </g>
    <g transform="matrix(.92237 -.4857 0 .92237 59.104 393.99)" fill-rule="evenodd">
     <ellipse transform="matrix(-1.4336,0,0,1.2269,921.4,-201.51)" cx="381.84" cy="746.79" rx="1.0102" ry="3.0305" color="#000000" fill="#888a85"/>
     <ellipse transform="matrix(1.2887,0,0,1.2887,-117.72,-248.09)" cx="381.84" cy="746.79" rx="1.0102" ry="3.0305" color="#000000" fill="url(#a)"/>
     <ellipse transform="matrix(.72491 0 0 .72491 97.971 172.48)" cx="381.84" cy="746.79" rx="1.0102" ry="3.0305" color="#000000" fill="#c4c7c1"/>
    </g>
    <g transform="matrix(.90392 -.47599 0 .90392 72.979 401.23)" fill-rule="evenodd">
     <ellipse transform="matrix(-1.4336,0,0,1.2269,921.4,-201.51)" cx="381.84" cy="746.79" rx="1.0102" ry="3.0305" color="#000000" fill="#888a85"/>
     <ellipse transform="matrix(1.2887,0,0,1.2887,-117.72,-248.09)" cx="381.84" cy="746.79" rx="1.0102" ry="3.0305" color="#000000" fill="url(#a)"/>
     <ellipse transform="matrix(.72491 0 0 .72491 97.971 172.48)" cx="381.84" cy="746.79" rx="1.0102" ry="3.0305" color="#000000" fill="#c4c7c1"/>
    </g>
    <g transform="matrix(.88584 -.46647 0 .88584 86.511 408.98)" fill-rule="evenodd">
     <ellipse transform="matrix(-1.4336,0,0,1.2269,921.4,-201.51)" cx="381.84" cy="746.79" rx="1.0102" ry="3.0305" color="#000000" fill="#888a85"/>
     <ellipse transform="matrix(1.2887,0,0,1.2887,-117.72,-248.09)" cx="381.84" cy="746.79" rx="1.0102" ry="3.0305" color="#000000" fill="url(#a)"/>
     <ellipse transform="matrix(.72491 0 0 .72491 97.971 172.48)" cx="381.84" cy="746.79" rx="1.0102" ry="3.0305" color="#000000" fill="#c4c7c1"/>
    </g>
    <g transform="matrix(.86813 -.45714 0 .86813 99.708 416.12)" fill-rule="evenodd">
     <ellipse transform="matrix(-1.4336,0,0,1.2269,921.4,-201.51)" cx="381.84" cy="746.79" rx="1.0102" ry="3.0305" color="#000000" fill="#888a85"/>
     <ellipse transform="matrix(1.2887,0,0,1.2887,-117.72,-248.09)" cx="381.84" cy="746.79" rx="1.0102" ry="3.0305" color="#000000" fill="url(#a)"/>
     <ellipse transform="matrix(.72491 0 0 .72491 97.971 172.48)" cx="381.84" cy="746.79" rx="1.0102" ry="3.0305" color="#000000" fill="#c4c7c1"/>
    </g>
    <g transform="matrix(.85076 -.448 0 .85076 112.58 423.14)" fill-rule="evenodd">
     <ellipse transform="matrix(-1.4336,0,0,1.2269,921.4,-201.51)" cx="381.84" cy="746.79" rx="1.0102" ry="3.0305" color="#000000" fill="#888a85"/>
     <ellipse transform="matrix(1.2887,0,0,1.2887,-117.72,-248.09)" cx="381.84" cy="746.79" rx="1.0102" ry="3.0305" color="#000000" fill="url(#a)"/>
     <ellipse transform="matrix(.72491 0 0 .72491 97.971 172.48)" cx="381.84" cy="746.79" rx="1.0102" ry="3.0305" color="#000000" fill="#c4c7c1"/>
    </g>
    <g transform="matrix(.83375 -.43904 0 .83375 125.13 429.74)" fill-rule="evenodd">
     <ellipse transform="matrix(-1.4336,0,0,1.2269,921.4,-201.51)" cx="381.84" cy="746.79" rx="1.0102" ry="3.0305" color="#000000" fill="#888a85"/>
     <ellipse transform="matrix(1.2887,0,0,1.2887,-117.72,-248.09)" cx="381.84" cy="746.79" rx="1.0102" ry="3.0305" color="#000000" fill="url(#a)"/>
     <ellipse transform="matrix(.72491 0 0 .72491 97.971 172.48)" cx="381.84" cy="746.79" rx="1.0102" ry="3.0305" color="#000000" fill="#c4c7c1"/>
    </g>
    <g transform="matrix(1 -.52658 0 1 -5.4069e-8 363.5)" fill-rule="evenodd">
     <ellipse transform="matrix(-1.4336,0,0,1.2269,921.4,-201.51)" cx="381.84" cy="746.79" rx="1.0102" ry="3.0305" color="#000000" fill="#888a85"/>
     <ellipse transform="matrix(1.2887,0,0,1.2887,-117.72,-248.09)" cx="381.84" cy="746.79" rx="1.0102" ry="3.0305" color="#000000" fill="url(#a)"/>
     <ellipse transform="matrix(.72491 0 0 .72491 97.971 172.48)" cx="381.84" cy="746.79" rx="1.0102" ry="3.0305" color="#000000" fill="#c4c7c1"/>
    </g>
    <g transform="translate(0,16.647)" fill-rule="evenodd">
     <ellipse transform="matrix(-1.4336,0,0,1.2269,921.4,-201.51)" cx="381.84" cy="746.79" rx="1.0102" ry="3.0305" color="#000000" fill="#888a85"/>
     <ellipse transform="matrix(1.2887,0,0,1.2887,-117.72,-248.09)" cx="381.84" cy="746.79" rx="1.0102" ry="3.0305" color="#000000" fill="url(#a)"/>
     <ellipse transform="matrix(.72491 0 0 .72491 97.971 172.48)" cx="381.84" cy="746.79" rx="1.0102" ry="3.0305" color="#000000" fill="#c4c7c1"/>
    </g>
    <g transform="translate(0,33.294)" fill-rule="evenodd">
     <ellipse transform="matrix(-1.4336,0,0,1.2269,921.4,-201.51)" cx="381.84" cy="746.79" rx="1.0102" ry="3.0305" color="#000000" fill="#888a85"/>
     <ellipse transform="matrix(1.2887,0,0,1.2887,-117.72,-248.09)" cx="381.84" cy="746.79" rx="1.0102" ry="3.0305" color="#000000" fill="url(#a)"/>
     <ellipse transform="matrix(.72491 0 0 .72491 97.971 172.48)" cx="381.84" cy="746.79" rx="1.0102" ry="3.0305" color="#000000" fill="#c4c7c1"/>
    </g>
    <g transform="translate(0,66.589)" fill-rule="evenodd">
     <ellipse transform="matrix(-1.4336,0,0,1.2269,921.4,-201.51)" cx="381.84" cy="746.79" rx="1.0102" ry="3.0305" color="#000000" fill="#888a85"/>
     <ellipse transform="matrix(1.2887,0,0,1.2887,-117.72,-248.09)" cx="381.84" cy="746.79" rx="1.0102" ry="3.0305" color="#000000" fill="url(#a)"/>
     <ellipse transform="matrix(.72491 0 0 .72491 97.971 172.48)" cx="381.84" cy="746.79" rx="1.0102" ry="3.0305" color="#000000" fill="#c4c7c1"/>
    </g>
    <g transform="translate(0,83.236)" fill-rule="evenodd">
     <ellipse transform="matrix(-1.4336,0,0,1.2269,921.4,-201.51)" cx="381.84" cy="746.79" rx="1.0102" ry="3.0305" color="#000000" fill="#888a85"/>
     <ellipse transform="matrix(1.2887,0,0,1.2887,-117.72,-248.09)" cx="381.84" cy="746.79" rx="1.0102" ry="3.0305" color="#000000" fill="url(#a)"/>
     <ellipse transform="matrix(.72491 0 0 .72491 97.971 172.48)" cx="381.84" cy="746.79" rx="1.0102" ry="3.0305" color="#000000" fill="#c4c7c1"/>
    </g>
    <g transform="translate(0,116.53)" fill-rule="evenodd">
     <ellipse transform="matrix(-1.4336,0,0,1.2269,921.4,-201.51)" cx="381.84" cy="746.79" rx="1.0102" ry="3.0305" color="#000000" fill="#888a85"/>
     <ellipse transform="matrix(1.2887,0,0,1.2887,-117.72,-248.09)" cx="381.84" cy="746.79" rx="1.0102" ry="3.0305" color="#000000" fill="url(#a)"/>
     <ellipse transform="matrix(.72491 0 0 .72491 97.971 172.48)" cx="381.84" cy="746.79" rx="1.0102" ry="3.0305" color="#000000" fill="#c4c7c1"/>
    </g>
    <g transform="translate(0,133.18)" fill-rule="evenodd">
     <ellipse transform="matrix(-1.4336,0,0,1.2269,921.4,-201.51)" cx="381.84" cy="746.79" rx="1.0102" ry="3.0305" color="#000000" fill="#888a85"/>
     <ellipse transform="matrix(1.2887,0,0,1.2887,-117.72,-248.09)" cx="381.84" cy="746.79" rx="1.0102" ry="3.0305" color="#000000" fill="url(#a)"/>
     <ellipse transform="matrix(.72491 0 0 .72491 97.971 172.48)" cx="381.84" cy="746.79" rx="1.0102" ry="3.0305" color="#000000" fill="#c4c7c1"/>
    </g>
    <g transform="translate(0,149.82)" fill-rule="evenodd">
     <ellipse transform="matrix(-1.4336,0,0,1.2269,921.4,-201.51)" cx="381.84" cy="746.79" rx="1.0102" ry="3.0305" color="#000000" fill="#888a85"/>
     <ellipse transform="matrix(1.2887,0,0,1.2887,-117.72,-248.09)" cx="381.84" cy="746.79" rx="1.0102" ry="3.0305" color="#000000" fill="url(#a)"/>
     <ellipse transform="matrix(.72491 0 0 .72491 97.971 172.48)" cx="381.84" cy="746.79" rx="1.0102" ry="3.0305" color="#000000" fill="#c4c7c1"/>
    </g>
    <g transform="matrix(.83375 0 0 .83375 125.13 158.8)" fill-rule="evenodd">
     <ellipse transform="matrix(-1.4336,0,0,1.2269,921.4,-201.51)" cx="381.84" cy="746.79" rx="1.0102" ry="3.0305" color="#000000" fill="#888a85"/>
     <ellipse transform="matrix(1.2887,0,0,1.2887,-117.72,-248.09)" cx="381.84" cy="746.79" rx="1.0102" ry="3.0305" color="#000000" fill="url(#a)"/>
     <ellipse transform="matrix(.72491 0 0 .72491 97.971 172.48)" cx="381.84" cy="746.79" rx="1.0102" ry="3.0305" color="#000000" fill="#c4c7c1"/>
    </g>
    <g transform="matrix(.83375 0 0 .83375 125.13 172.13)" fill-rule="evenodd">
     <ellipse transform="matrix(-1.4336,0,0,1.2269,921.4,-201.51)" cx="381.84" cy="746.79" rx="1.0102" ry="3.0305" color="#000000" fill="#888a85"/>
     <ellipse transform="matrix(1.2887,0,0,1.2887,-117.72,-248.09)" cx="381.84" cy="746.79" rx="1.0102" ry="3.0305" color="#000000" fill="url(#a)"/>
     <ellipse transform="matrix(.72491 0 0 .72491 97.971 172.48)" cx="381.84" cy="746.79" rx="1.0102" ry="3.0305" color="#000000" fill="#c4c7c1"/>
    </g>
    <g transform="matrix(.83375 0 0 .83375 125.13 185.47)" fill-rule="evenodd">
     <ellipse transform="matrix(-1.4336,0,0,1.2269,921.4,-201.51)" cx="381.84" cy="746.79" rx="1.0102" ry="3.0305" color="#000000" fill="#888a85"/>
     <ellipse transform="matrix(1.2887,0,0,1.2887,-117.72,-248.09)" cx="381.84" cy="746.79" rx="1.0102" ry="3.0305" color="#000000" fill="url(#a)"/>
     <ellipse transform="matrix(.72491 0 0 .72491 97.971 172.48)" cx="381.84" cy="746.79" rx="1.0102" ry="3.0305" color="#000000" fill="#c4c7c1"/>
    </g>
    <g transform="matrix(.83375 0 0 .83375 125.13 198.8)" fill-rule="evenodd">
     <ellipse transform="matrix(-1.4336,0,0,1.2269,921.4,-201.51)" cx="381.84" cy="746.79" rx="1.0102" ry="3.0305" color="#000000" fill="#888a85"/>
     <ellipse transform="matrix(1.2887,0,0,1.2887,-117.72,-248.09)" cx="381.84" cy="746.79" rx="1.0102" ry="3.0305" color="#000000" fill="url(#a)"/>
     <ellipse transform="matrix(.72491 0 0 .72491 97.971 172.48)" cx="381.84" cy="746.79" rx="1.0102" ry="3.0305" color="#000000" fill="#c4c7c1"/>
    </g>
    <g transform="matrix(.83375 0 0 .83375 125.13 212.13)" fill-rule="evenodd">
     <ellipse transform="matrix(-1.4336,0,0,1.2269,921.4,-201.51)" cx="381.84" cy="746.79" rx="1.0102" ry="3.0305" color="#000000" fill="#888a85"/>
     <ellipse transform="matrix(1.2887,0,0,1.2887,-117.72,-248.09)" cx="381.84" cy="746.79" rx="1.0102" ry="3.0305" color="#000000" fill="url(#a)"/>
     <ellipse transform="matrix(.72491 0 0 .72491 97.971 172.48)" cx="381.84" cy="746.79" rx="1.0102" ry="3.0305" color="#000000" fill="#c4c7c1"/>
    </g>
    <g transform="matrix(.83375 0 0 .83375 125.13 225.47)" fill-rule="evenodd">
     <ellipse transform="matrix(-1.4336,0,0,1.2269,921.4,-201.51)" cx="381.84" cy="746.79" rx="1.0102" ry="3.0305" color="#000000" fill="#888a85"/>
     <ellipse transform="matrix(1.2887,0,0,1.2887,-117.72,-248.09)" cx="381.84" cy="746.79" rx="1.0102" ry="3.0305" color="#000000" fill="url(#a)"/>
     <ellipse transform="matrix(.72491 0 0 .72491 97.971 172.48)" cx="381.84" cy="746.79" rx="1.0102" ry="3.0305" color="#000000" fill="#c4c7c1"/>
    </g>
    <g transform="matrix(.83375 0 0 .83375 125.13 238.8)" fill-rule="evenodd">
     <ellipse transform="matrix(-1.4336,0,0,1.2269,921.4,-201.51)" cx="381.84" cy="746.79" rx="1.0102" ry="3.0305" color="#000000" fill="#888a85"/>
     <ellipse transform="matrix(1.2887,0,0,1.2887,-117.72,-248.09)" cx="381.84" cy="746.79" rx="1.0102" ry="3.0305" color="#000000" fill="url(#a)"/>
     <ellipse transform="matrix(.72491 0 0 .72491 97.971 172.48)" cx="381.84" cy="746.79" rx="1.0102" ry="3.0305" color="#000000" fill="#c4c7c1"/>
    </g>
    <g transform="matrix(1.0169 0 0 .70742 -128.38 180.36)">
     <ellipse transform="matrix(1 0 0 .99563 4.4194 91.47)" cx="522.5" cy="775.36" rx="10" ry="30" color="#000000" fill="#232325" fill-rule="evenodd" filter="url(#av)" opacity=".45306"/>
     <path d="m531.68 831.79c-5.3273 0-9.6459 12.956-9.6459 28.938s4.3186 28.938 9.6459 28.938c5.1166 0 9.2927-11.964 9.6158-27.069-0.39362 10.871-3.4758 19.352-7.2043 19.352-3.9955 0-7.2344-9.7169-7.2344-21.703s3.239-21.703 7.2344-21.703c3.4634 0 6.3439 7.2793 7.0536 17.031-0.80917-13.527-4.7231-23.783-9.465-23.783z" color="#000000" fill="url(#bm)" fill-rule="evenodd"/>
     <path d="m533.75 837.88c-4.1421 0-7.5 10.074-7.5 22.5s3.3579 22.5 7.5 22.5c5.7765-3.1879 9.2648-8.2431 10.844-14.656-0.56872-2.5977-0.90625-5.7223-0.90625-9.0625 0-2.6011 0.20514-5.0305 0.5625-7.2188-2.2509-6.8969-6.8467-13.667-10.5-14.062z" color="#000000" fill="url(#aq)" fill-rule="evenodd"/>
     <g transform="translate(-29.875,45.785)">
      <ellipse transform="matrix(.55 0 0 .55 282.48 387.64)" cx="522.5" cy="775.36" rx="10" ry="30" color="#000000" fill="#8c8e89" fill-rule="evenodd"/>
      <path d="m569.96 799.92v3.7725h0.28725v-3.7725h-0.28725zm-2.0937 1.6766-0.24257 0.41917 0.63194 3.2771 0.24256-0.43822-0.63193-3.258zm4.4746 0-0.63194 3.258 0.24256 0.43822 0.63195-3.2771-0.24257-0.41917zm-6.2492 4.9918-0.14682 0.74306 1.0979 1.8862 0.14042-0.74306-1.0915-1.8862zm8.0238 0-1.0915 1.8862 0.14043 0.74306 1.0979-1.8862-0.14681-0.74306zm-0.55535 6.9733v0.85737h1.2639l-6e-3 -0.83832-1.2575-0.0191zm-8.1769 0.0191 6e-3 0.83832 1.2575 0.0191v-0.85737h-1.2639zm1.6596 5.2014-1.0979 1.8862 0.14682 0.74306 1.0915-1.8862-0.14042-0.74307zm6.1215 0-0.14043 0.74307 1.0915 1.8862 0.14681-0.74306-1.0979-1.8862zm-4.9087 3.9249-0.63194 3.2771 0.24257 0.41916 0.63193-3.258-0.24256-0.43821zm3.6959 0-0.24256 0.43821 0.63194 3.258 0.24257-0.41916-0.63195-3.2771zm-1.9916 1.6004v3.7725h0.28725v-3.7725h-0.28725z" fill="#eeeeec"/>
     </g>
     <path d="m540.76 844.87c-1.3053-0.16073-2.6639 0.97892-3.9015 3.046 2.746 2.6574 5.531 6.3582 7.9076 10.703 0.28566-7.5869-1.3043-13.416-4.0061-13.749zm-6.7274 32.389c0.44483 0.94259 0.97802 1.6109 1.5812 1.9894-0.53239-0.63065-1.0592-1.2905-1.5812-1.9894z" color="#000000" fill="url(#ar)" fill-rule="evenodd"/>
     <path d="m530.1 831.96c-5.3273 0-9.6562 12.956-9.6562 28.938s4.329 28.938 9.6562 28.938c0.48882 0 0.96839-0.10181 1.4375-0.3125-4.8506-1.5205-8.625-13.827-8.625-28.781 0-14.484 3.5574-26.503 8.1875-28.625-0.32808-0.10125-0.66273-0.15625-1-0.15625z" color="#000000" fill="url(#as)" fill-rule="evenodd"/>
    </g>
    <path d="m425.66 734.09-2.3632 3.2762 0.0194 7.6925 25.688 1.7812 2.1875-10.062z" fill="#929292" filter="url(#aw)"/>
    <g transform="translate(2,-2)">
     <path d="m423.91 735.09-0.10355 11.46 27.446 1.777 0.17678-10.05z" fill="#bcbfb8"/>
     <path d="m423.91 735.09-0.10355 11.46 2.8737-0.52106v-10.315z" fill="url(#an)"/>
     <path d="m423.74 746.41 27.41 1.8773 0.0355-0.30768-24.322-2.095z" fill="#2e3436" opacity=".6"/>
     <path d="m427.27 737.57 23.585 1.9139 0.0453-0.78624-23.158-2.4486z" fill="#c4c7c1"/>
    </g>
    <path d="m452.88 841.37-26.471 4.4242-0.99104 1.9495-0.16332 10.876 23.818-6.2123 0.0835-1.8278 3.723-9.2099z" fill="#929292" filter="url(#ax)"/>
    <g transform="matrix(1 -.32496 0 1 2.5 248.2)">
     <path d="m423.91 735.09-0.10355 11.46 27.446 1.777 0.17678-10.05z" fill="#bcbfb8"/>
     <path d="m423.91 735.09-0.10355 11.46 2.8737-0.52106v-10.315z" fill="url(#an)"/>
     <path d="m423.74 746.41 27.41 1.8773 0.0355-0.30768-24.322-2.095z" fill="#2e3436" opacity=".6"/>
     <path d="m427.27 737.57 23.585 1.9139 0.0453-0.78624-23.158-2.4486z" fill="#c4c7c1"/>
    </g>
    <path d="m375.29 757.62v0.0906c1.1588-0.29665 2.0827 2.1949 2.0827 5.7152 0 3.5192-0.92439 6.7417-2.0827 7.3922v0.0226c-0.037 0.0211-0.0757 0.0309-0.11319 0.0462l-4.0522 1.6536c-1.8285 0.74614-3.1467 3.1446-3.1467 5.6985v26.034c0 2.5538 1.3182 3.8765 3.1467 3.1304l4.1654-1.6997v0.0906c0.0231-0.0114 0.0446-0.0408 0.0679-0.0503 1.2113-0.49428 2.1959 2.0578 2.1959 5.6916s-0.98461 6.9668-2.1959 7.4611c-0.0224 9e-3 -0.0456 0.0206-0.0679 0.0277l-4.1654 1.6997c-6.9091 2.8194-12.632-2.8304-12.632-12.48v-26.034c0-9.65 5.7229-19.97 12.632-22.79l4.1654-1.6997z" color="#000000" fill="#8d8f8a" filter="url(#az)" opacity=".39184" style="block-progression:tb;text-indent:0;text-transform:none"/>
    <g transform="matrix(.72442 0 0 .72442 -67.156 160.32)">
     <path d="m610.22 824.72v0.125c-1.5997 0.24326-2.875 4.203-2.875 9.0625 0 4.8579 1.276 8.7857 2.875 9.0312v0.0312c0.0511 8e-3 0.10452 0 0.15625 0h5.5938c2.5241 0 4.3438 2.5684 4.3438 6.0938v35.938c0 3.5254-1.8197 6.0938-4.3438 6.0938h-5.75v0.125c-0.0319-3e-3 -0.0616-0.0312-0.0937-0.0312-1.6721 0-3.0312 4.0775-3.0312 9.0938 0 5.0162 1.3592 9.0625 3.0312 9.0625 0.031 0 0.0629 3e-3 0.0937 0h5.75c9.5375 0 17.438-11.023 17.438-24.344v-35.938c0-13.321-7.9-24.344-17.438-24.344h-5.75z" color="#000000" fill="url(#at)" style="block-progression:tb;text-indent:0;text-transform:none"/>
     <path d="m610.22 824.84v0.125c-0.49716 0.0756-0.96905 0.54101-1.375 1.25h2.375c9.5375 0 17.438 11.023 17.438 24.344v35.938c0 10.484-4.8913 19.522-11.625 22.906 9.0498-0.78898 16.375-11.463 16.375-24.281v-35.938c0-13.321-7.9-24.344-17.438-24.344h-5.75zm0 66.375v0.125c-0.0319-3e-3 -0.0616-0.0312-0.0937-0.0312-0.56375 0-1.0787 0.47454-1.5312 1.2812h2.625c1.1114 0 2.0694-0.51659 2.8125-1.375h-3.8125z" color="#000000" fill="url(#au)" filter="url(#ay)" opacity=".6" style="block-progression:tb;text-indent:0;text-transform:none"/>
    </g>
   </g>
   <path transform="translate(42)" d="m1567.2 446.73c-1.213 4.198 0.906 8.655-0.467 12.975-1.108 3.496-3.972 6.009-7.107 7.707 3.315 2.953 7.283-2.632 8.343-6.176 1.342-4.481 0.173-10.054-0.769-14.506m-63.283-14.953c-1.188 0.981-1.53 2.722-1.534 4.171 0.623-1.439 1.191-2.64 1.534-4.171m-1.711-1.191c-4.294 8.188-7.901 17.803-8.45 27.127-0.389 6.629 10.015 17.901 15.65 12.134-7.682-2.251-13.92-6.871-12.715-15.556 0.586-4.213 1.851-8.35 3.321-12.329 1.512-4.096 1.678-7.059 2.194-11.376" fill="#1a1a1a"/>
   <path transform="translate(42)" d="m1574.7 508.34c0 23.212-21.724 31.419-41.22 30.923-21.583-0.55645-40.611-11.984-37.833-36.398 2.4018-21.104 18.603-45.361 41.669-44 23.5 1.3881 37.383 27.751 37.383 49.475" fill="#5500d4"/>
   <path transform="translate(42)" d="m1535.6 459.73c-22.444 0-37.554 24.242-39.176 44.95-1.8679 23.858 18.514 33.695 39.015 33.695-18.624 0-38.707-8.5256-37.796-30.555 0.8738-21.153 17.044-37.864 37.927-37.864 19.923 0 35.201 14.998 36.793 35.191 1.8213 23.093-16.668 33.228-36.91 33.228 19.825 0 39.235-9.4099 38.381-32.324-0.7864-21.141-15.161-46.321-38.235-46.321" fill="#5500d4"/>
   <path transform="translate(42)" d="m1506.6 473.87c-12.324 15.776-19.351 44.684-0.4689 58.297 15.883 11.447 45.613 11.705 60.386-1.9873 15.684-14.527 8.8092-42.419-2.9183-57.204-15.691-19.78-41.6-18.781-56.999 0.89429m-10.56 35.184c0-23.068 17.232-52.251 42.844-49.288 22.383 2.5875 35.063 27.609 35.063 48.573 0 20.996-18.313 29.661-36.48 30.138-18.603 0.48689-41.428-6.6674-41.428-29.422"/>
   <path transform="translate(42)" d="m1535.5 527.44c-13.227 0-29.2-2.0271-38.847-12.391 3.5648 18.154 23.072 23.46 38.787 23.46 15.696 0 34.164-5.3757 37.866-23.232-9.3655 10.195-24.883 12.162-37.806 12.162"/>
   <path transform="translate(42)" d="m1535.6 459.27c21.095 0.0149 34.956 21.881 37.109 41.323 2.4795 22.402-12.917 34.455-33.491 35.558-18.491 0.99365-42.141-5.9619-42.141-28.806 0-20.962 14.101-46.42 36.542-48.002-22.48 1.5481-36.94 26.471-37.768 47.515-0.9426 23.937 21.566 32.453 41.518 31.946 20.66-0.52664 38.484-11.457 36.811-34.649-1.5009-20.79-15.965-44.885-38.58-44.885"/>
   <path transform="translate(42)" d="m1565.8 453.58c0 21.853-37.837 19.946-51.332 17.47-7.375-1.351-18.069-4.67-18.069-13.885 0-6.29 2.491-12.87 4.877-18.581 5.942-14.211 18.146-33.056 36.092-30.386 19.469 2.898 28.432 28.329 28.432 45.382"/>
   <path transform="translate(42)" d="m1534.1 407.95c-16.997 0-34.009 21.239-32.978 37.428 0.526 8.267 2.235 18.179 10.188 22.583 10.464 4.301 21.039 5.14 32.241 3.845 7.212-0.833 16.399-2.498 21.227-8.546 4.508-5.649 2.093-14.896 0.447-21.211-3.744-14.356-13.85-34.099-31.125-34.099" fill="#1a1a1a"/>
   <path transform="translate(42)" d="m1552.8 468.79c0 4.775-7.772 17.435-17.118 17.435s-16.728-12.66-16.728-17.435 7.5767-8.6459 16.923-8.6459 16.923 3.8709 16.923 8.6459z" fill="#fcd095" stroke="#000" stroke-linejoin="round" stroke-width="1.3591"/>
   <path transform="translate(42)" d="m1567.5 438.39c0 17.134-14.967 30.5-31.73 30.5-16.761 0-31.714-13.376-31.714-30.5 0-17.119 14.958-30.501 31.714-30.501 16.758-1e-3 31.73 13.374 31.73 30.501" fill="#fcd095"/>
   <path transform="translate(42)" d="m1514.5 426.96c7.063-8.299 19.275-10.453 29.489-7.896 11.724 2.937 17.8 12.202 19.585 23.692 2.497-16.63-11.371-31.039-27.815-31.039-16.461 0-30.287 14.426-27.799 31.055 0.866-5.57 2.825-11.47 6.54-15.812" fill="#ffe2ae"/>
   <path transform="translate(42)" d="m1566.3 434.73c-1.768 13.546-9.18 23.894-23.344 26.367-17.207 3.004-34.944-7.73-37.739-25.776-0.047 1.054 0 2.102 0.142 3.146-0.142-0.881-0.257-1.763-0.345-2.652-1.836 19.191 16.056 34.237 34.56 32.006 16.211-1.958 28.78-16.626 26.726-33.091" fill="#fabb78"/>
   <path transform="translate(42)" d="m1565.2 429.5c5.858 17.885-7.398 36.128-25.564 38.322-10.063 1.214-20.374-2.473-27.185-10.026-3.328-3.692-5.711-8.201-6.805-13.054-0.671-2.971-2.23-11.156 0.184-13.603-4.34-0.167-2.567 10.749-2.017 13.417 1.112 5.399 3.726 10.419 7.435 14.49 5.106 5.604 12.113 9.253 19.614 10.337 9.855 1.423 20.095-1.602 27.434-8.354 7.393-6.803 15.121-23.065 6.904-31.529m1.803-0.108c0.021 0.319 0.299 0.982 0 0" fill="url(#bh)"/>
   <path transform="translate(42)" d="m1558.3 412.32c5.391 5.529 8.4 10.305 8.717 18.467-0.016-0.459-6.111-5.721-7.033-6.477-2.206-1.809-6.392 3.005-8.875 4.051-10.132 4.265-18.687 1.193-28.968 1.253-4.325 0.025-6.734 3.044-10.563 3.78-2.39 0.459-4.321-3.151-7.093-2.458-3.283 0.818-2.217 6.749-1.722 9.077-8.316-29.954 35.862-47.82 55.537-27.693"/>
   <path transform="translate(42)" d="m1566.6 426.09c0.114 0.962 0.194 1.928 0.239 2.895 0-0.112-5.029-4.594-5.602-5.159-3.455-3.401-3.614-1.055-6.998 1.043-7.448 4.62-17.01 5.242-25.422 3.74-3.727-0.666-7.669-1.342-11.363-0.101-2.103 0.707-5.189 4.057-7.505 2.691-5.602-3.301-8.449-0.262-7.485 5.856-0.942-7.586 4.276-4.95 8.506-3.699 1.911 0.566 5.059-2.478 6.75-3.047 4.441-1.498 9.146-0.241 13.596 0.477 7.568 1.223 16.588-0.041 23.187-4.12 1.939-1.199 3.328-4.188 5.552-2.359 0.925 0.76 7.024 6.013 7.04 6.477-0.06-1.574-0.224-3.14-0.495-4.694" fill="#333"/>
   <path transform="translate(42)" d="m1505.9 431.14c-0.257 0.98-0.887 3.669-0.797 4.675 0.065-0.658 0.475-4.083 3.301-3.198 0.315-1.289-1.482-1.448-2.504-1.477m50.28-5.405c-8.2 5.52-18.441 6.168-27.883 4.525-3.826-0.666-7.88-1.185-11.559 0.434-1.281 0.742-3.66 2.725-5.349 2.725-0.686 0.104-0.515-0.509-0.839 0.264 2.655 1.664 3.762 0.353 6.284-1.112 4.195-2.434 9.056-1.685 13.581-0.877 8.784 1.569 19.496 0.876 26.868-4.763-0.367-0.4-0.735-0.799-1.103-1.196m2.936-2.097c0.946 1.345 1.951 1.628 3.181 2.784-0.947-1.06-2.006-1.987-3.181-2.784" fill="#f2bd7e"/>
   <path transform="translate(42)" d="m1508.5 431.98c-0.378 1.396 0.587 0.835 1.984 1.701 0.447-1.068-1.189-1.264-1.984-1.701m50.256-8.477c-0.794 0.847-1.675 1.589-2.643 2.231 2.749 2.767 1.197-1.208 3.668-1.003-0.148-0.636-0.489-1.045-1.025-1.228" fill="#f3c58a"/>
   <path transform="translate(42)" d="m1505.2 434.73c-0.163 1.292 0.03 2.455 0.225 3.736-0.149-1.251-0.061-2.494-0.225-3.736" fill="#f1b26f"/>
   <path transform="translate(42)" d="m1505.8 431.14c-1.078 1.092-0.877 3.222-0.763 4.568 0.01-0.111 0.586-4.568 0.763-4.568" fill="url(#bi)"/>
   <path transform="translate(42)" d="m1511.5 433.41c-0.209 0.011-0.209 0.011 0 0m1.168-0.449c-0.304 0.161-0.304 0.161 0 0m10.479-3.333c1.716 0.099 3.417 0.309 5.105 0.631-1.688-0.322-3.39-0.532-5.105-0.631m-0.85-0.018c-0.579 8e-3 -0.579 8e-3 0 0m39.748-4.938c1.264 1.299 2.448 2.689 3.786 3.916-1.253-1.311-2.471-2.665-3.786-3.916" fill="#f3bc35"/>
   <path transform="translate(42)" d="m1567.9 427.38c0.1 0.855 1.079 4.15-0.725 2.51-0.201 1.209 0.162 1.997 1.085 2.364 0.462 0-0.315-4.604-0.36-4.874" fill="#f3d4b2"/>
   <path transform="translate(42)" d="m1567 429.77c0.018 0.337 0.036 0.676 0.053 1.011-0.038 0.065-0.078 0.13-0.117 0.193-0.276-0.187-0.55-0.373-0.824-0.558 3.229 3.387 1.429-0.126 0.888-0.646" fill="url(#bj)"/>
   <path transform="translate(42)" d="m1567.1 430.79c-0.157 0.257-0.157 0.257 0 0m-0.054-1.013c0.019 0.339 0.038 0.675 0.055 1.013 0.204-0.436 0.185-0.773-0.055-1.013" fill="#f3bc35"/>
   <path transform="translate(42)" d="m1507.1 430.64c-0.422 0.164-0.842 0.33-1.264 0.495 2.928 0 4.365 3.257 7.207 1.631-1.958 0.737-3.882-2.126-5.943-2.126m46.26-3.321c-5.154 2.463-11.039 3.373-16.71 3.373-6.648 0-13.588-3.553-19.93-1e-3 5.232-2.304 10.92-0.318 16.264 0.332 6.701 0.817 14.42-0.505 20.376-3.704m6.157-4.394c-0.318 0.082-0.556 0.273-0.713 0.576 1.114 0.397 8.269 6.862 8.284 7.28-0.345-1.78-5.246-7.856-7.571-7.856" fill="#1a1a1a"/>
   <path transform="translate(42)" d="m1566.8 427.12c0.025 0.208 0.456 3.051 0.138 3.087-2.813 0.317-5.209-7.403-8.472-7.534-1.128-0.045-5.819 4.281-7.335 4.919-4.879 2.056-10.282 2.851-15.551 2.851-4.526 0-8.882-1.623-13.416-1.599-3.389 0.02-8.58 4.532-11.25 3.744-1.668-0.492-4.424-3.565-6.189-1.668-1.579 1.698-0.677 5.299-0.365 7.299-0.216-1.766-0.866-5.484 1.008-6.663 2.294-1.445 4.109 2.245 6.23 1.836 3.829-0.739 6.24-3.754 10.566-3.778 4.534-0.025 8.89 1.597 13.416 1.597 7.346 0 17.419-1.114 22.481-7.225 1.465-1.765 7.298 7.257 8.876 6.994 0.413-0.069-0.08-3.549-0.137-3.86" fill="#1a1a1a"/>
   <path transform="translate(42)" d="m1554 421.16c0 9.715-35.65 8.844-35.65 0.642 6.511 1.415 13.671 2.588 20.328 1.947 1.775-0.171 15.322-4.978 15.322-2.589" fill="#333"/>
   <path transform="translate(42)" d="m1502.9 435.65c0-20.542 21.476-33.382 40.309-29.158 18.808 4.219 31.07 25.51 22.787 43.863 11.274-20.286-5.063-45.383-26.546-47.973-11.089-1.339-22.352 3.04-29.709 11.426-7.508 8.556-11.11 23.189-5.3 33.64-1.66-3.676-1.541-7.856-1.541-11.798" fill="#1a1a1a"/>
   <g transform="matrix(.15959 0 0 .15959 1575.7 521.58)">
    <ellipse transform="matrix(1.7565,0,0,2.1277,-208.49,-985.45)" cx="179.05" cy="512.94" rx="58.841" ry="21.213" fill="url(#ai)"/>
    <g transform="matrix(1.3313,0,0,1.3313,-59.273,-673.55)">
     <ellipse transform="matrix(1.0002 0 0 .93458 39.52 34.954)" cx="76.071" cy="579.86" rx="69.643" ry="32.5" fill="url(#al)" stroke="#000"/>
     <ellipse transform="translate(38.929,-11.071)" cx="76.071" cy="579.86" rx="69.643" ry="32.5" fill="url(#am)" stroke="#000"/>
     <path d="m45.357 568.79 0.61 9.1 0.462 3.04-0.127-6.59" fill="none" stroke="#000" stroke-width="1px"/>
     <path d="m184.61 567.49 0.5 9.22-0.5 4.04-0.38-7.96h-0.13" fill="none" stroke="#000" stroke-width="1px"/>
     <path d="m54.296 584.66 0.077 6.82c6.966 7.35 30.728 12.88 41.514 15.09l0.077-6.69c-11.518-0.06-34.132-7.1-41.281-14.71" fill-opacity=".46781" fill-rule="evenodd"/>
     <path d="m139.75 599.28 0.08 6.06c5.8-0.6 28.85-3.04 42.33-19.51l0.08-8.97c-8.59 12.1-29.73 21.19-40.97 21.41" fill-opacity=".46781" fill-rule="evenodd"/>
     <ellipse transform="matrix(.91596 0 0 .87727 45.323 59.805)" cx="76.071" cy="579.86" rx="69.643" ry="32.5" fill="url(#aj)" stroke="#000"/>
     <path d="m145.46 576.58c9.6-9.6 16.16-15.15 7.07-23.74-9.09-8.58-29.29-12.63-48.99-11.11-19.697 1.52-36.87 7.58-42.931 16.67s-4.546 16.16 1.01 20.2 13.132 4.55 13.132 4.55" fill="url(#ao)" fill-rule="evenodd"/>
     <path d="m59.094 576.33c4.692 4.03 10.043 7.99 20.708 11.36l89.908-24.75c-2.97-6.3-9.41-10.87-20.46-13.13l-31.82-2.78-30.809 6.32 34.849 4.54-62.376 18.44" fill="url(#ap)" fill-rule="evenodd" stroke="#000" stroke-width="1px"/>
    </g>
    <ellipse transform="matrix(2.2757 -.75771 .77681 3.2571 -520.15 -1415.2)" cx="179.05" cy="512.94" rx="58.841" ry="21.213" fill="url(#ai)"/>
    <path d="m-80.985 22.255s213.5 116.92 231.56 128.2c19.23 12.04 72.73 59.67 71.95 60.18l163.53-96.81s-141.29-102.04-166.15-111.2c-24.85-9.1568-142.6-49.713-142.6-49.713l-158.3 69.338z" fill="#008000" fill-rule="evenodd" stroke="#000" stroke-width="2.5902px"/>
    <path d="m-81.639 16.368s213.7 116.62 231.56 128.21c48.41 31.4 74.57 51.02 74.57 51.02l160.92-103.35c0-3e-3 -81.11-54.95-166.15-95.506-23.91-11.404-142.6-49.714-142.6-49.714l-158.3 69.338z" fill="#008000" fill-rule="evenodd" stroke="#000" stroke-width="2.5902px"/>
    <path d="m-80.331 9.8264s213.47 116.97 231.56 128.21c37.94 23.54 73.26 37.94 73.26 37.94l158.3-109.9c0 2e-3 -83.73-41.863-162.22-75.878-24.31-10.532-142.6-49.713-142.6-49.713l-158.3 69.337z" fill="#008000" fill-rule="evenodd" stroke="#000" stroke-width="2.5902px"/>
    <path d="m-79.023 3.2851s212.85 118.02 231.56 128.2c34.45 18.75 71.95 18.32 71.95 18.32l154.38-126.9c0-1e-3 -87.66-3.926-155.69-36.632-23.87-11.478-143.9-52.331-143.9-52.331l-158.3 69.338z" fill="#008000" fill-rule="evenodd" stroke="#000" stroke-width="2.5902px"/>
    <path d="m-64.044 2.8089s201.35 113.48 219.82 121.71c33.85 15.07 65.69 16.08 65.69 16.08l138.7-112.62c0-1e-3 -76.67-3.726-141.25-34.775-22.66-10.896-137.92-53.602-137.92-53.602l-145.04 63.206z" fill="url(#bg)" fill-rule="evenodd" stroke="#000" stroke-width="2.4589px"/>
    <path d="m70.773 35.337c-18.316 0-108.59-9.157-103.35-31.398 5.23-22.24 91.575-54.947 129.52-49.714 37.937 5.233 154.37 47.098 150.45 69.338-3.93 22.24 6.54 7.85 6.54 7.85" fill="url(#bf)" fill-rule="evenodd"/>
    <ellipse transform="matrix(1.7565,0,0,2.1277,-362.87,-1056.1)" cx="179.05" cy="512.94" rx="58.841" ry="21.213" fill="url(#ai)"/>
    <g transform="matrix(2.5902,0,0,2.5902,-646.25,-1217.5)">
     <ellipse transform="matrix(.51408 0 0 .48033 189.85 199.16)" cx="76.071" cy="579.86" rx="69.643" ry="32.5" fill="url(#al)" stroke="#000"/>
     <ellipse transform="matrix(.51396 0 0 .51396 189.55 175.51)" cx="76.071" cy="579.86" rx="69.643" ry="32.5" fill="url(#am)" stroke="#000"/>
     <path d="m192.85 473.53 0.31 4.68 0.24 1.56-0.06-3.39" fill="none" stroke="#000" stroke-width=".51396px"/>
     <path d="m264.42 472.86 0.26 4.74-0.26 2.08-0.2-4.09h-0.06" fill="none" stroke="#000" stroke-width=".51396px"/>
     <path d="m197.44 481.69 0.04 3.5c3.58 3.78 15.8 6.62 21.34 7.76l0.04-3.44c-5.92-0.03-17.54-3.65-21.22-7.56" fill-opacity=".46781" fill-rule="evenodd"/>
     <path d="m241.36 489.2 0.04 3.12c2.98-0.31 14.83-1.57 21.76-10.03l0.04-4.61c-4.41 6.22-15.28 10.89-21.05 11" fill-opacity=".46781" fill-rule="evenodd"/>
     <ellipse transform="matrix(.47076 0 0 .45088 192.83 211.93)" cx="76.071" cy="579.86" rx="69.643" ry="32.5" fill="url(#aj)" stroke="url(#bb)"/>
     <path d="m244.3 477.54c4.93-4.94 8.31-7.79 3.63-12.2-4.67-4.42-15.05-6.49-25.18-5.72-10.12 0.78-18.95 3.9-22.06 8.57-3.12 4.67-2.34 8.31 0.52 10.38 2.85 2.08 6.75 2.34 6.75 2.34" fill="url(#bc)" fill-rule="evenodd"/>
     <path d="m199.91 477.41c2.41 2.07 5.16 4.1 10.64 5.84l46.21-12.72c-1.53-3.24-4.84-5.59-10.51-6.75l-16.36-1.43-15.83 3.24 17.91 2.34-32.06 9.48" fill="url(#bd)" fill-rule="evenodd" stroke="url(#be)" stroke-width=".51396px"/>
    </g>
    <ellipse transform="matrix(1.7565,0,0,2.1277,-145.69,-1104.5)" cx="179.05" cy="512.94" rx="58.841" ry="21.213" fill="url(#ai)"/>
    <g transform="matrix(1.2222,0,0,1.2222,16.104,-721.07)">
     <ellipse transform="matrix(1.0002 0 0 .93458 39.52 34.954)" cx="76.071" cy="579.86" rx="69.643" ry="32.5" fill="url(#al)" stroke="#000"/>
     <ellipse transform="translate(38.929,-11.071)" cx="76.071" cy="579.86" rx="69.643" ry="32.5" fill="url(#am)" stroke="#000"/>
     <path d="m45.357 568.79 0.61 9.1 0.462 3.04-0.127-6.59" fill="none" stroke="#000" stroke-width="1px"/>
     <path d="m184.61 567.49 0.5 9.22-0.5 4.04-0.38-7.96h-0.13" fill="none" stroke="#000" stroke-width="1px"/>
     <path d="m54.296 584.66 0.077 6.82c6.966 7.35 30.728 12.88 41.514 15.09l0.077-6.69c-11.518-0.06-34.132-7.1-41.281-14.71" fill-opacity=".46781" fill-rule="evenodd"/>
     <path d="m139.75 599.28 0.08 6.06c5.8-0.6 28.85-3.04 42.33-19.51l0.08-8.97c-8.59 12.1-29.73 21.19-40.97 21.41" fill-opacity=".46781" fill-rule="evenodd"/>
     <ellipse transform="matrix(.91596 0 0 .87727 45.323 59.805)" cx="76.071" cy="579.86" rx="69.643" ry="32.5" fill="url(#aj)" stroke="#000"/>
     <path d="m145.46 576.58c9.6-9.6 16.16-15.15 7.07-23.74-9.09-8.58-29.29-12.63-48.99-11.11-19.697 1.52-36.87 7.58-42.931 16.67s-4.546 16.16 1.01 20.2 13.132 4.55 13.132 4.55" fill="url(#ao)" fill-rule="evenodd"/>
     <path d="m59.094 576.33c4.692 4.03 10.043 7.99 20.708 11.36l89.908-24.75c-2.97-6.3-9.41-10.87-20.46-13.13l-31.82-2.78-30.809 6.32 34.849 4.54-62.376 18.44" fill="url(#ap)" fill-rule="evenodd" stroke="#000" stroke-width="1px"/>
    </g>
   </g>
  </g>
 </g>
</svg>
