<?xml version='1.0' encoding='utf-8'?>
<svg xmlns="http://www.w3.org/2000/svg" width="678px" height="678px" version="1.1" viewBox="192 716 678 678"> <g> <g fill="#a1d9d3"> <path d="m192 715.58c-0.11181 0-0.21902 0.04445-0.29807 0.1235-0.07906 0.079-0.12346 0.1862-0.12346 0.298l0.00101 678c0 0.2328 0.18872 0.4215 0.42152 0.4215l678 1e-3c0.1118 0 0.219-0.0443 0.298-0.1234 0.07905-0.0791 0.1235-0.1863 0.1235-0.2981l-1e-3 -678c0-0.2328-0.1887-0.4215-0.4215-0.4215l-678-1e-3z"/> </g> <g fill-opacity=".54118"> <path d="m787.28 1262.9-2.0728 0.4935q-14.745 1.5233-86.31 2.6746-72.059 1.1518-169.71 1.3551-93.197 0.1201-149.08-0.7956-17.904-0.2967-29.497-0.6823l-9.7428-0.4048q-8.0295-0.4256-8.1216-0.9209 2.4315-1.5301 66.554-2.7822 64.123-1.2524 160.7-1.6566 96.575-0.3271 160.71 0.4401 64.134 0.7673 66.576 2.2791"/> </g> <g fill="#0d0500"> <path d="m318.74 972.92q-2.6664 3.1264-3.0504 7.5104-0.35778 4.9834 1.5852 8.9896 1.4954 2.9569 4.3142 4.4216 1.3968 0.7645 3.3951 1.4069 0.37394 0.18017 5.9419 1.5903l10.926-22.702q-3.5352-3.9461-5.9625-5.6588-2.2547-1.5976-4.5504-1.7132-2.8294-0.12704-6.5592 1.6646-3.8258 1.8963-6.0214 4.4672z"/> </g> <g fill="#b8c9e4"> <path d="m356.4 989.99-9.2015 12.137 1.3629 6.5061 45.264 36.648q12.951-5.5147 15.531-9.7904 3.38-4.8174-1.0344-11.265-3.7375-5.58-14.016-14.161-8.9331-7.5463-30.483-23.051l-4.706 2.7348-2.7054 0.24033z"/> </g> <g> <path d="m413.7 1020.6-30.045 32.594q20.212 21.583 33.448 35.099l34.096-34.588q-22.21-19.778-37.499-33.105z"/> </g> <g fill="#fff"> <path d="m347.06 1004.8-0.85208 2.7167q-3.5403 11.705-3.2351 16.96 0.4151 6.3246 3.6368 9.8804 1.5811 1.9603 2.8876 3.1971 8.758 7.9567 9.0368 8.4199 1.7823 1.9608 3.0382 3.5109 7.2656 9.4872 7.3399 9.4167 2.3987 2.694 4.2634 3.8958 7.1686 3.3999 8.926 2.1246 2.487-0.6451 3.024-4.9906l26.83 33.583 22.318-22.64-33.472-35.302-35.145-26.25-18.596-4.5226z"/> <path d="m358.92 989.46 11.389 14.842 53.846 48.522 16.459 11.581 16.954-17.198-42.57-30.882q2.0972-2.1282 2.173-4.6405 0.04233-1.2604-0.41182-2.6271 0.08357-0.61635-2.4784-4.3336-2.7059-3.5368-6.8852-7.0946l-15.9-13.203q-2.1234-1.7614-4.87-3.5142-2.2723-1.6288-6.8137-2.5656-2.5365-0.31155-4.7677 0.52245-8.0982 3.259-16.125 10.591z"/> </g> <g> <path d="m365.3 1005-21.684 27.197q-0.26383 0.2658-0.08283 0.2381l37.127 21.434 22.612-25.429-37.962-23.434z"/> </g> <g fill="#b8c9e4"> <path d="m392.64 1021.3-4.1059 7.2131 11.631 6.9609 5.2005-6.3814-12.721-7.79z"/> <path d="m375.97 1037-4.1983 13.684q0.57336 0.9211 2.1231 1.6412 2.0592 0.9529 4.8127 1.6697 3.1136 0.7885 5.0058 0.5683 1.7312-0.1913 2.8886-1.5597 0.6839-0.7862 1.5127-2.5693l1.9469-9.8524-14.07-3.5764z"/> </g> <g fill="#b87950"> <path d="m362.11 1039.5q-1.1574 0.7046 0.43384 1.2823 0.6822 0.3649 4.3553 0.227 0.4334 0.0278 0.5456 0.2039 0.1521 0.3051-0.74355 0.9856-0.80315 0.559-1.6843 0.7294-0.5816 0.1099-1.221-0.0682l-1.9865-0.828q-0.2738-0.0739-0.44378 0.264-0.29117 2.5737 3.5942 5.0452 3.333 2.0507 5.7423 2.2391 2.3076 0.2258 5.0318-1.3505 1.3831-0.783 2.6716-1.7862 0.51496-0.4032 0.87036-0.7196 1.6658-1.591 2.248-2.0437 1.0909-0.9005 2.7587-2.1059 2.7495-2.0155 13.384-9.2076l-7.7921-4.9818q-7.3063 6.6516-9.7133 7.5747-1.008 0.4371-1.8923 0.4319-0.41183 0.0023-0.87548-0.0863-2.0311-0.5424-2.2528-0.4999-0.70223-0.0645-1.7211 0.1837-1.1246 0.2791-2.5078 0.9498-1.0709 0.5015-2.4233 1.4718-0.27626 0.1586-0.5492 0.264l-4.3571 1.2487q-1.0095 0.3149-1.4643 0.5728z"/> <path d="m383.02 1042.1q0.51187 0.4688 0.80899 0.6604 0.33926 0.225 0.67184 0.3197 0.80869 0.203 1.464-0.1349 0.48035-0.281 0.36763-0.7907-0.114-0.5649-0.8175-1.4851l-2.4919 1.4272z"/> <path d="m374.22 1009.8q-0.97195 1.16-0.68515 6.9128 0.11727 1.9102 0.4281 3.5061 0.13892 0.70765 0.3068 1.3048 0.78503 2.0962 1.0273 3.4118 0.68076 3.1816 1.0083 5.96 0.49247 3.6723-0.34624 6.9786l8.1751-4.554q-0.26944-3.4248 0.217-5.7578 0.23063-1.1543 0.77445-2.4996 0.18105-0.5519 1.9242-4.1218 0.32235-0.7124 0.4931-1.2826 0.43375-1.4393-0.06972-2.5591-0.47987-1.2582-2.7965-3.3911-1.1737-1.1118-4.7413-4.0351-0.87021-0.69726-1.2651-0.72816-0.72546-0.1074-1.159 1.2192-0.52359 1.4961-1.0802 5.192 0.1409-2.8115-0.48476-4.3167-0.80524-1.8706-1.7088-1.2562z"/> <path d="m327.18 973.41q-3.1932 3.754-3.1014 8.2936 0.13324 3.773 1.6861 6.8595 0.65375 1.2662 1.5724 2.2645l0.8469 0.85194q0.40813 0.3917 1.6922 1.4131 0.17633 0.1373 0.21725 0.26804-0.01883 0.0918-0.26535 0.08156-1.9914-0.23745-2.3768-0.14736-0.6326 0.06236-1.0095 0.45496-0.7922 0.9502 1.1433 2.6493 3.814 2.8005 6.1726 0.2623 4.4811 2.9633 6.6348 3.1962 1.837 0.3668 5.5238-0.6361l5.5925 5.341 7.2972-1.8673 4.7464 1.2288-3.1154-4.1991q1.5489-4.7302 0.07108-6.473-0.94988-1.6164-6.6598-3.9097-1.3364-5.65-3.1047-7.7452-0.78446-1.0181-2.0646-2.0958-0.60827-0.55214-3.4283-2.5284-0.56478-0.4282-0.91698-0.75073-2.8268-3.0281-2.9742-3.0251-2.4258-2.1793-7.0607-2.1035-5.057 0.12093-7.1036 2.3009z"/> </g> <g fill="#0d0500" fill-opacity=".10588"> <path d="m353.83 989.68q-0.30118 2.0261-0.65387 3.0548-0.41074 1.2332-1.1083 2.1003-0.70428 0.8793-1.9655 1.7398-1.0386 0.72058-3.2997 1.911l7.7908-1.8861-0.76172-6.9109z"/> </g> <g> <path d="m310.81 973.58q-1.9997 2.3771-2.7442 5.4049-0.66278 2.9229 0.36585 4.7189 1.6139 2.9149 9.735 2.4789l4.9093-12.629q-2.1583-1.9774-3.3806-2.6215-1.4381-0.79384-2.7652-0.77864-3.1762 0.1157-6.1146 3.4193z"/> </g> <g fill="#958a8a"> <path d="m376.41 997.1q4.3411 4.5651 6.7506 5.5651 2.3249 1.0594 5.3863-0.4779 0.21376-0.2294 0.11881-0.51894-0.12435-0.29136-0.42385-0.32286-0.09748-0.0082-0.19453 0.0238-1.005 0.4088-1.5006 0.54125-0.50061 0.14319-0.96689 0.1853-1.0295 0.09165-2.0303-0.33485-2.1948-0.90306-6.4376-5.3463l-0.69434 0.678z"/> <path d="m381.16 987.1-0.48242 0.8573q8.3563 4.6734 10.318 6.5558 0.75531 0.69922 1.0566 1.3346 0.14517 0.30557 0.18987 0.63647 0.03275 0.1111 0.0216 0.90723 0.0401 0.19057 0.23827 0.31517 0.4541 0.19155 0.69439-0.24034 0.10914-0.69176-0.02798-1.3771-0.22955-1.1172-1.5135-2.3058-2.0157-1.9426-10.487-6.6792z"/> </g> <g fill="#268ee1"> <path d="m376.88 996.94q-0.05536 0.0567-0.05548 0.1376 0.0018 0.0803 0.05736 0.13636 0.05632 0.05434 0.13682 0.05554 0.08078-0.00183 0.13658-0.05774 0.0548-0.05726 0.05614-0.13672-0.00241-0.08094-0.05749-0.13624-0.05753-0.0559-0.13815-0.05675-0.0801 0.00245-0.13578 0.05795z"/> <path d="m373.26 987.41q-1.1601 1.1434-1.3952 2.9409-0.23127 1.9373 0.52316 3.7357 0.69114 1.6308 2.4941 2.8767 0.95747 0.6576 1.9546 1.1701 0.57827 0.15176 0.98217-0.23996 0.52348-0.62964 0.0729-1.281-0.08198-0.10876-0.22893-0.20883-1.1229-0.646-1.5898-0.9712-0.4298-0.29275-0.75938-0.5817-0.77202-0.6754-1.1269-1.4798-0.8248-2.0446-0.11349-3.8133 0.73913-1.4884 2.7943-1.746 0.7978-0.07971 1.7659 0.09595 0.9328 0.15137 3.0441 0.8384 0.21296 0.0527 0.44846-1e-3 0.95348-0.3574 0.6582-1.3334-0.1644-0.342-0.47294-0.483-0.62008-0.2178-1.6583-0.5239-1.913-0.5585-3.2881-0.5523-2.5033 0.03176-4.1048 1.5572z"/> <path d="m360.89 987.79q2.4419-0.24535 3.6861-0.23745 1.3986-0.0061 2.5543 0.2107 2.4013 0.43886 5.824 2.3838l0.92616-1.6815-0.01239-0.0128q-2.7485-1.5738-4.9378-2.2346-1.899-0.59695-4.2244-0.60035-0.50247-0.0056-1.1437 0.02296l6.4e-4 -7.6e-4q-1.2988 1.0066-2.6724 2.1494z"/> </g> <g> <path d="m387.88 1001.2 0.82577 1.5513 2.7106-2.205-1.3266-1.3092-2.206 1.9591z"/> <path d="m392.09 996.92-1.1243 2.5048 2.1182 0.7688 1.1696-3.0026-2.1592-0.2701z"/> </g> <g fill="#268ee1"> <path d="m346.69 1005.9q-0.3689 1.1744-0.7022 2.2842l9.3e-4 4.7e-4 7.5306 10.036q0.25422 0.32566 0.70633 0.3668 0.42758 0.01904 0.74308-0.28614 0.48515-0.557 0.11985-1.2094l-8.3983-11.193z"/> </g> <g fill="#fff"> <path d="m472.13 892.84q-4.1811-0.65668-8.9337 0.51155-4.261 1.1449-5.8442 3.3869-0.90144 1.1817-1.5388 3.2285-1.695 5.5143-1.6852 6.9257-0.32843 2.9898 1.759 7.6641l26.155-5.8447q0.5675-2.419 0.03118-3.8792 0.06158-0.21264-2.1498-4.3474l-1.2748-2.8699q-0.3181-0.6595-0.65947-1.2093-1.6664-2.8996-5.8418-3.5633z"/> </g> <g> <path d="m463.33 911.52-5.1005 1.3101 2.9224 4.2059 1.5586-0.07314 0.61932-5.4418z"/> </g> <g fill="#ffb893"> <path d="m478.68 907.08q-3.3292-0.2102-5.8429 0.49174-0.85349 0.24036-1.8726 0.68592-3.8666 1.8965-4.2742 2.0008-1.3117 0.53615-3.8188 1.3104l-0.39093 5.1096-1.0397 0.10904q-1.3146-3.9792-2.8524-4.2782-1.1912-0.32734-2.189 0.23676-0.94857 0.5773-1.035 1.6072-0.08999 1.0279 0.68085 2.7729 0.34872 0.958 2.9232 5.2092 0.47531 0.9094 0.67035 1.6934 0.5433 1.9816-0.23026 6.3714l17.09 6.2014-0.26344-3.165q2.8645-0.53157 3.8964-2.6822 0.63926-1.1975 1.2788-3.528 1.5125-5.718 1.3658-6.0699 0.26404-1.5667-1.0568-8.1637l0.58581-5.0513q-1.4767-0.6972-3.5939-0.8591z"/> </g> <g fill="#fff"> <path d="m458.86 929.76-2.2334 5.9252q-4.4374 0.98499-7.6585 7.7468-1.8238 3.0507-3.098 13.123-0.20846 2.2378 0.00344 3.9084 2.9751 9.1111 5.2095 23.564 1.8092 12.17 1.972 20.389-0.24985 8.5055-1.3116 11.685-1.1627 4.1337-4.4467 11.011-0.48687 1.3925-0.75506 2.8048-0.68051 3.2725 0.18503 9.2566l39.345 2.9622 1.703-11.877 4.775-0.7485 0.6504-35.529 2.8466-5.8276q6.4471-1.6596 9.2908-4.8915 1.8994-2.4839-0.03766-8.5089-0.88117-2.3455-1.447-3.0623-4.5982-3.0994-6.9052-6.446-2.7054-3.7566-13.649-21.6l-5.9476-4.8682q-0.42128-0.4536-0.56838-2.8933l-17.922-6.1245z"/> </g> <g fill-opacity=".14118"> <path d="m459.58 937.2 8.4e-4 7e-4q0.00146 0 0.00146 0-0.00146 0-0.0023-7e-4z"/> <path d="m459.59 937.21 10.539 9.1018 1.4435 0.5942-0.07153-0.06357q-3.9435-3.3367-11.911-9.6324z"/> <path d="m471.58 946.91 0.26967 0.2351q1.0358 0.9125 1.3885 1.3509l0.23077 0.31834q0.33875 0.7235 0.63855 1.1298 0.45352 0.64256 1.921 2.3531l-0.38269-0.90773-0.40945-0.83024-0.43695-0.75189-0.46478-0.67567-0.49235-0.59747-0.51935-0.52008-0.54614-0.44275-0.57413-0.36535-0.62263-0.29605z"/> <path d="m476.04 952.31 0.07345 0.16748q0.33246 0.77957 1.2941 3.2852 0.22281 0.53961 0.32242 0.62125 0.04973 0.05343 0.08166 3e-3l0.02472-0.0793q0.01901-0.1072 0.01523-0.3245 0.02032-0.2024-0.16148-1.78l-1.6501-1.8932z"/> <path d="m448.83 967.54 0.01266 0.01144 0.01242 0.0112-1.2e-4 -1e-3q-0.0123-0.0102-0.02496-0.02164z"/> <path d="m472.95 951.91 13.597 19.35q-1.829-3.6491-4.9265-8.1481-3.7089-5.15-8.6706-11.202z"/> <path d="m489.69 960.73 0.59461 5.6391 0.59406 5.6381q0.92986-0.12256 1.8597-0.24713l-3.0483-11.03z"/> <path d="m486.77 971.47 0.25342 0.41229 0.2713 0.36774 0.28857 0.32226 0.30713 0.27764 0.32416 0.2334 0.34289 0.1876 0.36005 0.14273 0.378 0.09777 0.39568 0.0525q0.16352 0.0126 0.33282 0.0106 0.33814-0.0045 0.69995-0.06846 0.4499-0.0896 0.5694-0.13194l-4.5234-1.9041z"/> <path d="m497.63 970.17-0.54553 0.3331q-2.1147 1.2842-3.1619 1.7986-0.5324 0.284-1.563 0.71355-0.57243 0.22737-1.0598 0.3627l1.2439 0.52135q2.0165-1.4428 4.1244-2.9814 1.0013-0.735 0.96191-0.748z"/> <path d="m489.3 977.01 0.32897 0.67823q0.65852 1.3273 1.3132 2.4242 0.81714 1.3207 0.97986 1.5141 1.3299 1.8566 2.4927 2.7516l-5.1147-7.3682z"/> <path d="m494.42 984.38 1.3196 1.9013q1.3353-0.1394 2.6708-0.28039 1.016 0.12768 2.1416 0.04163 0.52015-0.05164 0.84668-0.11536 0.29969-0.04384 0.51514-0.17664-0.03833-0.0272-0.23144-0.0239-0.0091-0.01187-0.77039 0.0376-0.38544 0.01975-2.4795 0.2345-0.10413-0.0038-0.53449-0.07864-0.44726-0.07986-0.86664-0.20032l-0.41242-0.13014q-0.40575-0.1393-0.78295-0.32006-0.74799-0.35324-1.416-0.88954z"/> <path d="m494.1 987.88-6e-5 8.3e-4 3.6e-4 1.5e-4h4.9e-4t6.1e-4 -8.5e-4l-0.00146 7e-4z"/> <path d="m488.96 994.23-0.33063 0.1904q-0.65162 0.36634-1.2247 0.60755-0.28687 0.12145-0.55353 0.21095-0.16284 0.06676-0.72212 0.19505-1.0424 0.2146-2.3161 0.04395 0.32795 0.05615 0.64802 0.0846l0.61608 0.02575 0.52497-0.02195 0.51393-0.0645 0.50194-0.1058 0.4906-0.1483 0.47919-0.19155 0.46753-0.23195 0.45674-0.2743 0.44805-0.3199z"/> <path d="m450.73 969.23 31.116 27.702 8.5283-2.2229q-5.2925 1.3131-5.6745 1.1217-1.4326 0.05042-4.5958-1.9744-2.2704-1.3589-8.3244-6.3742-3.476-2.7336-21.049-18.252z"/> <path d="m478.51 994.64 3.8702 35.226q-0.20838-5.1707-0.18109-6.572 0.00482-1.3266 0.0476-2.1814 0.23694-3.3588 0.21344-3.4838 0.0332-0.75645-0.06872-1.8548-0.052-0.7029-0.41413-2.1254-0.12378-0.49218-1.4256-4.4698-0.26798-0.8711-0.45911-1.8547-0.19309-1.1217-0.155-2.0005 0.00989-0.3937 0.05565-0.90945 0.2643-2.2028 0.28432-2.6477 0.05362-0.8031-0.0506-1.704-0.47299-2.7931-1.717-5.4229z"/> <path d="m444.43 1028.1 1.4105 0.4738q5.5752 1.8536 10.242 2.9903l-11.652-3.4641z"/> <path d="m487.09 1030.5-0.14068-0.0051q-1.0427 0.0202-3.4257 0.3086-2.9248 0.3429-8.9139 1.1611 0.7943 0.0074 1.5936-0.0056 2.003-0.0546 2.4104-0.0917 1.615-0.0941 3.2524-0.2739 0.98315-0.1196 1.7955-0.2367 1.8801-0.2927 2.0504-0.3495 1.2375-0.2877 1.2792-0.3442l0.25542-0.1138q0.01008-0.0333-0.15662-0.0492z"/> <path d="m460.01 1030 4.6392 1.3353 4.6397 1.3357 5.2935-0.728q-0.75089-5e-4 -1.5254-0.0281-0.57354-0.0127-1.9769-0.1093l-1.131-0.0965q-1.1434-0.1104-2.3363-0.2718-3.5779-0.4863-7.6027-1.4373z"/> <path d="m494.1 987.88-0.63506 0.9899q-2.5077 3.8144-4.4896 5.3479 1.0738-0.6448 2.1305-1.3766l2.9942-4.9612z"/> <path d="m492.19 994.23-0.08649 0.0221q-1.2454 0.328 0.08649-0.0221 0.00238-8.6e-4 0 0z"/> <path d="m490.44 994.69h-5.4e-4 -3.8e-4q9.2e-4 0 9.2e-4 0z"/> <path d="m474.58 1032h-5.2e-4l-4.5e-4 -1e-4q4.5e-4 1e-4 9.7e-4 1e-4z"/> </g> <g> <path d="m603.45 902.7q-5.9701 4.2004-6.148 16.251-0.50676 7.7524 0.55604 12.713 0.37329 3.4901 3.4397 7.8389l2.0553 2.9855 31.251 7.482q-2.0038-13.367-5.454-25.207-4.3858-15.086-7.4222-19.71-1.3104-2.0403-2.9376-2.8309-5.0406-1.6557-6.791-1.8679-0.98938-0.12815-1.6418 0.06695-0.69586 0.14203-1.7204 1.142-3.4155-0.11386-5.1397 1.1062z"/> </g> <g fill="#d5f5ff"> <path d="m623.06 936.12q-8.4158-0.01486-17.043 1.7597-1.8743 0.47006-2.7937 1.1369-0.53289 0.27667-1.3252 1.7549-0.32924 0.35325-0.68776 0.54999-0.56444 0.40033-3.1662 1.2013-7.0445 11.987-9.8736 18.592-3.2984 7.4981-4.5456 14.414-0.7035 3.706-1.1397 7.9519-0.23266 1.7608-1.0347 13.084-0.20911 2.3773-0.47094 4.3238-0.43867 3.9671-2.5816 13.277-0.3326 1.8495-0.3237 2.9685l12.886 11.587q9.3769 4.2608 13.551 4.3932 9.4759 0.9127 11.821-13.317 0.89697-4.6188 1.4806-12.085 0.2172-0.94957 1.5072-28.626 0.36954-5.9154 1.0162-10.938 0.80744-6.2778 2.0287-11.845 0.84163-4.1553 3.6872-14.015 0.3664-1.4302 0.4981-2.676 0.1395-1.628-0.40696-2.0639-0.23904-0.24034-0.88629-0.33974-0.18435-0.63346-0.55731-0.7637-0.42579-0.2373-1.6315-0.3245z"/> </g> <g> <path d="m625.19 1014.9 0.01123 1e-4q1.1682 0.14465 1.3992 1.2013l0.1961 0.8833 0.65305 6.0699q-5.2536 1.8445-10.342 3.0311-3.6297 0.7087-6.0123 0.552-0.88013-0.0177-2.4017-0.1875-0.1327-0.0179-0.2269-0.1363l-0.1097-0.2104-0.65874-3.8997q0.29547 0.0414 1.9303-0.1566 0.66366-0.1035 1.353-0.2721 1.3789-0.3386 2.862-0.9442 0.85885-0.1713 9.5451-5.3866 1.4586-0.6193 1.8015-0.5443m0.33453-0.8899-0.05035-6e-4q-1.1494-0.01126-2.131 0.4807-4.871 3.0474-10.19 5.6748-2.3754 0.9752-5.1317 1.1639-14.337 0.71657-17.922 0.01037-3.4072-0.5442-5.3674-1.3507-2.4148-0.9064-6.1635-3.3792-0.25311-0.07325-0.42356 0.01235l-1.3033 6.9924q-3.8659 11.309-5.8029 18.187l58.281 1.914q0.83304-6.0258-1.6525-26.912-0.35076-2.4142-2.143-2.7932z"/> </g> <g fill="#fff"> <path d="m607.28 980.37q-8e-4 -1.4e-4 -0.00135-1.4e-4 -9.5e-4 0-0.00185 0zm4.0582 45.364q-7e-3 0-0.0141-2e-4 -0.0075-2e-4 -0.0145-5e-4zm14.156-84.902q-0.23465-0.00846-0.38485 0.18684-5.6878 7.4364-8.4178 11.416-3.775 5.4639-5.7215 9.4932-3.5321 6.9662-4.0746 17.427l-19.08-4.4655q-0.04858-0.0117-0.09338-0.0129-0.29871-0.0098-0.43421 0.4281l-0.51751 10.953q-0.05829 0.12745 0.14946 0.40088l17.248 4.8152q0.65461 11.226 1.4996 17.386 0.68407 5.4571 2.6926 17.236 0.1124 0.3168 0.3366 0.3467 1.2068 0.1448 2.3824 0.1841 3.1254 0.1018 6.0316-0.5486 6.5921-1.527 13.515-4.2039-0.36385-3.0031-1.3903-7.6826-0.24113-1.4176-1.9882-6.3944-0.33136-1.1331-0.551-2.6695-0.5206-3.7752-0.2096-12.612 0.3156-1.4514 1.4424-3.7537 5.235-9.6748 5.9585-11.444 1.4092-3.0152 2.6062-6.2813 4.8654-14.328 4.8976-19.296-0.08924-3.0497-3.6427-5.3664-5.7995-3.7182-12.142-5.5222l-0.09-0.01783q-0.01134-5e-5 -0.02275-5.4e-4z"/> <path d="m570.1 966.8q-6e-4 0-1e-3 0-2e-4 -1e-4 -8e-4 -1e-4zm11.966 4.6622q0.09974 0.00285 0.18964 0.0571l-2e-4 1e-3q-0.0897-0.05525-0.18944-0.0581-0.1001-0.0029-0.21126 0.0438 0.11116-0.0467 0.21126-0.0438zm-13.578 7.6128q-0.00283-1.4e-4 -0.00519-1.4e-4 -0.00207 0-0.00488-1.3e-4zm33.484-38.38q-7.7494 1.0259-9.9186 3.0004-0.85843 0.69391-1.5749 1.6434-3.7021 5.9555-6.3571 8.6462 0.01424 0.17657-5.0725 4.4615l-5.255 5.5287q-1.4224 1.2421-3.0104 1.7136l-0.52904 0.16466q-2.4053-1.3571-3.5577-2.1493-1.3958-0.79707-3.201-3.1699-2.3966-1.1629-3.2224-1.971-1.0874-0.74585-7.1174-7.9349-0.0113-4.6e-4 -0.02276-6.1e-4 -0.4024-0.01335-0.49078 0.21192l-6.0378 7.8042q0.0015 0.36184 0.1079 0.40243l15.34 16.573q3.4105 3.5426 4.86 4.0192 0.7096 0.3047 1.5269 0.33104 1.4947 0.04932 3.3523-0.83164 2.8063-1.2398 9.706-6.281l1e-3 9.5e-4q-0.3477 4.951-0.8668 6.842-0.12545 1.036-1.6435 2.8025-0.1701 0.29734-0.26444 0.97544-0.08913 0.57656 0.0837 1.9715l0.9922 6.3829 0.10737 2.2819q-0.04737 0.92454-0.28193 1.7588-1.5565 4.1317-1.6899 5.4464-0.4981 2.8204-0.46704 6.3799-0.09509 8.593 4.6116 10.223 0.41187-0.08706 0.42981-0.39077-0.19814-5.3159 0.36823-8.7632 2.7549-12.729 3.0316-16.244 0.51317-3.2691 1.7775-21.98 0.29915-3.177 0.7979-5.0771 0.73464-3.096 3.0634-6.2179l10.276-11.967 0.24311-2.8528q-0.01147-0.3731-0.11587-0.4093-0.03196-0.08173-0.30863-0.14063l-2.9121 0.33313 3.5191-2.7349q0.35384-0.66503-0.26766-0.78167l-0.0103-2.6e-4z"/> </g> <g fill="#ffc4a2"> <path d="m535.93 940.18q-1.0614-0.0135-0.52344 1.4775 1.511 3.2997 2.7984 4.7548 0.71786 0.8388 1.9021 1.6497 0.7356 0.5418 3.388 1.9577 0.4663 0.27906 0.8735 0.61541 0.3557 0.29265 0.9009 0.83185 2.4038 2.4373 4.4167 4.4132l3.6041-4.4876q-1.1664-1.7083-1.686-2.682-0.2444-0.34045-1.4973-3.3078-0.3012-0.6169-0.60113-0.9552-0.284-0.3331-0.73523-0.6152l-1.3813-0.76754q-1.7899-1.1134-1.912-1.1566-0.8909-0.4964-1.2988-0.32709-0.6975 0.40744-0.20266 1.5573 0.16259 0.34745 0.53491 0.81186 0.07865 0.13977 1.4612 1.5741 0.3119 0.36385 0.32976 0.50295 0.08338 0.36945-1.0611 0.03175-1.2035-0.385-2.5669-1.2365-0.649-0.41036-1.4044-0.99984l-2.6524-2.1837-0.94391-0.71344q-1.0396-0.71146-1.7374-0.74556z"/> <path d="m609.14 905.8q-4.526 0.03726-7.2439 2.6441-2.0564 1.9886-2.6527 7.5481-0.2405 8.7151 0.9818 11.891 1.0146 3.3191 5.6014 6.8545l0.43005 4.2414-1.3923 4.9143q-0.32911 1.2816-0.34387 1.9998-0.03376 0.87848 0.4475 1.5665l0.4231 3.1138 14.648-11.332-0.72535-8.7406q1.5003-4.2324 1.6486-6.3723 0.2567-2.4045-0.57724-4.9162-0.65016-2.0405-2.3125-5.0282-1.7657-3.339-3.6026-5.6326-2.16-2.6911-5.3016-2.7502z"/> </g> <g fill="#f00" fill-opacity=".098039"> <path d="m619.13 930.62q-4.1655 4.4749-6.7449 5.2816-2.9625 0.96884-6.4545-1.1801l4.4461 7.8744q8.7171-11.695 8.7573-11.965z"/> </g> <g fill="#fff"> <path d="m584.43 1001.3-1.6822 18.575-4.8799-1.5286q-0.46594-4.9629-0.52694-7.701-0.0332-2.7356 0.0199-3.2766 0.0449-1.0893 0.1536-2.1708 0.1101-1.0808 0.28405-2.1569 0.05609-0.54004 0.63629-3.2156 0.60791-2.6723 2.058-7.4466l3.9372 8.9206z"/> </g> <g fill="#fff" fill-opacity=".99608"> <path d="m629.63 982.22-26.72 9.386-3.6108 29.719-0.49877 21.376 30.432 0.9999 0.39789-61.48z"/> <path d="m586.65 966.3-8.1877 14.421-11.648 60.928 15.066 0.4956 3.8989-41.585 0.87133-34.26z"/> </g> <g fill="#ffc4a2"> <path d="m588.72 975.86q-1.1941-0.4403-2.0566-1.0046-0.17236-0.04932-2.611-1.9721-0.5778-0.41984-1.0792-0.70801-1.0481-0.60933-2.0344-0.79103-1.1304-0.2132-2.5602-0.061-0.5691 0.0572-1.288 0.1758-3.6275 0.65536-4.3409 0.74325-1.3591 0.19535-2.1341 0.18555-0.90167-0.01734-1.4617-0.2866-1.4987-0.7945-2.756-1.633-0.41479-0.23034-0.77995-0.30109-1.3689-0.13325-1.7743 0.95978-0.1338 0.49707 0.40685 1.2716 0.15965 0.30405 1.86 2.1505 0.20524 0.22814 0.8227 1.1609 0.1359 0.18675 0.3259 0.35886 0.1694 0.15564 0.5242 0.36624 1.9653 1.0377 2.3588 1.3275 0.26324 0.1433 2.311 1.6992l0.67657 0.45435q0.68616 0.42555 1.3446 0.54235 0.32494 0.0601 0.67034 0.07936 2.0405 0.02174 4.5686 0.23828 2.6394 0.21582 7.7823 0.75186l1.2231-5.7006z"/> </g> <g fill="#fff" fill-opacity=".99608"> <path d="m598.15 949.67-7.37 17.401-2.2708 8.5062-3.6314-4.2616 0.3705-12.325 12.902-9.3213z"/> </g> <g> <path d="m623.78 934.15v8.5e-4c-0.0048 0.12985-0.04037 0.25795-0.1044 0.37195v9e-4l-16.226 28.751c-0.22077 0.39205-0.71737 0.52945-1.1088 0.30908-0.3916-0.22123-0.5295-0.71759-0.3086-1.1086v9e-4l16.226-28.753-0.1049 0.37353c0.01474-0.44883 0.39126-0.80243 0.84-0.78686 0.4492 0.01493 0.80145 0.39038 0.7867 0.84003z"/> <path d="m605.54 937.37v9.2e-4 0.00103c-0.00366 0.10627-0.0283 0.2119-0.0735 0.30964l-4e-5 8.6e-4 -9.8091 21.478c-0.18685 0.4089-0.669 0.589-1.0782 0.4022-0.40845-0.18685-0.58895-0.66946-0.40215-1.0784v8.5e-4l9.8096-21.479-0.0729 0.3105c0.01476-0.44884 0.39073-0.80046 0.83977-0.7857 0.44883 0.0148 0.80108 0.3901 0.78643 0.83875z"/> <path d="m596.98 975.06-1.5185-0.98303c-0.36102-0.23364-0.47796-0.7079-0.26706-1.0823 2.3408-4.1552 4.8608-8.6887 7.6356-10.296v0.00104c0.87385-0.5072 1.7879-0.74017 2.6778-0.71087 2.1264 0.06939 3.8774 1.6075 4.5692 3.8372 0.94796 3.0565-0.05936 7.5882-0.9624 11.76-0.09117 0.4204-0.49363 0.698-0.91825 0.6328l-2.834-0.43505c-0.44376-0.06811-0.7489-0.48265-0.68106-0.927 0.06833-0.44455 0.4834-0.74905 0.9278-0.68078l2.8338 0.43518-0.9188 0.63185c0.9469-4.3744 1.7892-8.388 0.99915-10.935l-1.5e-4 1e-3c-0.52884-1.7066-1.7683-2.6516-3.0689-2.6935-0.56156-0.01789-1.177 0.12542-1.8095 0.49066v7e-4c-2.2891 1.3264-4.571 5.3169-7.0325 9.6854l-0.26654-1.081 1.5181 0.98324c0.37713 0.2434 0.48529 0.7474 0.24093 1.1236-0.2439 0.37807-0.7476 0.48621-1.1248 0.2417z"/> </g> <g fill-opacity=".99608"> <path d="m598.11 960.98-0.1852 0.49545q-0.6989 1.4576-2.1471 2.0244-1.4568 0.56293-3.0084-0.08817-1.4576-0.69894-2.024-2.1483-0.56365-1.456 0.0886-3.0074 0.6986-1.4576 2.1476-2.0251 1.4564-0.562 3.0075 0.0889 1.4576 0.6991 2.0245 2.1477 0.18026 0.46754 0.23666 0.97211l0.02274 0.50817q-0.00994 0.51466-0.16284 1.0323z"/> </g> <g fill="#3c464f" fill-opacity=".99608"> <path d="m596.36 960.63-0.093 0.24964q-0.35026 0.73016-1.0775 1.0155-0.7304 0.2824-1.5082-0.04414-0.73153-0.35163-1.0154-1.0773-0.09065-0.2351-0.1193-0.4875l-0.0115-0.25525q0.00494-0.25805 0.08166-0.5177 0.25794-0.78931 0.94334-1.1595 0.6859-0.37122 1.4871-0.1532 0.78934 0.25689 1.1595 0.94287 0.37024 0.68566 0.15334 1.4866z"/> <path d="m598.57 975.71-0.16005 0.08106q-0.51015 0.2002-1.0003 0.00611-0.49169-0.19567-0.72574-0.71643-0.20065-0.50964-0.0067-0.99939 0.06295-0.1593 0.1656-0.29651l0.1116-0.13174q0.1218-0.1245 0.27885-0.2179 0.49095-0.27225 1.0004-0.139 0.5095 0.1323 0.8057 0.608 0.27214 0.49087 0.13927 1.0003-0.13217 0.50928-0.60857 0.80553z"/> <path d="m605.9 978.28-0.16003 0.08006q-0.51013 0.2012-1.0007 0.00637-0.49128-0.1958-0.72604-0.71487-0.19987-0.51145-0.00596-1.0002 0.06346-0.1592 0.16556-0.29665l0.1113-0.13159q0.12164-0.12439 0.27874-0.21776 0.49086-0.27235 1.0003-0.1399 0.5094 0.13305 0.80575 0.6085 0.2721 0.49 0.1393 1.0005-0.13164 0.5093-0.6082 0.80554z"/> </g> <g> <path d="m542.27 902.22 17.854 12.424 17.854 12.425q-0.88486 25.866-1.7698 51.733-16.314-16.469-32.628-32.939l-1.3105-43.642z"/> </g> <g fill="#ffc4a2"> <path d="m581.58 972.92 0.02204 0.01q0.117 0.04963 0.21697 0.08155 0.06993 0.02185 0.10103 0.03021 0.1109 0.02864 0.13536 0.03224l-0.47131-0.1539-0.00409-1e-4z"/> </g> <g fill="#383639" fill-opacity=".65882"> <path d="m542.28 902.73 0.50373 42.797 34.123 32.793 3.448-50.359q-21.291-14.107-38.075-25.231z"/> </g> <g fill="#5eacac"> <path d="m559.38 933.28 0.0073 0.0058q0.02124 0.0224 0.0327 0.0585 0.01076 0.03707 0.0079 0.07375-0.0035 0.03095-0.01985 0.0426-0.00515 0.0036-0.01141 0.00345l-0.00694-0.0012q-0.0063-2e-3 -0.0142-8e-3 -0.01975-0.01646-0.03404-0.05455-0.01396-0.03795-0.01436-0.0719 0.00204-0.04035 0.0175-0.05235 0.0151-0.0109 0.0354 0.0039z"/> <path d="m559.3 946.65 9e-3 0.0097q0.05985 0.0713 0.3917 0.6214 0.0435 0.07924 0.3134 0.45064 0.3379 0.44556 0.7066 0.80646 0.08285 0.08636 0.32 0.29064 0.11886 0.10606 0.37485 0.27832 0.14445 0.09154 0.27415 0.1471 0.0606 0.03094 0.37856 0.12018 0.25518 0.75866 0.32708 0.83516 0.03406 0.066 0.11121 0.1304 0.03725 0.02455 0.05415 0.02876l0.1084 0.0304q0.0494 0.02124 0.1091 0.07274 0.0431 0.04084 0.0632 0.0697 0.0609 0.1016 0.0549 0.1164-0.07676 0.25025-0.8207-0.01995-0.6463-0.93635-1.2136-1.6184-0.30886-0.37307-0.64996-0.74843-0.2129-0.23957-0.9623-1.0114-0.08513-0.69005 0.0503-0.60975z"/> <path d="m561.57 962.86-0.01436-0.0135q-0.17253-0.16223-0.39855-0.3363-0.12188-0.09003-0.23665-0.13764-0.3532-0.12891-0.70555-0.09746l2.2346 2.1488q-0.2404-0.61055-0.431-0.94175-0.1649-0.29397-0.233-0.3805-0.089-0.1213-0.21544-0.2417z"/> <path d="m555.21 956.76-0.083-0.07566-0.08204-0.0636q-0.08156-0.05886-0.16052-0.0941-0.0791-0.03715-0.15614-0.0535-0.2301-0.0452-0.4473 0.0974l2.0684 1.9876q-0.35046-0.71515-0.61444-1.1258-0.276-0.43542-0.52496-0.6723z"/> <path d="m559.14 919.24-0.0437-0.0294q-2.6672-1.164-2.7034 2.0914-0.07985 0.7253 0.0204 3.1625 0.02225 0.1938-0.1804 0.4685l-0.00774 0.22134q-0.04496 0.073 0.33994 0.93066 0.0726 0.4408 0.2676 1.0623 0.24775 2.4575 0.3616 2.6338l0.8583 1.778q0.0655 0.21653-0.2092 1.4838 0.5009 0.3241 0.49444 0.45855-0.75348-0.34635-0.64424 0.39599 0.6891 0.50456 0.6313 0.84026-0.765-0.7554-0.8417-0.1297-0.00877 0.1449 0.0883 0.2765l0.538 0.57575q0.0713 0.11792 0.03 0.2326-0.0501 0.1482-0.49997-0.4956-0.11983 0.25355-0.21043 0.21995-0.7455-0.2049-1.1544-0.146-0.83326-1.1135-2.2327-2.3719-0.4849-0.448-0.65814-0.57345-0.15646 0.2113-0.79242-0.43585-0.44554 0.089-0.2638 0.7908 0.10286 0.40427 1.0465 1.5686 0.10725 0.17737 0.08002 0.263-0.04367 0.04697-0.21063-0.09343l-1.4187-1.1752q-0.1294-0.08-0.223 0.0962l-0.08135 5.677q-0.01325 0.84345-0.20645 3.661-0.13675 2.6441-0.68857 4.6899 0.26972 1.196 0.24323 1.3694-0.26256-0.0875-0.32056 0.15945l-1.0414 3.0814 0.5526 0.53086q0.3744-0.97886 0.5272-1.2855 0.08306-0.19523 0.1734-0.16729 0.032 0.03776 0.01544 0.12196l-0.36584 1.6677 0.5883 0.5648q1.2151-3.2176 1.1508-3.1987l0.31735-0.36945q-0.38599-3.9513-0.27429-6.1242 0.10994-4.2542 0.27164-6.7459 0.05764-0.83663 0.1033-0.96803 0.03936-0.1005 0.14044-0.0165 0.62976 0.8058 0.86666 1.6424 0.3159 2.9481 0.5253 3.7149-0.10314 0.65714-0.06445 1.7383-0.28235 0.4035-0.28491 0.86578-0.04934 0.36956 0.16746 1.4219-0.1949 0.2054-0.0917 2.4129l0.1846 2.1609q0.1184 0.6229 0.57655 1.5786 0.05175 0.48745 0.12909 0.70797 0.10666 0.29876 0.16352 0.24957-0.1034-0.81079-0.03276-0.74854l0.5542-0.0191 1.2112-0.75445q1.0656 0.06535 1.2471 0.90485 0.04957 0.2887-0.09533 0.60937-0.83576-0.69167-1.5975-0.08161-0.70453 0.61274-0.68476 1.0964-0.0061 0.27866 0.0632 0.24576 0.37235-0.59586 1.3371-1.0814 0.0824-0.1077 0.7392 0.3159 0.1966 0.61697 0.027 0.90664l-0.41124-0.22168 0.36859 0.5954 0.1159 0.85344q-0.13019 0.0718-0.16295 0.1924-0.4586-0.42554-0.38-0.24726l0.3569 0.76436q0.01766 0.6241 0.14327 1.0411 0.06603 0.209-0.68592-0.4425l0.4336 0.7893q0.05785 0.06014 0.06659 0.8297l0.14996 0.3406q0.0144 0.2301-0.5859-0.5105-0.04075 0.0385 0.4027 0.8187-0.0023 0.9161-0.06894 0.87644l1.7706 1.7016q-0.11583-0.3764-0.00689-0.8684l0.42871-0.1111-0.49225-0.3927q-0.1333-0.1385-0.15393-0.2624l0.18139-0.04566 0.12128-0.69787 0.44281 0.09643q-0.72575-0.7741-0.70215-0.8894 0.14496-0.0569 0.20746-0.68054l0.42297-0.09416q0.03377-0.1094-0.37377-0.4591-0.12706-0.257-0.19516-0.55654l0.1333-0.54326 0.39236 0.0781-0.40676-0.5371q-0.1087-0.6576 0.06747-0.82965 0.40667 0.35168 0.83213 1.2292 0.94985 2.3901 1.1994 3.369 0.05158 0.1333 0.06854 0.0727 0.1413-0.6185-0.8326-3.0855-0.5857-1.5008-1.3907-2.3816-0.1911-0.8248 0.05405-0.882 0.59065 0.39175 1.1808 1.6048l1.1378 2.8755 0.64068 1.2596q0.08146 0.02007-0.0556 0.56897 0.01106 0.12476 0.04196 0.149 0.11984 0.1702 0.3062-0.4903 0.4514-0.06416 0.5649-0.27 0.1145-0.1597 0.1733-0.4282 0.05475-0.95903 0.2487-1.592 0.16946-1.855 0.01113-2.6657 0.24027-0.44782 0.25751-0.88422 0.05136-0.58244-0.26264-1.7262 0.0731-0.9826 0.0211-1.7177l0.80715-2.9698q0.71925-0.3869 1.115 0.12444 0.27995 1.5176 0.05314 9.8986-0.12128 2.5638-0.16234 2.4523l-0.3794 1.8556q-0.0569 0.3355-0.028 0.549l0.3442 0.9064q-0.0105 0.1626 1.1482 5.8533l0.71363 0.68727q-0.35363-2.407-0.25483-2.3759 0.11146 0.18682 0.6634 2.767l0.68384 0.6581-1.091-5.6512-0.08634-0.30493q-0.2683-0.32967-0.2427-0.43527-0.02466-0.26346 0.3655-0.96146-0.54104-2.5794-0.60586-8.0969-0.12469-3.2571 0.23426-8.4486-0.23585-0.7413-0.3203-0.7475l-1.682-1.3674q-0.19787-0.1583-0.24413-0.29146-0.0206-0.14184 0.0478-0.1427 1.1196 0.53491 1.3558 0.23276 0.1854-0.46635-0.2881-1.2428-1.0506-1.4548-4.1613-2.9706-0.52566-0.9048-1.1743-1.757-0.09864-0.12796-0.19024-0.53354-0.4488-0.12873-0.5356-0.39106-0.02-0.13617 0.0801-0.1249 0.0807-0.01377 0.5758 0.3621 0.05694 0.01854 0.0579-0.1003-6.6e-4 -0.3707-0.224-0.7481l-0.5985-0.58985q0.0513-0.17545 0.1527-0.14721l0.4886 0.35016q0.1433-0.5469-0.6173-1.4094l0.4853 0.237q0.0645-0.1291-0.11-1.1942-0.0182-0.47146 0.0138-0.48743-0.0943-0.14776 0.78606-0.26583l0.17408-0.1634 0.47412-2.0213 0.71808-1.1086-0.16858-0.7978q0.18451-1.7687 0.15741-3.5419-0.11011-3.5241-2.8153-5.7732zm-1.5942 8.3958q0.1236 0.1043 0.223 0.2587 0.0269 0.0479 0.0457 0.10493l0.0168 0.05603q0.0138 0.05768 0.02 0.11554 0.0115 0.1161-0.0122 0.1878-0.0116 0.0328-0.03233 0.04536l-0.04807 0.00894q-0.00985 0.00345-0.014 0.0129l-0.00275 0.01295v0.01415q0.00195 0.0179 0.00909 0.0446 0.0036 0.02084 0.07456 0.21585 0.01877 0.06275 0.0282 0.12042 0.0187 0.11733 1e-3 0.18463-0.00866 0.03265-0.02606 0.0481l-0.01894 0.0079q-0.02104 0.0044-0.0501-0.0175-0.03655-0.0339-0.07775-0.15087-0.0412-0.11713-0.06451-0.23253-0.01024-0.05397-0.01184-0.0927l9e-4 -0.03097 0.0097-0.02429 4.4e-4 -0.01214q0.00246-0.00196-0.01104-0.0615-0.0134-0.0541-0.039-0.1293l-0.0785-0.2207-0.0293-0.095-0.02197-0.08634-0.01523-0.07866-0.0078-0.0689-0.0022-0.05843 0.00564-0.04792 0.01226-0.03351 0.01875-0.02294 0.02575-0.0068 0.0327 0.0075 0.0391 0.0247m2.8952 2.2148 0.0253 0.02054q0.06953 0.05186 0.14986 0.17376 0.03198 0.0538 0.04044 0.1029l8e-4 0.01985q-9e-4 0.0188-0.0066 0.04205-0.0048 0.035-0.05753 0.12463-0.01593 0.02587-0.0354 0.04883l-0.10007 0.10554q-0.0359 0.0488-0.05734 0.0961-0.00806 0.01314-0.02126 0.0673l-0.0019 0.01884 0.0037 0.05463-0.0026 0.03773-0.00736 0.0346q-0.00958 0.0345-0.02644 0.0624-0.0344 0.05814-0.0822 0.073-0.0235 0.00675-0.04706-0.00155l-0.02198-0.01085-0.02326-0.02706-0.01824-0.03821-0.01326-0.04559q-0.02147-0.10704-0.00676-0.22339 0.0072-0.05625 0.02256-0.10015l0.0169-0.03803 0.02133-0.02667 0.02454-0.0126q0.0141-4e-4 0.04468-0.0119 0.00985-0.0044 0.01349-0.01164l0.00219-0.00946-0.00158-0.0113q-3e-3 -0.01055-0.01252-0.02776-0.05223-0.07314-0.06703-0.10358-0.0217-0.04492-0.0334-0.09696-0.0117-0.0512-0.0144-0.10415-0.00205-0.05275 0.0047-0.09961l0.0092-0.04498q0.011-0.04206 0.032-0.07062 0.014-0.02684 0.06216-0.03961 0.06134-0.01428 0.18434 0.07297m-0.6628 7.6587 0.01325 0.01164q0.04185 0.036 0.08385 0.09566 0.04805 0.07374 0.06776 0.11484 0.03204 0.0595 0.04314 0.09537 0.0097 0.03613-0.0018 0.05923-0.00625 0.01956-0.05837 0.0643-0.01353 0.0081-0.03193 0.0123-0.0479 9e-3 -0.06145 0.00485-0.1153-0.00515-0.24375-0.08985-0.0239-0.01946-0.03683-0.0443-0.00611-0.0116-0.01077-0.02765-0.00333-0.00585-0.00797-0.05015-0.00373-0.0716 0.00232-0.11776l0.00785-0.04574q0.0103-0.0431 0.0264-0.07175 0.07354-0.11475 0.2083-0.01099m-1.9039-1.5349 0.01517 0.01255q0.06296 0.05654 0.1113 0.14565 0.0124 0.02275 0.0221 0.04572l0.00945 0.02383q0.02025 0.0533 0.0329 0.10825 0.01209 0.05485 0.01691 0.10675l0.00317 0.0492q4.3e-4 0.0453-0.00506 0.08086-0.00611 0.03559-0.01892 0.05298l-0.01445 0.01282-0.0172 0.00144-0.02084-0.0118q-0.00312-1.4e-4 -0.04276-0.0455-0.0173-0.02214-0.037-0.0482-0.0399-0.05475-0.083-0.1237-0.0262-0.0404-0.1129-0.19546-0.04313-0.0777-0.0543-0.12484-0.0118-0.0486 0.00275-0.081 0.01975-0.039 0.0415-0.05154 0.06311-0.03026 0.15118 0.04199m2.3482 2.173 0.01956 0.01644q0.00845 0.00586 0.0656 0.06866 0.04716 0.0552 0.10576 0.135 0.05894 0.0807 0.13049 0.18837l0.0777 0.11983 0.06135 0.1034 0.0457 0.0889 0.0299 0.07166 0.0143 0.05484-0.00117 0.0376-0.01648 0.0214-0.03195 0.00274-0.0464-0.01644-0.06215-0.03276-0.07695-0.05109q-0.08015-0.05885-0.21315-0.1748-0.08545-0.07581-0.14645-0.13879l-0.05625-0.06189-0.04415-0.05677-0.034-0.0557-0.0237-0.05056-0.0135-0.04944-0.00385-0.0471q9.5e-4 -0.049 0.01975-0.0956 0.039-0.08545 0.05685-0.0963 0.00495-0.0092 0.03961-0.0224 0.0141-0.0024 0.03054 9e-4 0.0321 0.0076 0.07304 0.0399m-2.7792-2.2577 0.01504 0.01346q0.01536 0.01554 0.03025 0.03668 0.00815 0.00776 0.04285 0.07076 0.0413 0.08226 0.06494 0.179 0.05116 0.218-0.00584 0.255-0.0204 0.0137-0.05544 0.00775l-0.03906-0.00935q-0.0429-0.01353-0.1025-0.0445-0.13676-0.067-0.283-0.1936-0.13116-0.1166-0.2006-0.227-0.02193-0.0365-0.0342-0.0677l-0.0097-0.0305q-0.00696-0.02934-2e-3 -0.05204l0.0141-0.01926q0.0816-0.05325 0.2863-0.02475 0.06286 0.0094 0.1214 0.02705l0.0561 0.01964 0.0497 0.02472 0.05166 0.03464m-3.7647-2.8048 0.03175 0.02644q0.99671 0.826 1.3794 1.2288 0.11975 0.1182 0.36565 0.4453 0.28785 0.4039 0.29786 0.4296 0.07004 0.1074 0.10084 0.17327 0.0312 0.06493 0.0236 0.08819l-0.01695 0.01474q-0.02649 0.00473-0.09025-0.0281l-0.0732-0.0417q-0.3704-0.24505-1.1105-0.70495-0.14476-0.09355-0.18652-0.13141-0.07758-0.06254-0.12134-0.13079-0.0078-0.01035-0.04413-0.07941-0.07581-0.17164-0.10367-0.21851-0.04184-0.07753-0.0853-0.14087-0.011-0.02002-0.0596-0.07986-4e-4 -0.0029-0.071-0.06894l-0.0428-0.05016q-0.04516-0.0579-0.0969-0.1365-0.0259-0.03185-0.15346-0.2548-0.04984-0.091-0.09284-0.17976-0.14013-0.3092-0.1138-0.32154 0.0024-0.0527 0.2632 0.16096m10.252 8.3328 0.09294 0.0752q0.4036 0.33915 0.4955 0.4444 0.0901 0.10233 0.0809 0.104 0.0133 0.01164-0.01504 0.0475-0.10076 0.08194-0.33596 0.06466-0.1752-0.02191-0.1998-0.03946l-0.055-0.0242q-0.0735-0.05206-0.10876-0.0672-0.08794-0.0297-0.12824-0.0253-0.02673-0.0196-0.238 0.0827-1.2592-1.2612-1.3822-1.4032-0.27866-0.29994-0.29954-0.33447-0.04931-0.06157-0.02063-0.06171 0.0661-0.03206 0.34284 0.05044 0.29718 0.08836 0.56537 0.2167 0.36696 0.1996 1.2056 0.8699m-3.1579-1.4975 0.01187 0.0117q0.15983 0.16846 0.36403 0.468l0.0523 0.0798q0.04754 0.07477 0.0747 0.1301 0.02703 0.05636 0.0337 0.09304 0.02117 0.10906-0.13264 0.08032-0.08679-0.02226-0.23036-0.15643-0.0688-0.06233-0.1413-0.14063-0.07207-0.07726-0.1408-0.1593l-0.0655-0.08197q-0.06413-0.08368-0.11394-0.15857l-0.04446-0.07096-0.0331-0.06417-0.0213-0.0542-0.00654-0.04353q7.4e-4 -0.0273 0.01484-0.0438 0.0137-0.01746 0.03954-0.0224l0.02776-0.0019q0.06184-3e-4 0.15754 0.0438 0.04666 0.0222 0.09936 0.05465l0.0543 0.03645m-3.9081-3.1648 0.03 0.02615q0.18904 0.1626 0.33125 0.3879 0.07265 0.13985 0.01695 0.1825-0.04026 0.0119-0.0569 0.0021-0.03573-0.0105-0.1836-0.0692-0.0576-0.0234-0.1102-0.04837-0.1056-0.05133-0.19164-0.10553-0.09509-0.06384-0.13409-0.09985-0.05847-0.04681-0.12281-0.12785-0.04339-0.0568-0.10146-0.1648-0.0494-0.09755 0.00173-0.1367 0.07707-0.0672 0.21802-0.02274 0.14085 0.0456 0.30275 0.17639m0.9469 1.302 0.01476 0.01275q0.04164 0.04155 0.05864 0.10725 0.01655 0.07104 0.01106 0.1423-0.01001 0.09023-0.09016 0.0163-0.0061-0.0065-0.019-0.0193l-0.0308-0.03756-0.0267-0.03834-0.02225-0.0394-0.01739-0.03915-0.01266-0.03605-0.0082-0.0341-0.00215-0.0303 0.0025-0.0234 0.00848-0.0177 0.01397-0.01085 0.0209-0.0022q0.0567 0.01475 0.099 0.04975m1.9214 1.5355 0.00843 0.00689q0.04234 0.04365 0.11284 0.19155 0.03803 0.07914 0.063 0.1439 0.01 0.0268 0.0121 0.0409l-0.0014 0.0122-0.0051 0.00727q-8e-3 0.00463-0.0262 3.6e-4 0.0037 0.00387-0.0891-0.03553-0.07786-0.0334-0.1154-0.072-0.0316-0.0321-0.04504-0.07014-0.00666-0.02086-0.00916-0.04163l-0.0012-0.02263q-3e-4 -0.02284 0.0037-0.048 0.0145-0.0824 0.0413-0.1127 0.0129-0.0146 0.0274-0.0124l0.00754 2e-3q0.00766 0.00214 0.01629 0.00996m1.2047 1.627 0.03336 0.0291q0.1201 0.1042 0.224 0.26714 0.08554 0.12591 0.19943 0.33062 0.0531 0.09754 0.06477 0.14868 0.0126 0.11916-0.1102 0.1258-0.0581 0.00403-0.13304-0.03194-0.05266-0.02873-0.11766-0.0844l-0.0819-0.07025q-0.0892-0.08069-0.1942-0.18325-0.2158-0.21146-0.41623-0.432-0.0968-0.1064-0.17107-0.196l-0.0645-0.081q-0.05777-0.07424-0.0729-0.11135l-0.0173-0.05025q-0.0411-0.1849 0.1991-0.0829 0.1111 0.0465 0.3111 0.1802 0.2292 0.145 0.34724 0.2418m-4.169-3.4125 0.05389 0.04565q0.18997 0.16845 0.26347 0.25055 0.101 0.10657 0.18044 0.2087 0.03966 0.05094 0.07166 0.0988 0.0549 0.08074 0.07995 0.13604l0.01665 0.04856q0.0094 0.0426-0.0111 0.05996-0.02123 0.01914-0.07183 0.01024l-0.05744-0.0149q-0.06567-0.0199-0.16013-0.06675-0.2127-0.1098-0.4419-0.25085-0.14876-0.0937-0.23146-0.16767-0.14074-0.11603-0.26334-0.35613-0.03226-0.06574-0.0453-0.11604-0.01375-0.05036-8e-3 -0.08496l0.01024-0.03076q0.05196-0.07757 0.24426-0.01274 0.1513 0.0626 0.36994 0.2423m2.8436 3.7031 0.02454 0.0204q0.07642 0.07 0.13056 0.15174 0.01696 0.02486 0.02886 0.04962l0.0091 0.02194 0.00574 0.0208 0.0013 0.01885q-0.00423 0.05275-0.0634 0.03675l-0.0193-0.0051q-0.0207-0.0082-0.04366-0.0211-0.02294-0.01385-0.047-0.03155-0.03084-0.02325-0.034-0.02705-0.06044-0.05083-0.11011-0.1295-0.03893-0.06995-0.03783-0.1263 2e-4 -0.0254 0.0121-0.0384l0.00694-0.0054q0.00836-0.0034 0.01922-0.00215 0.04644 0.00708 0.11694 0.06645m-1.7768-1.4974 0.02796 0.02324 0.02527 0.02446q0.02454 0.0243 0.04334 0.0464 0.03753 0.04645 0.05533 0.0902 0.0178 0.04273 0.0171 0.0853-0.00114 0.0422-0.02025 0.0549-0.03759 0.02625-0.15415-0.07116-0.1162-0.09857-0.1511-0.18439-0.01787-0.0437-0.0171-0.08625 0.00125-0.04125 0.01974-0.055 0.03729-0.0261 0.15386 0.0723m-1.4518-1.3457 0.01254 0.01062q0.03192 0.02728 0.09662 0.09039 0.38394 0.40455 0.64164 0.65865 0.10055 0.1027 0.1616 0.18 0.0909 0.1156 0.1043 0.1901 0.0158 0.09015-0.0094 0.1899-0.0365 0.10936-0.2867-0.00417-0.0965-0.03308-0.62127-0.32867-0.23858-0.13216-0.33833-0.2168-0.1176-0.09666-0.13567-0.21863-0.01696-0.08337-0.02843-0.27307l-2e-4 -0.10536q0.0028-0.09703 0.02143-0.16234 0.07562-0.2633 0.38187-0.01062m4.7401 3.9361 0.02666 0.02252q0.1236 0.10714 0.2728 0.35624 0.09635 0.1506 0.11796 0.2699 0.0213 0.13424 0.00954 0.3243-0.0131 0.20294-0.0321 0.26276-0.0119 0.05224-0.0321 0.06854-0.0103 0.00915-0.0839-0.0503-0.1699-0.14337-0.6279-0.6565-0.37874-0.4279-0.5712-0.66137-0.0933-0.11578-0.087-0.11077-0.0115-0.01536-0.01675-0.0431-0.02535-0.1134-0.04655-0.32696-0.0081-0.08026 0.057-0.0671 0.089 0.0177 0.5139 0.27846 0.36646 0.22324 0.49964 0.33338m-1.5052-0.21354 0.0427 0.038q0.0173 0.01276 0.1534 0.14954 0.1155 0.11816 0.2435 0.26391 0.1285 0.14595 0.24765 0.29705 0.06835 0.08876 0.10919 0.1493 0.04006 0.0623 0.05366 0.09845l0.0084 0.02955-4e-3 0.0167-0.0167 0.0051-0.0277-0.0073-0.03814-0.02-0.0487-0.03326-0.05886-0.0423q-0.08067-0.06544-0.1121-0.09354-0.0543-0.0468-0.176-0.1634l-0.18576-0.17946-0.08664-0.08814-0.07315-0.0792-0.06085-0.06954-0.0489-0.06256-0.03606-0.05396-0.02557-0.04974-0.01392-0.0408-0.00391-0.03775q0.00141-0.03485 0.02271-0.06245l0.02551-0.0256q0.00897-0.0046 0.01364-0.00265 0.0185 7.5e-4 0.0966 0.06405m-1.9516-1.6358 0.03565 0.03113q0.1425 0.12934 0.20013 0.25524 0.02647 0.0609 0.0249 0.11555 7e-5 0.05275-0.04503 0.04675-0.02375-0.00354-0.0633-0.0226l-0.0445-0.02366q-0.0488-0.02884-0.1186-0.07584-0.2643-0.1772-0.4406-0.3245l-0.0841-0.073-0.0653-0.06597-0.0477-0.05593-0.0278-0.047-0.0097-0.0332 0.00944-0.0233 0.02836-0.0096 0.0478 0.00234 0.06715 0.01612 0.08615 0.03154 0.10574 0.0473q0.1507 0.0722 0.20076 0.10555 0.07464 0.04742 0.14055 0.10308m3.8176 4.0152 0.0324 0.49927q0.0192 0.26697 7e-4 0.4688-0.0113 0.057-0.0178 0.0495-0.00606 0.0036-0.04446-0.0286l-0.07537-0.07094q-0.09241-0.09126-0.2276-0.23712-0.28247-0.30664-0.59417-0.67164-0.3513-0.41784-0.3779-0.46-0.0783-0.09456-0.1716-0.2451-0.0302-0.0412-0.06874-0.0838-0.05023-0.056-0.14203-0.1293-0.0437-0.03437-0.06783-0.05005-0.07084-0.0423-0.11545-0.07489-0.026-0.0166-0.07865-0.05976-0.04904-0.037-0.1355-0.13086-0.14126-0.16504-0.15615-0.32834-0.00555-0.2988 0.20295-0.1646 0.0322 0.0225 0.0707 0.06027 0.01895 0.01837 0.0394 0.03979 0.08465 0.10138 0.1075 0.12074 0.0122 0.01537 0.1633 0.1601 0.31934 0.29545 0.5477 0.48564 0.4906 0.41036 0.711 0.57581 0.0144 0.02038 0.3976 0.27508m-5.4163-4.6025 0.0042 0.00305q0.2523 0.3018 1.0208 0.99714 0.19204 0.16756 0.3789 0.30746 0.0871 0.06467 0.1503 0.10513 0.13714 0.07247 0.1907 0.11087 0.07205 0.0491 0.1189 0.0956 0.02347 0.01576 0.0918 0.10896 0.02487 0.03854 0.0426 0.07744 0.05105 0.1202 0.0344 0.2599-0.0067 0.0782-0.032 0.0983-0.0421 0.0079-0.0644-0.0105-0.00456 0.0048-0.12694-0.0913-0.22856-0.19187-0.27216-0.2214-0.0724-0.05866-0.1858-0.12965-0.04155-0.03052-0.1127-0.04199-0.05635-0.02136-0.1717-0.07721-0.31916-0.15885-0.4111-0.21039-0.50193-0.26216-0.73875-0.42616-0.06555-0.05925-0.06482-0.1431-0.01033-0.0718 0.02737-0.5548 0.0145-0.1671 0.0376-0.2306 0.01175-0.03255 0.0267-0.04255 0.0044-0.01685 0.0561 0.0158m1.5208 2.3072 0.02656 0.02336q0.02558 0.02517 0.0473 0.0512 0.01254 0.00894 0.05934 0.0817 0.05157 0.0872 0.10705 0.2235 0.1358 0.3609 0.08099 0.3838l-0.01694-6e-4q-0.0212-0.00435-0.054-0.02223-0.068-0.03571-0.17216-0.11603-0.10434-0.07914-0.22889-0.18544-0.09675-0.08293-0.1958-0.1733-0.31375-0.2858-0.51849-0.5194-0.06266-0.07157-0.09802-0.1244l-0.02649-0.047-0.00935-0.0323q1.3e-4 -0.02064 0.0116-0.03157 0.03315-0.04608 0.34534 0.11157 0.53186 0.2743 0.64196 0.37714m2.1199 1.7943h4e-4q0.06465 0.05945 0.307 0.33675 0.27986 0.3158 0.4312 0.5038 0.17703 0.2197 0.25955 0.35007 0.02605 0.04143 0.03665 0.06703l0.00614 0.01915-0.00604 0.02415-0.02594 0.00405q-0.03646-0.00295-0.10446-0.03875-0.1395-0.0737-0.34964-0.2277-0.46851-0.34854-0.72996-0.6217-0.0957-0.10435-0.1017-0.11765-0.0263-0.03475-0.0397-0.06232-0.03154-0.05737 0.0072-0.13727 0.0191-0.0354 0.05153-0.06356 0.01247-0.0214 0.11047-0.0609 0.0829-0.0241 0.1473 0.02485m-1.6738-0.40285 0.0047 0.0039q0.04103 0.01535-0.01585 0.26407-0.02365 0.07943-0.05245 0.10119-0.00334 0.01508-0.0605 1.9e-4 -0.0052 0.0036-0.1051-0.07178-0.2424-0.20471-0.29776-0.23937-0.22634-0.1646-0.53821-0.3609-0.31083-0.19545-0.62983-0.3729-0.156-0.0873-0.29986-0.1612-0.24939-0.12015-0.40649-0.2084-0.06201-0.06226-0.01031-0.5599 0.02036-0.15464 0.06906-0.285 0.03756-0.07625 0.079-0.04506 0.0479 0.02863 0.1163 0.1098 0.0675 0.07642 0.32127 0.41242 0.10633 0.13208 0.23433 0.26834 0.15806 0.17593 0.47996 0.45914 0.33564 0.28086 0.50054 0.3789 0.1625 0.09876 0.18837 0.107 0.26943 0.10846 0.29937 0.1253 0.08506 0.04106 0.12346 0.07426m1.2657 1.0872 0.01166 0.0106q0.01424 0.0118 0.0849 0.1051l0.21729 0.3018q0.01845 0.0298 0.1618 0.1978 0.24872 0.2765 0.56515 0.54923 0.3593 0.30107 0.5422 0.41651 0.1788 0.11366 0.20753 0.12652 0.00527 0.00787 0.24197 0.1134 0.0215 0.01014 0.11075 0.05974 0.14495 0.0842 0.1836 0.13045 0.09905 0.26365 0.16449 0.87659 0.02026 0.27002 0.00876 0.26596 0.0026 0.0659-0.0738-0.01157-0.0804-0.07867-0.1472-0.16143-0.35356-0.4557-0.6143-0.754-0.3931-0.4521-0.48145-0.54685-0.4104-0.44955-0.48278-0.52051-0.15407-0.16247-0.28772-0.29449-0.24671-0.24145-0.25785-0.25515-0.0625-0.06474-0.1008-0.11295-0.0379-0.04731-0.0583-0.08631-0.0167-0.01734-0.035-0.12334-0.01467-0.22-0.00625-0.27345 0.00625-0.04779 0.04535-0.01365m0.46155 1.3428 0.02215 0.0195q0.1078 0.1067 0.1949 0.2016 0.1562 0.16624 0.3325 0.3652 0.2448 0.28676 0.3874 0.49355 0.13007 0.18825 0.07215 0.1734-0.04225-0.00405-0.31781-0.25769-0.26874-0.24606-0.63318-0.60586-0.15346-0.1505-0.24826-0.2501-0.0993-0.10644-0.0942-0.1044-0.03047-0.04513-0.0015-0.0858 9.4e-4 -0.01494 0.0708-0.02714 0.10104-0.00546 0.21505 0.07774m-2.4126-2.0618 0.0269 0.02355q0.1125 0.09724 0.3512 0.3387 0.03046 0.046 0.03126 0.1533l-0.01032 0.0214-0.02804 4e-3 -0.0447-0.0118q-0.05275-0.02024-0.133-0.06785-0.0801-0.04651-0.1824-0.11825l-0.10637-0.0755q-0.11113-0.0823-0.23583-0.182l-0.1265-0.10435-0.13175-0.11105-0.06585-0.06015-0.05536-0.05535-0.04529-0.05116q-0.0415-0.05029-0.06185-0.08744-0.0207-0.03823-0.01927-0.0599l0.00697-0.0169q0.01244-0.0118 0.0497-0.00306 0.0367 0.0094 0.0985 0.04401 0.2572 0.1383 0.443 0.24255 0.04887 0.0289 0.1005 0.0669 0.0925 0.0694 0.1385 0.11035m-3.0939-2.128 0.00644 0.00674q0.02457 0.0326 0.0382 0.0678 0.0259 0.0611 0.06187 0.16557l0.02087 0.06663 0.01726 0.06545 0.01185 0.06145 0.00755 0.05885 0.0033 0.05182-8.4e-4 0.04608-0.00546 0.04035-0.00973 0.0327-0.01374 0.023-0.01788 0.01375-0.02205 0.00315q-0.0302-0.0065-0.0423-0.0191l-0.02195-0.0243-0.02045-0.0325-0.0196-0.0402-0.01775-0.0438q-0.03365-0.09996-0.04605-0.21605l-0.0042-0.0556-4e-4 -0.05455 0.0026-0.0529q0.0087-0.0607 0.0123-0.071 0.0132-0.0684 0.0294-0.0906 0.014-0.0138 0.0177-0.0098 0.00586 2e-4 0.01306 0.00706m8.9467 7.765 0.0079 0.0088q0.00404 7.5e-4 0.021 0.03445 0.00684 0.01515 0.01264 0.03335 0.01756 0.0569 0.02946 0.15054l7e-3 0.0716 0.0027 0.06512-0.0012 0.0622-0.0057 0.05434-0.00907 0.04783-0.01287 0.04083-0.01551 0.03254-0.0188 0.02307-0.0213 0.01353-0.0238 0.00404-0.02539-0.0064-0.02756-0.01964-0.03274-0.03285-0.02759-0.0365-0.02327-0.04105-0.0181-0.04306-0.0129-0.04639-0.00866-0.04748-0.00317-0.04907 0.00238-0.0497 0.00725-0.0479 0.01277-0.0477 0.01813-0.0465 0.02404-0.04374q0.03601-0.0487 0.04206-0.05322 0.0452-0.04484 0.0606-0.04254 0.0216-0.00495 0.0397 0.0115m-5.3122-4.436 0.01001 0.00976q0.03655 0.03124 0.05925 0.12799 0.0253 0.09675 0.0157 0.25092-6.7e-4 0.24097-0.1292 0.18563-0.0041 0.0082-0.1819-0.10226-0.5962-0.41074-0.83697-0.56347-0.08478-0.05907-0.43343-0.25927-0.0703-0.0445-0.3939-0.1958-0.1283-0.0565-0.2587-0.1053-0.3507-0.1194-0.42526-0.1563-0.08784-0.0403-0.1413-0.0953-0.18264-0.2011-0.51464-0.77837-0.16626-0.31848-0.14234-0.43939 0.0047-0.06664 0.04784-0.02774 0.02284 0.02146 0.04194 0.0456 0.08942 0.1192 0.12891 0.16464 0.05695 0.06556 0.07739 0.0852 0.0868 0.08612 0.15619 0.09583 0.04687 0.00598 0.09107-0.01831l0.16815-0.14502q0.04431-0.03354 0.05395-0.02954-9e-4 -0.00367 0.0554 0.077 0.199 0.3023 0.27096 0.3976 0.10968 0.1474 0.23704 0.2883 0.35476 0.38126 0.6396 0.591 0.3583 0.2739 0.6876 0.41606 0.26364 0.09794 0.3048 0.0935 0.2617 0.02354 0.2932 0.03374 0.077 0.01826 0.11864 0.0533m-0.7879 0.49725 0.01786 0.01752q0.0103 0.0069 0.04433 0.05393 0.02601 0.03646 0.03837 0.07925 0.01254 0.0429 0.01174 0.08695l-0.01574 0.042-0.0424 0.0197-0.0653-1e-4 -0.0837-0.0184q-0.19465-0.0564-0.44795-0.20114-0.12285-0.07046-0.2373-0.14906l-0.10791-0.0786-0.09704-0.0807-0.0246-0.0206q-0.1523-0.14455-0.16724-0.2213-0.03346-0.1206 0.09387-0.0944 0.08612 0.0185 0.25842 0.10633l0.74605 0.40363q0.0438 0.02494 0.07854 0.05499m2.9583 2.5813 0.01599 0.01455q0.06946 0.07267 0.14063 0.1603 0.50303 0.6077 0.51543 0.6232l0.11805 0.1455q0.21851 0.2717 0.32035 0.42724 0.1517 0.22571 0.0954 0.29742-0.05356 0.02478-0.2706-0.1867-0.0919-0.08912-0.19855-0.20526-0.10635-0.117-0.21705-0.24915l-0.10955-0.13395q-0.22325-0.27596-0.38281-0.52254-0.16304-0.26156-0.17034-0.3429 5.4e-4 -0.03473 0.08934-0.04996 0.02626-0.0061 0.05371 0.02225m-5.8689-4.9952 0.00754 0.0097q0.04495 0.05955 0.2603 0.5208 0.20536 0.454 0.22624 0.54973-0.13634 0.16761-0.57954 0.42511l-0.14526-0.44944q-0.01664-0.0544-0.02804-0.1037-0.0325-0.1384-0.0258-0.2644 0.01576-0.24624 0.10383-0.45004 0.0567-0.13956 0.11247-0.20849 0.0274-0.0332 0.049-0.03637l0.01926 0.0071m8.9973 7.902 0.0091 0.01065q0.08865 0.1505 0.1881 0.5186 0.0342 0.1358 0.0549 0.25975l0.0166 0.12012q0.01356 0.11623 0.0131 0.21683-9e-4 0.20254-0.0564 0.32815-0.02816 0.06122-0.06955 0.10059-0.06842 0.06476-0.13671 0.1278-0.3498-0.8518-0.37474-0.93158-0.0566-0.14576-0.1277-0.37006-0.0354-0.1178-0.0351-0.1545 0.02453-0.1094 0.218-0.1962 0.1925-0.0876 0.3004-0.03015m-0.93796 0.12205 0.00716 0.00765q0.177 0.2821 0.4021 0.78755 0.09953 0.2316 0.1614 0.4124 0.06386 0.20337 0.0587 0.21173 0.00974 0.07267-0.01626 0.07657-0.03914 0.0253-0.12404 0.0126-0.1113-0.023-0.21617-0.07025-0.05893-0.02899-0.12253-0.1004-0.04806-0.05615-0.11404-0.1521-0.06886-0.10085-0.33346-0.51905l-0.2103-0.32433q-0.1573-0.23621-0.18195-0.26597-0.00592-0.0144-0.06545-0.0735-0.0272-0.0328-0.0294-0.05836-3e-3 -0.05194 0.0799-0.06924 0.1185-0.0126 0.1634-0.00376 0.0676 0.00671 0.1505 0.02406 0.39856 0.09514 0.39044 0.1044m-7.2173-6.3464 0.00174 0.00186q0.2521 0.36796 0.4955 0.77225 0.16804 0.29025 0.1474 0.36405l-0.01226 0.01767q-0.01721 0.01349-0.05548 0.00113-0.10146-0.0434-0.26831-0.0803-0.151-0.0333-0.39245-0.07226-0.11396-0.03164-0.1536-0.07584-0.04336-0.0352-0.1354-0.1668-0.0814-0.11265-0.18665-0.3012-0.06885-0.1319-0.07379-0.16215-0.00756-0.02275-0.00726-0.03791l0.01025-0.04954q0.08471-0.1559 0.32785-0.22804 0.0733-0.02036 0.14096-0.02411l0.06378 0.00171 0.0542 0.01384 0.04352 0.02564m1.6579 2.1841 0.01519 0.0138q0.04085 0.03585 0.05915 0.0901 0.0122 0.0558-0.0258 0.0811l-0.0496 0.0148q-0.0619 0.00555-0.1567-0.0196-0.19765-0.0518-0.4361-0.1764-0.11507-0.0608-0.2184-0.1288l-0.0955-0.0656-0.09707-0.081q-0.05823-0.0532-0.08837-0.10246-0.01691-0.02954-0.01752-0.03528-0.01587-0.04186-0.01367-0.06826 0.00253-0.0263 0.02618-0.0359 0.02325-0.0086 0.06985-9.4e-4l0.0528 0.013q0.1799 0.05414 0.5903 0.26544 0.28314 0.14545 0.38526 0.236m3.7209 3.2998 0.0253 0.02423q0.05454 0.05244 0.13925 0.15084 0.15961 0.18907 0.2652 0.3241 0.42075 0.53184 0.58295 0.7727 0.1652 0.2461 0.17285 0.3506 0.00715 0.06235-0.01318 0.0571-0.02737 0.00213-0.09681-0.0602-0.16491-0.15166-0.43016-0.4851-0.2651-0.3323-0.48506-0.6581-0.10467-0.15726-0.17124-0.278l-0.0525-0.1058q-0.0378-0.0898-0.02174-0.12594 0.0141-0.02976 0.08514 0.03357m-2.5764-1.9495 0.0137 0.01353q0.02724 0.0327 0.04995 0.0919 0.01085 0.02854 0.02002 0.0635l0.00883 0.036q0.0161 0.074 0.0199 0.1644l0.00197 0.05865q7.9e-4 0.05359-0.00251 0.09415-0.00329 0.0412-0.01046 0.06924l-0.0079 0.02336q-0.0095 0.0195-0.0227 0.0266-0.0139 7e-3 -0.0314 0l-0.0189-0.01q-0.02393-0.01756-0.0363-0.03105-0.05184-0.05515-0.07784-0.10015-0.02426-0.04035-0.04056-0.0794l-0.0143-0.04085-0.0097-0.03975-0.0058-0.0398-0.0016-0.0414q0.0046-0.1299 0.0717-0.2438 0.04463-0.06085 0.0939-0.01513m1.3477 1.1761 0.01276 0.01264q0.05298 0.06163 0.10718 0.2402 0.01282 0.0438 0.02546 0.096 5e-3 0.0144 0.0403 0.1838 0.0218 0.1041 0.0151 0.13764l-0.0063 0.01306q-0.0081 0.0103-0.025 0.0106 4e-3 0.0059-0.0862-0.01554-0.0862-0.02416-0.1246-0.07141-0.04585-0.05215-0.0617-0.14945-0.01626-0.0975-0.0077-0.2584 0.0029-0.05156 0.0095-0.08904l0.0065-0.03552q0.0083-0.03264 0.0178-0.05328 0.0309-0.06126 0.0769-0.0213m3.9101 4.0019 0.0168 0.01665q0.03447 0.0376 0.06694 0.09876 0.03826 0.08034 0.04401 0.10108 0.03039 0.09606 0.03305 0.11786 0.00576 0.02075 0.0212 0.12677 0.0335 0.25603 0.02155 0.40193-0.00365 0.04594-0.01225 0.0719l-9e-3 0.0197-0.0121 0.0051-0.01523-0.00693q-0.00837-0.00403-0.04527-0.07752l-0.0316-0.06878q-0.0319-0.07813-0.0636-0.17133l-0.03006-0.09414q-0.02997-0.0968-0.0539-0.189-0.02334-0.0928-0.03668-0.1685l-0.01019-0.06814-0.00312-0.05186 0.00465-0.0346q0.0054-0.0179 0.0126-0.02987 0.039-0.05553 0.1022 9.2e-4m-8.945-7.9749 0.00171 0.00197q0.06254 0.05644 0.10884 0.19335 0.016 0.05041 0.0207 0.09475l-1e-3 0.0433-0.00903 0.045-0.01672 0.04766-0.0224 0.04718-0.02665 0.04541q-0.0295 0.04425-0.06314 0.0791-0.03326 0.03595-0.06482 0.05485l-0.03064 0.014-0.0263 0.0032-0.02204-0.011q-0.03759-0.04054-0.03253-0.19124 0.00197-0.05086 0.00877-0.10616l0.0075-0.0582q0.0089-0.05805 0.02206-0.11994 0.01294-0.06266 0.03414-0.12329 0.0231-0.05767 0.02794-0.05937 0.00421-0.0123 0.03136-0.02364 0.0221-0.00406 0.05225 0.02307m7.0108 7.2689v9e-4q0.02046 0.0185 0.0529 0.0619 0.0614 0.08264 0.09855 0.14215 0.0169 0.02305 0.15539 0.25605l0.01532 0.02764q0.01331 0.02296 0.0138 0.03136l-0.00186 0.0047-0.00724-2e-3 -0.01343-9e-3 -0.01943-0.0128-0.0595-0.05065q-0.0031-0.00285-0.02574-0.02325-0.05573-0.0589-0.112-0.1473-0.0741-0.1171-0.11196-0.22545-0.0157-0.0437-0.0138-0.05875l0.0014-0.00576q0.0024-0.00454 0.00906-0.00164 0.00568 0.0012 0.01854 0.0119m-5.2384-4.7105 0.00514 0.0068q0.01581 0.0259-0.02004 0.0493-0.0385 0.0235-0.0458 0.02146-0.01674 0.00304-0.0368-2.6e-4 -0.0206-0.00237-0.0426-0.00975l-0.0224-0.00905q-0.0226-0.00914-0.04543-0.0221l-0.02252-0.01274q-0.02195-0.01391-0.04195-0.03036-0.03386-0.0283-0.0446-0.0418-0.0081-0.00877-0.0141-0.01744-0.0145-0.02111-0.01544-0.02506-0.00769-0.0171-0.00812-0.03316l0.00586-0.00721 0.0145-0.0014 0.02316 0.0014 0.02934 0.00654q0.0328 0.00833 0.072 0.02193 0.0391 0.01316 0.0788 0.03043 0.082 0.03527 0.131 0.07247m-1.2969-1.6595q0.0485 0.03906 0.2286 0.28265 0.144 0.20441 0.19856 0.3078 0.09464 0.17885 0.09004 0.20875-0.0082 0.0478-0.04774 0.06255-0.0404 0.02271-0.10132 0.03775-0.026 0.01145-0.20221 0.02426-0.17138-0.00386-0.19189-0.01766-0.0542-0.01194-0.08404-0.0364-0.04053-0.0359-0.0802-0.0832-0.02216-0.0203-0.1131-0.15577-0.1091-0.17473-0.1338-0.30993-0.01946-0.13794 0.1259-0.2591 0.092-0.0765 0.1902-0.0915 0.0477-0.0072 0.08655 0.0081l0.03445 0.0217m7.904 7.0938 0.03256 0.0311q0.12354 0.12516 0.23684 0.38914 0.1414 0.346 0.187 0.48936 0.0618 0.17604 0.08825 0.3058 0.0133 0.04364-0.0459 0.0562-0.02925 0.0029-0.06958-0.00304l-0.04257-0.00976q-0.1441-0.037-0.26725-0.13947-0.14001-0.17248-0.35145-0.58713-0.1144-0.22103-0.216-0.44424-0.03966-0.09246-0.0536-0.15026l-0.0072-0.05006q-1e-3 -0.04138 0.0239-0.0578l0.03087-0.0094q0.03803-0.0047 0.10143 0.00952 0.22486 0.05249 0.3527 0.17004m-3.2127-2.6139 0.00784 0.00777q0.12235 0.12219 0.2904 0.32757 0.0435 0.05591 0.0636 0.09046 0.00236 6e-5 0.02683 0.06286 0.21067 0.65494 0.40253 1.4325 0.05518 0.23889-0.0451 0.13994-0.03436-0.0235-0.16716-0.2072-0.07936-0.1107-0.2571-0.3831-0.076-0.1114-0.15155-0.2105-0.07595-0.09933-0.13495-0.166-0.00635-0.0094-0.09643-0.0958-0.04352-0.0428-0.0777-0.0908-0.06842-0.0924-0.10437-0.1999-0.01404-0.0238-0.03626-0.1677-0.00544-0.03215-5e-3 -0.1761 3e-4 -0.0132-0.00784-0.0822-0.0133-0.1051-0.05027-0.18614-0.00268-0.04046 0.00324-0.04696 0.03363-0.08744 0.15933-0.1187 0.1006-0.0123 0.17996 0.07m-1.6784-1.5179 0.0271 0.0253q0.2124 0.2227 0.318 0.6314 0.0122 0.0552 0.0051 0.0764-0.03713 0.0198-0.0469 0.0685-0.0101 0.0345-0.0151 0.0834-0.0063 0.138-0.0128 0.15873l-0.01037 0.03997q-0.01213 0.0366-0.03123 0.05684-0.0384 0.03826-0.10774 0.00626-0.03412-0.01615-0.07706-0.0492-0.08896-0.0762-0.09757-0.0784-0.06298-0.0421-0.14913-0.0842-0.0869-0.04196-0.1788-0.0758l-0.249-0.07865q-0.1131-0.04645-0.1462-0.08425-0.02284-0.0221-0.0304-0.04496l-0.00196-0.05844q0.00996-0.0638 0.05256-0.15195 0.15124-0.29805 0.37066-0.50915 0.06494-0.0594 0.11294-0.0751l0.0405-6.5e-4q0.13025 0.05725 0.2274 0.14395m-3.6024-2.0334 0.0028 2e-3q0.0163 0.01447 0.0423 0.0501l0.0108 0.01734q0.01014 0.01906 0.019 0.0401 0.02764 0.06646 0.0362 0.13849 0.0028 0.02357 0.0021 0.04517l-6e-4 0.02545q-0.0033 0.04525-0.01415 0.06549l-0.00555 0.00926q-0.00605 0.0074-0.0129 0.01015-0.0147 0.00415-0.03135-0.01235-0.02845-0.0262-0.05341-0.0948-0.00804-0.0218-0.01404-0.0475l-0.0061-0.02644q-0.00556-0.02846-0.00903-0.05762-0.00567-0.06804-0.00623-0.11224l6.1e-4 -0.01984q4.9e-4 -0.01786 0.00335-0.0282 0.00733-0.03161 0.0362-0.00456m9.0948 8.2335 0.00925 0.00776q0.0394 0.04074 0.0656 0.10071 0.0128 0.03149 0.01786 0.05793 0.00224 0.01336 0.00177 0.0283l-5.3e-4 0.01527q-0.0034 0.03283-0.01534 0.06457-0.00183 0.0091-0.02209 0.04156-0.03857 0.04615-0.05107 0.0524-0.0162 0.0098-0.0297-0.00173-0.0258-0.02147-0.0764-0.19357-0.0132-0.05137-0.01776-0.09556-0.00234-0.02184-0.00207-0.04144l3.6e-4 -0.01697q0.00197-0.01693 0.00597-0.02728l0.0047-0.01019q0.0118-0.01566 0.0293-0.01806 0.03663-0.0027 0.08015 0.0363m-2.453-2.3002 0.0142 0.0147q0.0603 0.072 0.11524 0.1585l0.36212 0.5661q0.07944 0.1199 0.15724 0.23223 0.19194 0.26734 0.2287 0.30792 0.0752 0.09435 0.14934 0.1803 0.0741 0.08521 0.14673 0.15961l0.07273 0.07288q0.077 0.0747 0.1358 0.12436 0.09506 0.08193 0.1896 0.14566 0.0789 0.05404 0.09485 0.06204l0.16321 0.0962q0.07644 0.05104 0.09904 0.0704 0.0981 0.0783 0.1399 0.17l0.0595 0.1533q0.03396 0.10846 0.0231 0.1645-0.0218 0.11235-0.20783 0.0243-0.09223-0.04415-0.22187-0.1364l-0.1382-0.1058q-0.30143-0.24214-0.7082-0.64186-0.19516-0.19769-0.3313-0.42384-0.1745-0.2724-0.3839-0.70415-0.18547-0.39691-0.22593-0.59485-0.01313-0.0559 0.00503-0.0875 0.02506-0.0454 0.0609-0.0086m-4.3705-3.9492 0.00794 0.00774q0.13466 0.1648-0.0213 0.2971-0.07947 0.0578-0.20924 0.0796-0.16576 0.015-0.20654 0.0035l-0.05506-0.0091q-0.056-0.01294-0.1187-0.0383-0.1261-0.05075-0.26905-0.1443-0.20605-0.1329-0.45625-0.3736-0.38414-0.382-0.61613-0.7934-0.02957-0.05476-0.04157-0.09455-0.01556-0.02485-0.00256-0.09985 0.06146-0.10755 0.11712-0.0927 0.04644 0.01353 0.08694 0.0571 0.0341 0.03205 0.1454 0.1745l0.06704 0.07453q0.11432 0.12391 0.26236 0.26357 0.4106 0.38084 0.5105 0.43456 0.10385 0.06604 0.2095 0.09734l0.11695 0.02784q0.27455 0.04272 0.33575 0.06329 0.09467 0.02612 0.1369 0.06513m-2.1207-0.5625 0.01166 0.01254q0.03326 0.0367 0.1296 0.2052 0.28793 0.5063 0.3676 0.65665 0.15886 0.28975 0.1862 0.41375 0.01154 0.04645 0.01465 0.09186 0.00531 0.11964-3e-4 0.15244-0.01015 0.0986-0.04572 0.13534-0.07503 0.0694-0.21313-0.07684-0.0662-0.07153-0.13886-0.1866-0.09009-0.15416-0.10824-0.1961-0.1105-0.21777-0.20084-0.51604-0.08426-0.30276-0.08756-0.51642-9.4e-4 -0.06814 0.00943-0.11204l0.01331-0.0373q0.03916-0.05916 0.0622-0.02644m8.7578 7.9923 0.0085 0.01053q0.0638 0.1168 0.03195 0.4397-0.03918 0.2184-0.15625 0.3121-0.1165 0.0945-0.263 0.06494-0.1468-0.03058-0.2714-0.17908-0.12545-0.16101-0.1839-0.37906-0.0267-0.08945-0.03304-0.1555l-0.00126-0.0623q0.0043-0.0545 0.0304-0.08936 0.0259-0.03514 0.0762-0.05254l0.0571-0.0134q0.0622-0.00956 0.1515-0.0023 0.327 0.0291 0.5532 0.10627z"/> <path d="m559.56 961.59-0.0143-0.01286-0.01514-0.01428q-0.01616-0.01361-0.03241-0.02753-0.04278-0.03303-0.05225-0.039l-0.0188-0.01288q-0.01824-0.01255-0.0372-0.02355-0.0492-0.0278-0.05385-0.0281 0.31455 0.301 0.30045 0.2884 0.0184-0.0099-0.0045-0.0445-0.02197-0.03636-0.072-0.0857z"/> <path d="m556.98 959.09-0.00986-0.0097-0.00826-0.00604-0.00674-0.00396-0.0053-0.00104q-0.0042 0-0.00554 0.00534l-1.6e-4 0.0058q1e-4 0.00754 0.00425 0.02005-4.5e-4 0.00175 0.01825 0.04835 0.0901 0.0863 0.2316 0.2234l0.0012 8.3e-4q-0.05495-0.08166-0.1385-0.18953-0.0496-0.0635-0.08094-0.0935z"/> </g> <g fill="#100900"> <path d="m751.81 940.1q2.1167 2.2254 3.3125 6.0728 1.2298 3.7665 0.48529 6.2371-0.534 2.0222-3.2124 5.2215-5.3562 6.2495-8.0295 8.4379l-17.233-11.565q-2.2187-3.693-1.24-5.2118 0.1897-0.3916 0.5752-0.92352l1.8917-2.4666q3.1494-4.5547 3.9168-5.4153 1.7555-2.1596 3.3234-3.0662 2.8808-1.8575 8.9242-0.7997 4.8619 0.7629 7.2844 3.4765z"/> </g> <g fill="#ffc1a1"> <path d="m744.02 942.2 3.1621 4.195q0.5324 0.6719 2.9064 2.6323l0.6348 0.69313q0.73405 0.92796 0.9769 2.4384 0.3744 2.3079-1.1517 4.788-1.0058 1.7972-5.9687 6.6284-0.08864 0.10276 0.21166-0.0297 1.7534-0.99425 2.174-1.1348 0.532-0.22791 0.8657-0.1416 0.7754 0.34381-0.2974 2.3452-1.0593 1.7012-2.7032 2.6277-0.56326 0.2972-1.0209 0.35255-0.2189 0.06795-1.4283-0.03295-0.29276 0.02105-0.46996 0.1098 0.09844-0.1761-2.0261 1.4048l-1.2658 0.74595q-0.64379 0.34265-1.1744 0.55182-0.27074 0.1333-1.3623 0.38318l-0.46416 0.24215q-0.75159 0.3896-3.411 4.7553l-6.8762 4.9314q-1.8197-1.4168-2.5916-2.3037-1.7966-1.9049-2.3078-5.1712-0.6297-3.9752-0.25343-9.9532 0.21205-2.5043 0.66273-3.3574 0.19557-0.5521 1.3074-1.3586 0.1033 0.00196 0.52876-1.5986 0.0968-0.27626 0.24938-0.53026 0.12096-0.2864 1.297-1.3505 0.22576-0.26137 0.26782-0.43512 0.08381-0.2121-0.07496-0.59681l-0.85753-1.5333q-0.12137-0.30046-0.07747-0.7825 0.0653-0.49617 0.32814-1.1231 1.3481-3.3041 1.5622-3.5321 0.5932-1.0462 1.3422-1.2978 0.9947-0.30543 1.4613 0.34135 0.21204 0.34699 0.08216 1.0869 0.00311 0.28433-0.89456 2.8932-0.1142 0.4572 0.0355 0.347 0.2041-0.13 0.7185-0.8158 3.8228-5.4722 4.6191-6.2332 1.6084-1.8288 3.2195-2.6242 4.7705-2.0046 8.041 1.4167z"/> </g> <g fill="#a7c5f8"> <path d="m721 959.61 2.2889 16.177 8.7751-0.1271q1.0964-1.8498 1.223-1.5823 0.2944-0.05578-1.0521 5.119l-20.468 37.714-25.533 34.79q-26.001 0.9334-18.661-18.075 3.8897-10.487 19.138-31.589 8.3148-11.616 27.877-36.601l3.7637-4.5416 2.5904-1.2564z"/> </g> <g> <path d="m686.27 1048.4-10.475-5.6242-5.5947-6.5503q-5.1913 5.9652-12.602 14.67l16.938 15.376 2.7831-4.6704 3.6743-5.0729q3.6638-5.7599 5.276-8.1283z"/> <path d="m722.47 975.77 1.488 1.922 0.33539 5.3814-2.6908 0.43396q-0.0869 3.7201-6.3202 14.236-3.377 5.7708-10.269 16.639-15.24 23.864-16.523 25.622l-9.0623 0.6751-1.1876-8.9778 39.03-49.854-0.21157-5.3994 5.3995-0.67747z"/> </g> <g fill="#fff"> <path d="m719.42 959.91-0.12556 0.0452-5.4062 1.8968q-10.879-5.3774-16.743-4.7835-6.0879 0.81873-10.431 4.2944-15.975 12.979-23.64 38.931-6.1273 5.6856-10.287 9.3319-18.436 15.734-20.869 17.992l27.818 25.252 27.664-28.32 11.92 7.9847 8.5312-13.762-8.9414-6.1928 10.838-18.213q3.745-6.867 5.2271-10.819 2.2618-5.6198 4.4448-23.637z"/> <path d="m732.74 977.22-0.11546 0.1366-16.781 20.048-43.811 66.615 6.7358 6.1149q5.7446-9.134 23.345-38.903l8.9156 8.277q2.1861 1.7131 2.919 1.7182 2.4094 0.3399 3.8252-0.5971 2.312-1.3968 5.2274-4.972 12.022-16.734 16.588-32.592 0.86816-5.9169 0.1918-7.6401-0.3909-1.5703-1.2747-3.1887-3.8076-5.2446-4.3265-7.0274-0.9326-2.5125-1.4384-7.9895z"/> </g> <g> <path d="m716.72 996.04 19.853 29.802q0.23964 0.2978 0.07349 0.2345l-35.708 11.155-3.6518-7.1399 3.7624 0.3116 1.212 0.3701 5.0068-12.765-17.42-11.147 26.846-10.811z"/> </g> <g fill="#ffc1a1"> <path d="m723.12 1020.6q0.7081 0.66431 0.6796 1.6885-0.0827 1.134-0.80825 1.6693-0.29225 0.2037-0.81455 0.2611-2.9944-0.0686-4.6033 0.3177-1.9183 0.4285-1.8303 0.9658 0.0709 0.3478 1.2344 0.8168l1.3277 0.4782q4.268 1.3142 4.6109 1.4817 1.4619 0.5368 2.2434 1.0564 1.8606 1.3183 0.02816 2.4418-0.64926 0.3621-1.6959 0.6136-0.24628 0.0953-3.9405 0.7873l-1.2242 0.3135q-0.59227 0.1948-0.98477 0.4625-0.18534 0.0901-0.9849 0.8764-0.22784 0.179-0.432 0.2669-0.7182 0.3052-1.7346 0.2593-2.9165 0.0934-9.2958-4.4396l3.291-10.408q2.0874-0.49716 2.903-0.5322 0.3165-0.0205 0.63327 0.0254l1.0878 0.22985q0.3183 0.02991 0.62936-0.00535l3.4012-0.6774q1.0506-0.1644 1.9673-0.156 2.9718 0.0647 4.3025 1.1989z"/> </g> <g fill="#a7c5f8"> <path d="m710.82 1019.2-5.3792 12.527-4.289-1.2758-0.0174-0.0052 5.9732-12.398 3.7029 1.1482z"/> </g> <g fill="#f00" fill-opacity=".098039"> <path d="m735.73 971-11.742 2.298-1.5622-13.037q0.62641 4.5176 1.3455 6.4442 0.81171 2.2718 2.1442 3.3422 2.6991 2.1888 9.7926 0.9571z"/> </g> <g fill-opacity=".094118"> <path d="m688.34 977.62-5.0572 19.833 3.0951 7.7218-6.3808-7.1233 8.3399-20.427z"/> </g> <g fill-opacity=".078431"> <path d="m686.27 1024.9-27.225-17.015q0.6094-2.791 1.0879-4.9021l-0.00124-9.6e-4q1.413-1.2981 2.9508-2.7256 0.0446-0.15222 0.0895-0.30395l5.5e-4 0.00134q0.0138 2.1576-0.01425 5.9016l23.112 19.044z"/> </g> <g fill="#f00"> <path d="m602.21 999.66c-10.349 1.2883-21.554 5.6161-29.921 11.487-9.9238 6.9963-18.408 16.849-24.482 28.537l-1.7494 3.306-1.8809-3.1221c-13.416-22.626-33.38-35.172-58.726-36.951-15.26-1.1022-31.62 2.1438-44.259 8.7123-21.443 11.147-34.995 31.914-38.653 59.113-0.65108 4.9302-0.30678 18.439 0.59922 23.453 3.3569 18.316 10.84 35.066 24.289 54.211 22.127 31.513 57.188 64.437 117.96 110.85l6.3092 4.8128 7.0374-5.6208c71.708-57.368 115.33-109.46 128.83-153.94 4.0711-13.441 5.5291-26.969 4.1438-38.65-3.6374-30.464-22.559-53.261-51.793-62.464-11.875-3.7068-26.428-5.1698-37.707-3.732zm-30.919 85.739 0.57474 22.522 22.52-0.5732 22.521-0.5758 0.6097 23.918 0.6095 23.918-22.365 0.5738-22.366 0.5685 0.57538 22.52 0.57217 22.522-24.073 0.6126-24.074 0.6123-0.5741-22.522-0.57405-22.519-22.521 0.5758-22.521 0.5736-0.61057-23.919-0.60864-23.919 22.365-0.5661 22.367-0.5738-0.57405-22.521-0.57458-22.522 24.073-0.6144 24.075-0.6125 0.57342 22.52z"/> </g> <g fill="#fff"> <path d="m546.63 1063-24.072 0.6156c-0.2858 0.0061-0.51175 0.2444-0.5046 0.5319l0.5735 22.52 0.5608 22.004-21.848 0.5593-22.365 0.5683c-0.13744 0.0013-0.2677 0.0604-0.36184 0.1602-0.09473 0.1001-0.14573 0.2331-0.14292 0.3681l0.61078 23.919 0.60846 23.919c0.00824 0.2865 0.24578 0.5113 0.53148 0.5041l22.521-0.5722 22.003-0.5622 0.56124 22.002 0.57422 22.521c0.00664 0.2862 0.24408 0.5102 0.53094 0.504l48.148-1.225c0.2853-0.0068 0.5119-0.2429 0.5036-0.5314l-0.5721-22.522-0.56296-22.004 21.85-0.5539 22.364-0.5739c0.28514-0.0093 0.51124-0.245 0.50421-0.5303l-0.60957-23.918-0.6094-23.911c-0.0078-0.2863-0.2447-0.5123-0.53103-0.5052l-44.524 1.129-0.562-22.005-0.5729-22.522c-0.0071-0.2851-0.2447-0.5092-0.53153-0.503l-24.075 0.6125z"/> </g> </g> </svg>