<?xml version='1.0' encoding='utf-8'?>
<svg xmlns="http://www.w3.org/2000/svg" version="1.1" width="1279px" height="960px" viewBox="-113 593 1279 960"> <g id="layer1"> <g style="fill:rgb(85,185,249); fill-opacity:1.0; stroke-linejoin: miter"> <path d="M-113.001,592.4093C-113.1574,592.4093,-113.307396,592.47144,-113.417984,592.58203C-113.52857,592.6926,-113.590706,592.84265,-113.590706,592.999L-113.58971,1553.0C-113.58971,1553.3257,-113.32568,1553.5897,-113.0,1553.5897L1166.001,1553.5907C1166.1573,1553.5907,1166.3074,1553.5286,1166.418,1553.418C1166.5286,1553.3074,1166.5907,1553.1573,1166.5907,1553.001L1166.5897,593.0C1166.5897,592.6743,1166.3257,592.4103,1166.0,592.4103L-113.001,592.4093 Z"/> </g> <g style="fill:rgb(0,0,0); fill-opacity:0.6156863; stroke-linejoin: miter"> <path d="M757.9137,1422.9418L756.0583,1424.9991Q742.71814,1431.3552,677.527,1436.1895Q611.8839,1441.0284,522.82764,1441.9292Q437.8295,1442.4818,386.7948,1438.6976Q370.44238,1437.4714,359.8417,1435.8705L350.926,1434.1891Q343.57187,1432.4208,343.45255,1430.3569Q345.5615,1423.9808,403.96054,1418.7267Q462.35938,1413.4723,550.4163,1411.7366Q638.479,1410.3212,697.0287,1413.4828Q755.5783,1416.6447,757.9137,1422.9418"/> </g> <g style="fill:rgb(0,0,0); fill-opacity:1.0; stroke-linejoin: miter"> <path d="M529.94403,788.2996L541.888,788.08636L553.8323,787.8731L563.38934,1321.9994Q551.44495,1322.2133,539.50104,1322.4274Q534.7225,1055.3636,529.94403,788.2996"/> </g> <g style="fill:rgb(255,56,0); fill-opacity:1.0; stroke-linejoin: miter"> <path d="M540.35504,731.4275C423.96426,733.5099,329.37604,823.5143,316.04572,935.4564C328.92874,931.3602,356.8721,920.15344,372.4998,919.874C414.43057,919.12354,446.72247,940.4915,459.0295,961.8879L459.0721,961.9019L459.08615,961.8592C470.62015,940.0656,503.53827,917.9744,545.4544,917.2244C587.385,916.47406,619.6544,937.399,631.9755,958.76587L632.0635,958.8362L632.11975,958.77783C632.11975,958.77783,674.31036,914.9342,716.22656,914.1842C734.15826,913.8633,759.0802,922.5929,773.4079,927.30493C756.8838,815.0217,657.41797,729.3334,540.35504,731.4275 Z"/> </g> <g style="fill:rgb(255,255,255); fill-opacity:1.0; stroke-linejoin: miter"> <path d="M544.32245,731.5431L543.76447,731.5383C486.9719,764.94995,457.1485,836.7463,459.1019,961.9145L459.11588,961.87164C470.64975,940.07794,503.5678,917.9871,545.484,917.2371C587.4147,916.4869,619.69885,937.4112,632.0201,958.77783C629.53723,833.6469,602.5403,765.8024,544.32245,731.5431 Z"/> </g> <g style="fill:rgb(255,255,255); fill-opacity:1.0; stroke-linejoin: miter"> <path d="M372.00842,1124.6597L372.00842,1124.6602L372.00842,1124.6599L371.56982,1124.6571L371.56982,1124.6566L372.00842,1124.6602L372.00842,1124.6599L371.56982,1124.6571L371.56982,1124.6566L372.00842,1124.6602 M371.56982,1124.6566C371.57068,1124.5354,371.66956,1124.4381,371.79065,1124.439C371.9118,1124.4398,372.00928,1124.5385,372.00842,1124.6597L372.00842,1124.6602L372.00842,1124.6599C372.00757,1124.7809,371.9087,1124.8785,371.78754,1124.8777C371.66644,1124.8768,371.56897,1124.7778,371.56982,1124.6569L371.56982,1124.6571L371.56982,1124.6566C371.57068,1124.5354,371.66956,1124.4381,371.79065,1124.439C371.9118,1124.4398,372.00928,1124.5385,372.00842,1124.6597L372.00842,1124.6602L372.00842,1124.6599C372.00757,1124.7809,371.9087,1124.8785,371.78754,1124.8777C371.66644,1124.8768,371.56897,1124.7778,371.56982,1124.6569L371.56982,1124.6571L371.56982,1124.6566 Z"/> </g> <g style="fill:rgb(255,255,255); fill-opacity:1.0; stroke-linejoin: miter"> <path d="M372.00842,1124.6597L372.00842,1124.6602L372.00842,1124.6599L371.56982,1124.6571L371.56982,1124.6566L372.00842,1124.6602L372.00842,1124.6599L371.56982,1124.6571L371.56982,1124.6566L372.00842,1124.6602 M371.56982,1124.6566C371.57068,1124.5354,371.66956,1124.4381,371.79065,1124.439C371.9118,1124.4398,372.00928,1124.5385,372.00842,1124.6597L372.00842,1124.6602L372.00842,1124.6599C372.00757,1124.7809,371.9087,1124.8785,371.78754,1124.8777C371.66644,1124.8768,371.56897,1124.7778,371.56982,1124.6569L371.56982,1124.6571L371.56982,1124.6566C371.57068,1124.5354,371.66956,1124.4381,371.79065,1124.439C371.9118,1124.4398,372.00928,1124.5385,372.00842,1124.6597L372.00842,1124.6602L372.00842,1124.6599C372.00757,1124.7809,371.9087,1124.8785,371.78754,1124.8777C371.66644,1124.8768,371.56897,1124.7778,371.56982,1124.6569L371.56982,1124.6571L371.56982,1124.6566 Z"/> </g> <g style="fill:rgb(255,255,255); fill-opacity:1.0; stroke-linejoin: miter"> <path d="M372.00842,1124.6597L372.00842,1124.6602L372.00842,1124.6599L371.56982,1124.6571L371.56982,1124.6566L372.00842,1124.6602L372.00842,1124.6599L371.56982,1124.6571L371.56982,1124.6566L372.00842,1124.6602 M371.56982,1124.6566C371.57068,1124.5354,371.66956,1124.4381,371.79065,1124.439C371.9118,1124.4398,372.00928,1124.5385,372.00842,1124.6597L372.00842,1124.6602L372.00842,1124.6599C372.00757,1124.7809,371.9087,1124.8785,371.78754,1124.8777C371.66644,1124.8768,371.56897,1124.7778,371.56982,1124.6569L371.56982,1124.6571L371.56982,1124.6566C371.57068,1124.5354,371.66956,1124.4381,371.79065,1124.439C371.9118,1124.4398,372.00928,1124.5385,372.00842,1124.6597L372.00842,1124.6602L372.00842,1124.6599C372.00757,1124.7809,371.9087,1124.8785,371.78754,1124.8777C371.66644,1124.8768,371.56897,1124.7778,371.56982,1124.6569L371.56982,1124.6571L371.56982,1124.6566 Z"/> </g> <g style="fill:rgb(255,255,255); fill-opacity:1.0; stroke-linejoin: miter"> <path d="M372.00842,1124.6597L372.00842,1124.6602L372.00842,1124.6599L371.56982,1124.6571L371.56982,1124.6566L372.00842,1124.6602L372.00842,1124.6599L371.56982,1124.6571L371.56982,1124.6566L372.00842,1124.6602 M371.56982,1124.6566C371.57068,1124.5354,371.66956,1124.4381,371.79065,1124.439C371.9118,1124.4398,372.00928,1124.5385,372.00842,1124.6597L372.00842,1124.6602L372.00842,1124.6599C372.00757,1124.7809,371.9087,1124.8785,371.78754,1124.8777C371.66644,1124.8768,371.56897,1124.7778,371.56982,1124.6569L371.56982,1124.6571L371.56982,1124.6566C371.57068,1124.5354,371.66956,1124.4381,371.79065,1124.439C371.9118,1124.4398,372.00928,1124.5385,372.00842,1124.6597L372.00842,1124.6602L372.00842,1124.6599C372.00757,1124.7809,371.9087,1124.8785,371.78754,1124.8777C371.66644,1124.8768,371.56897,1124.7778,371.56982,1124.6569L371.56982,1124.6571L371.56982,1124.6566 Z"/> </g> <g style="fill:rgb(255,255,255); fill-opacity:1.0; stroke-linejoin: miter"> <path d="M372.00842,1124.6597L372.00842,1124.6602L372.00842,1124.6599L371.56982,1124.6571L371.56982,1124.6566L372.00842,1124.6602L372.00842,1124.6599L371.56982,1124.6571L371.56982,1124.6566L372.00842,1124.6602 M371.56982,1124.6566C371.57068,1124.5354,371.66956,1124.4381,371.79065,1124.439C371.9118,1124.4398,372.00928,1124.5385,372.00842,1124.6597L372.00842,1124.6602L372.00842,1124.6599C372.00757,1124.7809,371.9087,1124.8785,371.78754,1124.8777C371.66644,1124.8768,371.56897,1124.7778,371.56982,1124.6569L371.56982,1124.6571L371.56982,1124.6566C371.57068,1124.5354,371.66956,1124.4381,371.79065,1124.439C371.9118,1124.4398,372.00928,1124.5385,372.00842,1124.6597L372.00842,1124.6602L372.00842,1124.6599C372.00757,1124.7809,371.9087,1124.8785,371.78754,1124.8777C371.66644,1124.8768,371.56897,1124.7778,371.56982,1124.6569L371.56982,1124.6571L371.56982,1124.6566 Z"/> </g> <g style="fill:rgb(220,229,235); fill-opacity:1.0; stroke-linejoin: miter"> <path d="M359.14713,1113.2224L359.14713,1113.2228L359.14713,1113.2224L358.70853,1113.2198L358.70853,1113.2194L359.14713,1113.2228L359.14713,1113.2224L358.70853,1113.2198L358.70853,1113.2194L359.14713,1113.2228 M358.70853,1113.2194C358.70938,1113.0981,358.80826,1113.0007,358.92935,1113.0016C359.0505,1113.0024,359.14798,1113.1012,359.14713,1113.2224L359.14713,1113.2228L359.14713,1113.2224C359.14627,1113.3436,359.0474,1113.441,358.92624,1113.4402C358.80515,1113.4393,358.70767,1113.3406,358.70853,1113.2194L358.70853,1113.2198L358.70853,1113.2194C358.70938,1113.0981,358.80826,1113.0007,358.92935,1113.0016C359.0505,1113.0024,359.14798,1113.1012,359.14713,1113.2224L359.14713,1113.2228L359.14713,1113.2224C359.14627,1113.3436,359.0474,1113.441,358.92624,1113.4402C358.80515,1113.4393,358.70767,1113.3406,358.70853,1113.2194L358.70853,1113.2198L358.70853,1113.2194 Z"/> </g> <g style="fill:rgb(112,97,78); fill-opacity:1.0; stroke-linejoin: miter"> <path d="M391.0775,993.2771L546.6358,994.3783L702.19434,995.47974Q700.6707,1210.7069,699.1468,1425.9346Q543.58813,1424.8336,388.02972,1423.7325Q389.55368,1208.5049,391.0775,993.2771"/> </g> <g style="fill:rgb(245,245,245); fill-opacity:1.0; stroke-linejoin: miter"> <path d="M422.38254,1384.3202C410.7251,1384.2377,401.33478,1374.7136,401.4173,1363.0507L403.80984,1025.1405C403.8925,1013.4784,413.41653,1004.0928,425.0741,1004.1753L667.95276,1005.89343C679.61523,1005.97705,689.0002,1015.4957,688.9174,1027.1584L687.0683,1288.3871L584.5784,1385.4683L422.38254,1384.319 Z"/> </g> <g style="fill:rgb(146,159,168); fill-opacity:0.5058824; stroke-linejoin: miter"> <path d="M437.39453,1126.4956L437.31796,1132.1542L651.62756,1135.0402L651.70404,1129.3828L437.39453,1126.4956 Z"/> </g> <g style="fill:rgb(146,159,168); fill-opacity:0.5137255; stroke-linejoin: miter"> <path d="M437.07864,1149.9208L437.00204,1155.5803L651.3118,1158.467L651.388,1152.8085L437.07864,1149.9208 Z"/> </g> <g style="fill:rgb(146,159,168); fill-opacity:0.5137255; stroke-linejoin: miter"> <path d="M436.76273,1173.3474L436.6865,1179.0061L608.6036,1181.3221L608.67993,1175.664L436.76273,1173.3474 Z"/> </g> <g style="fill:rgb(146,159,168); fill-opacity:0.50980395; stroke-linejoin: miter"> <path d="M436.4471,1196.7739L436.37076,1202.4331L650.6805,1205.319L650.7566,1199.6611L436.4471,1196.7739 Z"/> </g> <g style="fill:rgb(146,159,168); fill-opacity:0.5058824; stroke-linejoin: miter"> <path d="M436.13132,1220.1995L436.05484,1225.8589L650.3648,1228.7457L650.44104,1223.0876L436.13132,1220.1995 Z"/> </g> <g style="fill:rgb(255,0,0); fill-opacity:1.0; stroke-linejoin: miter"> <path d="M540.6065,933.41693L540.6066,933.4178L540.6066,933.4184L540.6066,933.41693L540.6065,933.4178L540.6066,933.41693L540.6066,933.4184Q540.6066,933.41693,540.6065,933.41693 Z"/> </g> <g style="fill:rgb(255,0,0); fill-opacity:1.0; stroke-linejoin: miter"> <path d="M564.2547,1023.8507C560.9257,1024.1554,557.2911,1025.4244,554.5495,1027.218C551.2972,1029.356,548.4767,1032.424,546.4089,1036.1046L545.8139,1037.1455L545.24365,1036.1256C541.18225,1028.737,534.9176,1024.5095,526.8163,1023.67505C521.93915,1023.1627,516.6643,1024.0319,512.5468,1026.0042C505.56116,1029.3514,501.0028,1035.8625,499.54706,1044.5377C499.2871,1046.1099,499.25635,1050.4418,499.4942,1052.0571C500.37872,1057.96,502.60095,1063.4042,506.7099,1069.6777C513.4694,1080.0039,524.35803,1090.9171,543.3415,1106.4199L545.3124,1108.0277L547.62537,1106.3005C571.19617,1088.6703,585.713,1072.4382,590.5045,1058.329C591.9488,1054.0657,592.5571,1049.7476,592.2354,1045.9906C591.3879,1036.1934,585.56433,1028.6927,576.2953,1025.4398C572.5296,1024.128,567.88257,1023.5072,564.2547,1023.8507 Z M553.45496,1050.9945L553.404,1058.2157L560.6243,1058.267L567.84515,1058.3179L567.79083,1065.9866L567.7366,1073.6547L560.566,1073.6052L553.3947,1073.5538L553.3442,1080.7745L553.2925,1087.9955L545.57404,1087.9402L537.85547,1087.8854L537.90656,1080.6648L537.95776,1073.4447L530.73706,1073.3942L523.5163,1073.3423L523.57056,1065.6735L523.6249,1058.0049L530.79565,1058.057L537.9669,1058.1067L538.018,1050.8859L538.06915,1043.6648L545.7871,1043.7191L553.5062,1043.7739L553.45496,1050.9945 Z"/> </g> <g style="fill:rgb(255,255,255); fill-opacity:1.0; stroke-linejoin: miter"> <path d="M545.78827,1043.5531L538.0703,1043.4991C537.97864,1043.4984,537.9037,1043.5719,537.9031,1043.6636L537.8519,1050.8846L537.802,1057.9397L530.7968,1057.8907L523.62604,1057.8391C523.58203,1057.8389,523.5397,1057.8561,523.5085,1057.8871C523.47705,1057.9178,523.4592,1057.9601,523.4589,1058.0038L523.4046,1065.6724L523.35034,1073.3412C523.3497,1073.4329,523.4235,1073.5076,523.5151,1073.5082L530.73584,1073.5602L537.79047,1073.6094L537.7405,1080.6637L537.6894,1087.8843C537.6887,1087.9761,537.76245,1088.0507,537.85425,1088.0513L545.5728,1088.1062L553.29126,1088.1615C553.3829,1088.1621,553.4578,1088.0887,553.4585,1087.9967L553.51013,1080.7758L553.5595,1073.721L560.56476,1073.7711L567.73535,1073.8206C567.82697,1073.8213,567.90173,1073.7477,567.9024,1073.6559L567.95667,1065.9878L568.0109,1058.3212C568.0116,1058.2296,567.9379,1058.1548,567.8463,1058.154L553.57117,1058.0511L553.6208,1050.9957L553.67224,1043.7751C553.67285,1043.6833,553.599,1043.6088,553.5074,1043.608L545.78827,1043.5531 Z"/> </g> <g style="fill:rgb(68,197,229); fill-opacity:1.0; stroke-linejoin: miter"> <path d="M437.20035,1242.1487L437.20035,1242.1492L471.15295,1242.3904C471.68817,1242.3942,472.11908,1242.8308,472.1153,1243.3665L472.1153,1243.367L471.90967,1272.4119C471.90588,1272.947,471.4688,1273.3782,470.9336,1273.3744L470.9336,1273.3752L436.98093,1273.1351C436.7238,1273.1333,436.478,1273.0295,436.29752,1272.8466C436.11697,1272.6635,436.01663,1272.4164,436.01846,1272.1589L436.01846,1272.1597L436.2241,1243.111C436.22592,1242.8539,436.32974,1242.6079,436.51285,1242.4275C436.6959,1242.247,436.94315,1242.1469,437.20035,1242.1487L437.20035,1242.1492 M437.18655,1244.0874L438.1627,1243.1248L437.95706,1272.173L436.9946,1271.1965L470.94727,1271.4358L469.97113,1272.3981L470.17682,1243.3527L471.13916,1244.3287L437.18655,1244.0874 Z"/> </g> <g style="fill:rgb(68,197,229); fill-opacity:1.0; stroke-linejoin: miter"> <path d="M436.88992,1285.985L436.88992,1285.9855L470.84265,1286.2267C471.4062,1286.2306,471.86,1286.6909,471.85602,1287.2544L471.85602,1287.2552L471.6504,1316.2999C471.64642,1316.8634,471.1861,1317.3174,470.6225,1317.3135L470.6225,1317.3142L436.66983,1317.0742C436.39902,1317.0724,436.14017,1316.963,435.95004,1316.77C435.75998,1316.5774,435.65427,1316.3169,435.65616,1316.0459L435.65616,1316.047L435.86185,1286.9983C435.86374,1286.7277,435.97318,1286.469,436.16605,1286.2789C436.3588,1286.0886,436.61917,1285.9832,436.88992,1285.985L436.88992,1285.9855 M436.87546,1288.0266L437.90347,1287.0131L437.69778,1316.0609L436.6841,1315.0326L470.6369,1315.272L469.6089,1316.2854L469.8145,1287.2399L470.82812,1288.2681L436.87546,1288.0266 Z"/> </g> <g style="fill:rgb(68,197,229); fill-opacity:1.0; stroke-linejoin: miter"> <path d="M436.57895,1329.907L436.57895,1329.9075L470.53156,1330.1486C471.07617,1330.1523,471.51453,1330.5973,471.51068,1331.1418L471.51068,1331.1426L471.305,1360.1874C471.30115,1360.7319,470.8565,1361.1705,470.31195,1361.1667L470.3119,1361.1674L436.35928,1360.9275C436.09756,1360.9257,435.8475,1360.8198,435.6638,1360.6335C435.4802,1360.4474,435.37808,1360.1958,435.37997,1359.934L435.37997,1359.9348L435.58566,1330.8862C435.5875,1330.6246,435.6932,1330.3748,435.87943,1330.191C436.0657,1330.0077,436.3173,1329.9052,436.57895,1329.907L436.57895,1329.9075 M436.5648,1331.8795L437.55807,1330.9005L437.35233,1359.948L436.37308,1358.9548L470.3258,1359.1942L469.33264,1360.1733L469.53833,1331.1278L470.51752,1332.1212L436.5648,1331.8795 Z"/> </g> <g style="fill:rgb(146,159,168); fill-opacity:0.50980395; stroke-linejoin: miter"> <path d="M478.08496,1255.5848L478.00873,1261.2434L649.9258,1263.5596L650.0021,1257.9009L478.08496,1255.5848 Z"/> </g> <g style="fill:rgb(146,159,168); fill-opacity:0.50980395; stroke-linejoin: miter"> <path d="M477.7787,1298.8423L477.70245,1304.5007L649.6194,1306.8165L649.69574,1301.1582L477.7787,1298.8423 Z"/> </g> <g style="fill:rgb(146,159,168); fill-opacity:0.5137255; stroke-linejoin: miter"> <path d="M477.47247,1342.099L477.39612,1347.7576L584.8392,1349.2053L622.32825,1349.7103L628.2234,1344.1304L628.2195,1344.1302L584.8793,1343.5464L477.47247,1342.099 Z"/> </g> <g style="fill:rgb(225,225,225); fill-opacity:1.0; stroke-linejoin: miter"> <path d="M687.0725,1288.3871L606.3899,1287.814C594.7271,1287.733,585.208,1297.1178,585.1254,1308.7799L584.5824,1385.4683L687.0725,1288.3871 Z"/> </g> <g style="fill:rgb(28,2,29); fill-opacity:1.0; stroke-linejoin: miter"> <path d="M454.9108,972.17303L546.78845,972.8237L638.66614,973.47424Q638.527,993.12646,638.3879,1012.77893Q546.51013,1012.129,454.6326,1011.4789Q454.77164,991.8259,454.9108,972.17303"/> </g> <g style="fill:rgb(255,255,255); fill-opacity:1.0; stroke-linejoin: miter"> <path d="M796.2661,1192.0391Q801.4632,1197.7812,800.30505,1204.1692Q800.02795,1213.9415,796.1597,1218.1727Q789.3469,1227.3574,778.1228,1234.3413Q771.99097,1237.6357,768.21124,1235.7207Q759.7242,1231.8561,752.40656,1221.4177Q751.3183,1218.8849,751.47253,1211.2412Q751.23834,1210.6167,752.8704,1206.8735Q754.42694,1203.5107,764.27576,1194.7285Q771.01074,1188.5568,775.18146,1186.9338Q786.8838,1183.7106,791.5242,1190.2628 Z"/> </g> <g style="fill:rgb(38,72,94); fill-opacity:1.0; stroke-linejoin: miter"> <path d="M778.573,1184.3319C775.83966,1184.7944,772.411,1186.2439,769.9823,1187.9092C768.6432,1188.8274,762.19696,1195.582,749.2582,1209.5739C738.92725,1220.7732,729.9494,1230.6373,729.283,1231.5607C724.95294,1237.6545,724.17804,1245.4281,727.2206,1252.6334C728.2825,1255.1498,729.7696,1257.1376,732.46027,1259.5879C736.54584,1263.3271,741.5481,1265.1733,747.1078,1264.9822C752.02686,1264.7832,755.9379,1263.3774,759.6909,1260.4425C762.637,1258.1165,798.8014,1218.648,800.42096,1215.9595C801.1703,1214.7128,802.10486,1212.5004,802.5532,1210.9142C803.2846,1208.4209,803.34973,1207.6503,803.1813,1204.2656C803.04974,1201.0074,802.8515,1200.0552,802.0608,1197.9116C800.702,1194.3513,798.9324,1191.7349,796.08374,1189.3215C791.27545,1185.1321,784.7059,1183.2854,778.573,1184.3319 Z M786.15173,1188.9865C789.0927,1189.7319,791.516,1191.1052,793.7462,1193.2555C797.9454,1197.4061,799.6643,1202.7429,798.58093,1208.418C797.7599,1212.6428,797.0025,1213.6974,787.4092,1224.1632C782.5052,1229.5114,778.3631,1233.9023,778.1712,1233.9094C778.0114,1233.9165,772.4019,1228.895,765.7225,1222.732L753.5931,1211.5431L762.6388,1201.8035C772.02264,1191.6991,773.2578,1190.5929,776.6999,1189.463C779.1621,1188.628,783.8248,1188.4078,786.15173,1188.9865 Z"/> </g> <g style="fill:rgb(255,255,255); fill-opacity:1.0; stroke-linejoin: miter"> <path d="M357.9787,1223.2429L357.84326,1223.0071Q354.0495,1217.1748,349.5514,1213.7175L347.19498,1212.0249Q344.7726,1210.4452,342.08817,1209.31Q339.40414,1208.1763,336.4586,1207.487Q333.65518,1206.8307,330.88504,1206.6422Q323.9879,1206.5784,322.64856,1207.1261Q317.20807,1208.1484,311.90033,1211.0398L347.828,1268.9099Q349.31635,1268.1902,354.3371,1263.1649Q356.20422,1261.0732,357.66736,1258.7422Q360.594,1254.0833,361.90625,1248.4755Q362.5799,1245.5925,362.7612,1242.7446Q362.94162,1239.8977,362.62866,1237.0845L362.19293,1234.2816Q361.07294,1228.6917,357.9787,1223.2429 Z"/> </g> <g style="fill:rgb(255,255,255); fill-opacity:1.0; stroke-linejoin: miter"> <path d="M344.10696,1271.0557L308.287,1213.3599Q297.76138,1221.3799,295.14615,1234.4545Q294.60477,1237.3097,294.56717,1240.1787Q294.5294,1243.0466,294.9955,1245.9283L295.5875,1248.8134Q296.30588,1251.7006,297.52737,1254.6019Q298.86856,1257.3787,300.38016,1259.6381Q301.91336,1261.9427,303.70242,1263.9092L305.55493,1265.7906Q307.47174,1267.588,309.64484,1269.047Q313.87772,1271.9366,319.58475,1273.5802Q325.2833,1275.1659,331.03305,1274.7374Q333.90793,1274.5238,336.79562,1273.8048Q338.92233,1273.4917,344.10696,1271.0557 Z"/> </g> <g style="fill:rgb(255,183,126); fill-opacity:1.0; stroke-linejoin: miter"> <path d="M501.70026,1340.5204Q501.61078,1340.5227,501.36218,1340.7823L501.22614,1340.8461Q501.09906,1340.8732,500.90308,1340.8668Q499.32147,1340.7473,499.39368,1340.8021L497.79102,1341.3743Q497.0567,1341.6597,496.12915,1343.0181L495.13922,1344.9543L493.7035,1348.6638Q493.00653,1350.7216,492.72827,1353.0493Q492.55493,1354.2843,492.7611,1354.9777Q492.99225,1355.7306,493.22418,1356.1255L493.74927,1356.8511Q494.2188,1357.8013,494.4508,1358.1226Q494.71942,1358.5264,495.15234,1358.9529Q497.7127,1361.4343,498.86017,1362.2146Q499.3703,1362.6584,501.03986,1363.1711Q502.5147,1363.7931,505.1836,1363.1478L506.64764,1362.738Q508.24066,1362.5579,508.30463,1362.4711Q508.65424,1362.3865,509.2694,1361.6187L501.70728,1340.5403 Z"/> </g> <g style="fill:rgb(251,99,16); fill-opacity:1.0; stroke-linejoin: miter"> <path d="M544.14526,1271.7781L542.6058,1276.6973Q542.49023,1276.9037,542.0167,1283.5436Q540.46924,1291.7941,540.45734,1293.1915Q540.2807,1298.581,541.67194,1300.7898Q542.1869,1301.1693,543.3691,1301.8508L548.28516,1304.4797Q548.4053,1304.6709,552.1484,1305.0588L556.9771,1305.9946Q559.9433,1306.582,562.1165,1307.7313Q562.47766,1307.8506,562.8288,1307.7734Q563.055,1307.7162,563.2312,1307.516Q563.82587,1306.4799,564.34753,1305.958Q564.6251,1305.5739,568.0552,1302.7047Q568.4704,1302.3102,568.7532,1301.7516Q569.0448,1301.1743,569.1457,1300.6439Q569.6132,1297.1896,570.1623,1295.2444Q570.3296,1293.3422,570.5453,1292.7358L544.1503,1271.782 Z"/> </g> <g style="fill:rgb(64,57,57); fill-opacity:1.0; stroke-linejoin: miter"> <path d="M524.203,1419.0381L507.2818,1420.1486Q504.6773,1430.5664,505.2337,1433.2968Q505.5772,1436.4026,509.50507,1436.4224L513.8488,1436.4731Q515.1042,1436.4338,516.23206,1436.187Q518.6849,1435.6598,521.0657,1433.8479Q525.4941,1430.3436,526.30145,1427.2053Q526.52295,1426.2153,526.25604,1425.169Q525.9875,1424.0186,524.6467,1422.1149L524.20496,1419.0514 Z"/> </g> <g style="fill:rgb(255,255,255); fill-opacity:1.0; stroke-linejoin: miter"> <path d="M576.39105,1408.7107L567.6785,1407.1243L562.29395,1409.3002Q563.05536,1413.0521,562.97003,1414.4967Q562.922,1416.3942,562.0863,1417.5195Q561.4774,1418.4033,559.99396,1419.1078Q559.36475,1419.4071,558.4902,1419.718Q554.6098,1420.9794,554.3237,1421.1348Q553.1308,1421.6064,552.3837,1422.124Q550.5912,1423.3594,550.4133,1425.6338Q550.59393,1429.9253,554.16754,1429.6156Q554.9864,1429.5454,556.07733,1429.2269Q557.20496,1428.9065,559.476,1427.9951L567.84607,1425.6489Q571.7029,1425.0011,573.3706,1424.5067Q575.1922,1423.9835,576.1582,1423.3444Q577.708,1422.4109,577.734,1420.4886Q577.7449,1419.7366,577.5644,1418.8193Q576.4002,1414.3517,576.4124,1413.5734Q576.1846,1411.7615,576.3901,1408.7312 Z"/> </g> <g style="fill:rgb(64,57,57); fill-opacity:1.0; stroke-linejoin: miter"> <path d="M560.0161,1415.2721Q559.65576,1415.2838,559.0296,1415.748L556.26447,1418.058Q555.5282,1418.6399,554.8758,1419.0214Q553.44507,1419.8512,551.8748,1420.0149Q550.0986,1420.2014,548.0581,1419.5957Q547.18054,1419.3375,546.24384,1418.9443L542.47955,1417.2722Q541.6058,1416.9281,541.0236,1416.819Q539.53564,1416.5293,539.0291,1417.495Q538.3394,1418.6655,538.6504,1422.3743Q538.65875,1423.3007,539.8982,1432.0641Q540.0405,1432.9927,540.371,1433.779Q542.1646,1437.7605,547.5062,1437.7969Q550.54193,1437.7289,553.33374,1436.187Q556.0508,1434.635,557.4232,1432.1827Q558.0467,1431.0459,558.31445,1429.8705Q559.8664,1422.7062,560.2933,1419.8488Q560.6712,1417.3942,560.5996,1416.3025Q560.53064,1415.2285,560.0235,1415.2719 Z"/> </g> <g style="fill:rgb(255,255,255); fill-opacity:1.0; stroke-linejoin: miter"> <path d="M671.5014,1383.0315Q668.9728,1383.1112,662.32916,1387.2512L645.294,1408.2079Q638.0233,1415.441,636.0464,1418.575Q633.2919,1422.5948,634.8819,1424.9514Q636.8052,1427.5653,642.0638,1427.5295Q648.74365,1427.3253,656.06744,1422.9473Q662.9544,1418.7227,667.22345,1412.1433Q673.0219,1403.0798,674.91565,1393.2816Q675.62274,1390.5709,673.91974,1385.0588Q673.3143,1383.0271,671.56537,1383.0305 Z"/> </g> <g style="fill:rgb(90,56,43); fill-opacity:1.0; stroke-linejoin: miter"> <path d="M567.8988,1165.1875Q563.5896,1165.3292,559.3289,1167.9856Q553.1588,1171.9918,549.27454,1176.5988Q547.2163,1179.0824,546.7568,1182.7106L546.0708,1188.4672Q546.05664,1190.0358,546.84546,1192.1875Q548.1955,1195.7556,551.4299,1201.4728L584.839,1211.158Q587.8723,1210.335,589.4354,1209.1825L594.3442,1205.2505Q595.1293,1204.5519,595.3017,1203.9158Q596.14087,1195.0793,595.9054,1191.9655Q595.1772,1182.5133,594.13806,1180.6355Q590.94165,1172.4679,584.39514,1168.4908Q579.3683,1165.3456,567.9578,1165.1859 Z"/> </g> <g style="fill:rgb(255,183,126); fill-opacity:1.0; stroke-linejoin: miter"> <path d="M559.53107,1179.0715Q551.6034,1180.4415,549.4392,1187.5457Q548.91974,1189.5753,549.04297,1192.8763Q549.12866,1195.722,550.085,1201.8973L549.8564,1207.506Q550.04395,1212.279,550.5076,1214.8323Q550.99384,1217.8768,552.53326,1221.0741L560.1005,1234.8661Q561.54114,1237.3622,566.4666,1237.1201L565.60547,1241.7323L563.39954,1249.428L567.9753,1266.1952L575.1981,1268.9846L579.5768,1264.074L587.6528,1249.8816L588.5706,1243.6342L590.45557,1236.4042Q590.5754,1220.8184,590.41125,1215.437Q593.4603,1215.8577,594.62994,1213.1451Q598.23914,1205.4407,597.7163,1201.7208Q596.63666,1197.8063,592.80505,1198.0421Q592.16534,1198.3589,591.9681,1199.0868L590.6712,1204.7092L587.93134,1206.1985L588.22736,1203.5763L586.489,1188.3026Q586.3734,1187.357,586.22644,1186.7853Q585.46436,1183.4666,581.4808,1180.945Q579.1271,1179.564,576.80963,1179.4004Q575.7479,1179.3049,574.2966,1179.3982Q567.74457,1180.1677,567.34357,1180.0057L559.5511,1179.0707 Z"/> </g> <g style="fill:rgb(72,127,149); fill-opacity:1.0; stroke-linejoin: miter"> <path d="M564.7431,1303.4241Q559.71185,1305.3912,556.23926,1313.5664Q552.86285,1321.832,552.97577,1331.782Q552.6207,1345.5275,565.81177,1376.1461L598.5703,1361.3156L598.5263,1355.2375Q598.41864,1342.093,596.60583,1334.2643Q594.8864,1326.4071,590.5828,1319.8616Q585.0177,1311.4011,576.9515,1306.0862Q569.8255,1301.4913,564.81866,1303.3954 Z"/> </g> <g style="fill:rgb(90,56,43); fill-opacity:1.0; stroke-linejoin: miter"> <path d="M524.8714,1223.0162Q520.6666,1222.8641,513.4,1227.0577L510.06268,1230.7936L507.6999,1234.2081L506.7386,1236.8197L505.64307,1241.5552L506.97595,1246.59L508.5561,1249.7407L510.3761,1256.4688L512.9492,1259.0311L546.46606,1257.7736L547.7687,1256.2356L548.43414,1254.5731Q549.39417,1252.0194,549.548,1249.6349L549.4271,1245.1731L548.75024,1241.8062Q548.7259,1238.1648,548.26324,1236.2501Q547.7241,1233.938,546.4685,1232.2958Q543.5748,1228.5144,537.42413,1225.8374Q530.57416,1223.0018,524.9045,1223.0153 Z"/> </g> <g style="fill:rgb(255,183,126); fill-opacity:1.0; stroke-linejoin: miter"> <path d="M528.10425,1234.6355Q522.58386,1234.7744,519.6168,1235.8297Q514.9168,1238.2354,513.48224,1239.8243Q512.11896,1241.1915,511.94208,1243.2496Q511.87604,1243.9941,511.9018,1244.7169Q512.1762,1248.646,512.1233,1250.0232Q512.11615,1252.0271,511.82623,1256.1549L509.34125,1252.9341Q508.16217,1253.7664,508.1292,1255.3395Q508.09943,1257.9921,509.11078,1259.7781Q509.71637,1260.8918,511.60638,1262.2589Q517.0199,1269.8179,518.4839,1272.5757L515.79205,1276.3038Q515.9433,1283.4656,516.45483,1286.1227Q520.7432,1289.4368,525.3686,1289.0076Q529.3999,1288.9785,532.5902,1287.3851L540.9725,1282.5215Q542.99335,1281.2378,543.6624,1280.3093Q544.25543,1279.3828,543.53687,1278.8201Q543.13306,1278.4551,542.37976,1278.1222Q538.13513,1276.6047,538.1197,1276.4019Q537.05896,1275.7434,537.263,1274.6233Q537.4043,1273.9393,538.09753,1272.9666Q538.3135,1272.5299,541.759,1268.5487Q542.4452,1267.6511,542.8691,1266.6752Q545.5355,1265.4178,546.25903,1264.0371Q546.80585,1263.1936,547.5138,1261.232Q548.63464,1257.3065,548.64496,1256.1707Q548.7074,1255.4458,548.3791,1255.129L547.99133,1255.0154Q546.6974,1255.1434,546.38544,1254.9836Q545.80756,1254.7654,545.5868,1254.017Q545.3851,1253.3182,545.35895,1252.1416Q545.57666,1244.0518,545.28644,1243.2283Q544.9104,1240.6625,543.4636,1239.2075Q537.39624,1234.0392,528.1377,1234.6348 Z"/> </g> <g style="fill:rgb(90,56,43); fill-opacity:1.0; stroke-linejoin: miter"> <path d="M481.1084,1181.9996Q463.95743,1183.6853,455.53275,1194.1808Q452.5684,1198.0397,450.10532,1204.012Q448.50388,1207.7748,445.81345,1216.0503L441.9003,1224.106L438.22977,1233.7197L436.27243,1240.3024L437.79153,1244.397L449.54428,1259.7278L455.4279,1268.4509L458.64047,1274.4482L497.1048,1258.5973L498.90558,1254.4706Q501.78748,1250.0746,507.58234,1244.0664L510.58594,1235.2826L512.3257,1228.0505Q512.4548,1227.186,512.55457,1226.2946Q512.9769,1222.9666,512.3442,1219.3212Q510.51935,1210.1228,504.30975,1198.4476Q495.93677,1182.2806,481.22668,1181.997 Z"/> </g> <g style="fill:rgb(99,146,174); fill-opacity:1.0; stroke-linejoin: miter"> <path d="M495.88293,1357.2346L412.63892,1360.0437Q410.4502,1378.2968,411.59985,1385.7767Q411.9599,1388.1554,412.7652,1390.1544Q417.36417,1398.7246,417.6241,1400.8241Q418.08792,1402.4667,418.4266,1404.7755Q419.74313,1416.975,420.29776,1419.042Q421.2399,1423.7922,422.88748,1427.0929Q427.0457,1436.5176,441.29855,1436.3535Q449.71075,1436.3336,459.99097,1433.6323Q470.93048,1430.6304,474.55603,1427.5193Q495.91577,1434.9883,505.30743,1427.0524Q512.09106,1420.3129,509.38153,1399.9615Q505.8485,1375.7833,495.9527,1357.3754 Z"/> </g> <g style="fill:rgb(30,61,92); fill-opacity:1.0; stroke-linejoin: miter"> <path d="M550.7206,1318.9983Q550.5893,1318.9117,551.11554,1321.3755L553.5043,1331.8892L502.67084,1342.0853Q507.19135,1365.3761,508.54144,1373.7908Q509.71887,1381.0724,509.7973,1386.6101Q509.938,1393.204,508.76263,1401.4791Q507.94495,1407.9843,504.36218,1426.1586L527.8296,1423.5895L527.20905,1408.6389Q533.0806,1412.9305,535.0068,1415.3468Q536.8737,1417.4781,538.33655,1422.1084L562.3654,1419.3761Q561.80444,1418.6471,561.3683,1416.3442Q559.77795,1404.52,559.13214,1402.1134Q558.1808,1397.8281,556.94354,1394.7494Q555.693,1391.5596,553.82404,1388.8495L546.5489,1379.5345Q545.392,1377.7032,545.3332,1376.5519Q545.16705,1375.2201,546.2829,1373.7694Q553.59393,1366.7322,554.71484,1364.0944Q556.85034,1360.3966,557.30774,1355.4667Q558.2248,1341.8419,550.7291,1318.9998 Z"/> </g> <g style="fill:rgb(72,127,149); fill-opacity:1.0; stroke-linejoin: miter"> <path d="M639.3587,1341.1569Q617.3403,1342.5837,603.89105,1343.172Q599.4047,1343.5114,594.9113,1344.7Q568.87213,1352.5782,552.5348,1363.7422Q539.3824,1372.8708,538.7078,1382.6122Q537.97546,1394.3356,548.60486,1404.9655Q555.71466,1411.8202,564.5896,1413.0958Q567.1689,1413.5209,570.9371,1413.5702Q588.4608,1412.8124,591.9172,1413.3383Q594.54724,1413.2869,618.3624,1416.434L626.04846,1417.108Q647.1136,1418.3651,656.53577,1411.5815Q663.00543,1407.0005,666.58856,1397.5995Q668.9173,1391.0096,668.4965,1387.068Q668.33307,1384.0903,664.6361,1383.4287L671.7223,1370.6852Q664.7631,1372.7932,663.4706,1369.6189Q661.8189,1366.9828,662.9187,1353.8213L656.24207,1357.392L639.47644,1341.2705 Z"/> </g> <g style="fill:rgb(251,99,16); fill-opacity:1.0; stroke-linejoin: miter"> <path d="M589.47656,1217.1028Q590.34814,1226.0491,587.8164,1234.2772Q585.6324,1242.2811,575.98645,1264.2236Q569.9738,1260.348,565.9308,1240.0804L560.59064,1248.0192L551.4835,1259.0338L546.3969,1266.083Q542.2208,1272.6827,543.7845,1275.1542Q544.3994,1276.3881,545.96124,1277.3434L552.355,1280.3755Q553.59766,1281.0153,554.59955,1282.0013Q555.51324,1282.8975,556.35455,1284.654Q559.4427,1292.9274,560.6674,1294.8046Q562.37585,1297.9507,565.37573,1301.481Q571.4158,1308.8971,592.27655,1326.3965L616.67847,1318.6853L610.27985,1304.8313L639.60626,1294.9205L639.6099,1346.2858L656.91486,1358.8284L662.4459,1355.9663L660.4288,1372.0408L679.4887,1370.312Q680.44275,1341.8627,679.24567,1329.3422Q678.1097,1316.4147,673.77405,1307.0924L670.651,1301.019Q659.94745,1283.2892,658.4721,1279.8468Q657.15906,1277.7242,649.71924,1259.1482Q648.1095,1255.4419,646.51135,1252.434Q643.2609,1246.2347,639.0577,1241.6954Q633.2695,1235.4324,622.5884,1230.0953Q620.30695,1228.3263,589.4899,1217.1064 Z"/> </g> <g style="fill:rgb(206,40,215); fill-opacity:1.0; stroke-linejoin: miter"> <path d="M442.34042,1241.7625Q433.04306,1241.9542,428.76547,1244.6537Q426.66245,1245.9432,424.94632,1247.8057Q423.67078,1249.0219,419.7658,1254.6151Q419.2204,1255.3728,417.7113,1256.3379L436.746,1273.1555L440.066,1277.3195L435.2637,1307.1783Q434.45724,1312.4795,434.2524,1315.5408Q433.66165,1324.2225,434.00583,1325.8468Q434.19504,1328.1494,436.0477,1330.4341L420.06808,1328.2211Q416.57028,1344.6744,410.07465,1361.7213Q409.91907,1364.3066,415.2907,1364.8317Q420.9365,1365.562,437.10233,1365.1613Q463.82587,1364.3864,483.0088,1362.5979Q494.31885,1361.5168,495.73083,1359.1339Q497.13184,1357.6879,495.99847,1353.428Q495.4427,1351.336,494.2743,1348.4603Q487.53967,1333.6475,487.32788,1332.0789Q485.49707,1326.0201,486.22974,1322.6195Q486.51178,1321.0066,487.97687,1319.6711Q498.3233,1313.5876,499.4516,1310.7565Q500.3299,1310.0364,500.89722,1303.2992Q502.85693,1297.8125,502.76898,1297.1628Q503.20764,1296.431,501.9615,1290.0156Q501.8778,1288.5481,502.39557,1287.1997Q502.90405,1285.8049,504.5771,1284.2533Q513.64404,1277.3325,513.4962,1276.945Q515.3835,1274.8002,515.33954,1272.7332Q515.4446,1270.6125,513.85254,1267.4962Q511.45673,1263.5516,509.22845,1258.7913Q508.3075,1257.2867,506.68103,1255.7979Q504.58276,1253.9746,502.838,1253.5541Q495.12054,1253.14,494.8553,1252.593Q493.61615,1252.1483,492.42596,1251.5197L489.1253,1249.6254Q494.5199,1265.5371,491.3864,1272.2373Q487.12952,1283.256,477.61884,1281.2684Q473.44928,1279.4313,461.76395,1263.0385Q455.66238,1254.403,450.62393,1241.8601Q446.4282,1241.6796,442.36337,1241.7622 Z"/> </g> <g style="fill:rgb(255,183,126); fill-opacity:1.0; stroke-linejoin: miter"> <path d="M422.79706,1254.9839Q419.30957,1256.8083,418.21008,1270.6879Q417.00262,1282.7983,416.04532,1330.2678Q428.7056,1349.9808,436.4836,1360.899L442.04782,1368.4164L454.40134,1384.0774Q455.92538,1386.4518,456.23087,1388.2344Q456.5646,1388.7522,456.2792,1394.2086Q456.33798,1395.2312,457.01566,1396.6262Q458.18234,1399.2173,464.15167,1405.1533L466.93427,1409.2194L471.64948,1410.4376L476.2256,1409.8545L478.94226,1406.8684L479.41846,1402.5275Q479.05225,1393.804,479.2439,1393.0817Q479.17664,1391.8289,478.88623,1390.7906Q478.27917,1387.9922,474.05536,1383.5588L470.14294,1379.6194Q462.99072,1374.4253,462.7839,1373.6511Q461.73227,1370.3313,435.2333,1327.9667L441.86215,1273.9684L422.87726,1255.0634 Z"/> </g> <g style="fill:rgb(255,183,126); fill-opacity:1.0; stroke-linejoin: miter"> <path d="M480.62982,1195.2925Q476.28122,1195.383,471.99295,1198.8325Q467.53732,1202.398,466.40054,1206.8527Q464.2172,1214.7672,465.43246,1223.7667Q466.08975,1228.4783,467.39334,1233.0096Q468.38638,1236.8447,471.30322,1242.7671Q471.73468,1243.9207,471.61432,1245.317Q471.49048,1247.7347,468.0934,1252.5002Q464.36057,1257.7754,460.62027,1260.9994Q460.395,1262.4998,460.40347,1263.7888Q460.25735,1269.3357,467.90585,1276.1132Q474.9203,1282.0643,481.41125,1281.9178Q486.36023,1281.823,490.74377,1278.0797Q495.98242,1273.4702,498.05078,1267.7795Q499.15918,1264.6456,498.0327,1261.7587Q497.2552,1259.5854,493.74902,1256.0461L490.38092,1248.228Q501.1684,1236.6448,500.36108,1224.9084Q500.33386,1222.62,500.21777,1220.6886Q498.95532,1216.1478,498.20612,1213.7683Q495.95917,1206.4542,493.378,1202.567Q488.44055,1195.4048,480.64056,1195.2921 Z"/> </g> <g style="fill:rgb(90,56,43); fill-opacity:1.0; stroke-linejoin: miter"> <path d="M450.1511,1239.0509L448.16702,1245.0607L447.49918,1253.8728L449.10464,1260.0804L453.0577,1265.816L453.2593,1269.23L453.67508,1272.6445L457.39255,1273.677Q455.76553,1276.6969,455.16568,1278.5011Q454.88345,1279.3103,454.62686,1280.294Q453.51852,1284.9563,453.38693,1285.2517Q453.24423,1285.8574,452.10696,1288.746Q451.88535,1289.3815,451.78275,1289.8761Q451.2582,1292.1396,453.03287,1294.9796Q454.31882,1297.0596,456.32462,1297.8408L460.00974,1292.932L457.4963,1290.7512L458.40036,1286.3254L459.5742,1284.0508L460.79538,1279.9384L461.38016,1275.9877L460.91324,1270.5524L458.42923,1265.2334L460.4315,1260.2589L461.94016,1257.5095L450.16635,1239.0747 Z"/> </g> <g style="fill:rgb(90,56,43); fill-opacity:1.0; stroke-linejoin: miter"> <path d="M466.38168,1251.7074L459.69705,1260.6346L462.8749,1259.5076L465.24533,1259.8376L466.0621,1262.8561L465.90817,1264.9556L464.47635,1267.7004L463.01968,1269.8809Q467.04745,1268.3502,467.72684,1267.7588Q467.96207,1267.5897,468.2184,1267.3395L470.61066,1264.9386Q471.26044,1264.2211,471.32123,1263.8048Q471.36542,1263.5645,471.24176,1263.3077Q471.1974,1263.2125,471.10223,1263.0739Q470.47253,1262.2806,470.37958,1262.0698Q470.14044,1261.626,470.08496,1261.1923Q470.0144,1260.7451,470.0611,1259.9983L470.3446,1257.2773Q470.3592,1256.7289,470.229,1256.432Q470.1447,1256.2128,469.93878,1255.9806Q468.85696,1254.9877,468.2773,1254.2385Q467.51224,1253.3007,466.38803,1251.7162 Z"/> </g> <g style="fill:rgb(255,183,126); fill-opacity:1.0; stroke-linejoin: miter"> <path d="M507.2697,1276.8097L502.46643,1280.5958Q501.8816,1281.0792,501.47375,1281.5803Q500.25525,1283.0194,500.07422,1285.6083Q499.86127,1288.6053,500.47986,1292.4941Q500.93695,1295.3333,501.90967,1296.5864Q500.187,1303.6962,499.78802,1306.5115Q499.28192,1309.6812,499.43848,1312.5623Q499.50153,1314.0715,499.89008,1316.819L502.31665,1328.7002L504.05682,1317.4802L507.26508,1276.8679 Z"/> </g> <g style="fill:rgb(255,183,126); fill-opacity:1.0; stroke-linejoin: miter"> <path d="M551.2479,1280.1013L545.7722,1286.401Q544.957,1287.3763,544.4778,1288.2778Q543.2378,1290.574,543.4959,1294.678Q543.5121,1295.2513,544.0292,1296.3157Q549.6568,1306.9584,551.2198,1310.7228Q551.85455,1312.214,552.2012,1313.463Q552.35565,1313.8364,552.80884,1316.6051Q552.95276,1317.2363,553.2517,1318.0507Q554.0488,1320.2947,556.6633,1325.2804Q557.1205,1326.3054,557.6017,1328.1017L560.8577,1342.5133Q561.39264,1344.8458,562.51776,1346.8607Q562.77734,1347.673,562.8661,1348.5923Q563.0318,1350.116,562.4864,1351.0503Q562.50793,1351.3707,560.0881,1352.6934Q559.64276,1353.071,559.4826,1353.6948Q559.10803,1356.4478,560.55347,1358.2745Q561.2521,1359.0488,562.8464,1358.6045Q563.2011,1358.5725,566.70844,1357.0891Q569.1149,1356.6412,572.2249,1355.5504L576.6423,1353.7953Q582.09064,1351.3542,581.7665,1348.4838Q581.5265,1346.8732,579.5203,1346.313Q578.938,1346.1329,578.3513,1346.0073L572.7375,1345.6366L570.11676,1328.9282L568.2552,1320.2396L565.2452,1309.6118L554.4085,1283.2968L551.2731,1280.1263 Z"/> </g> <g style="fill:rgb(217,237,136); fill-opacity:1.0; stroke-linejoin: miter"> <path d="M517.95544,1273.1732Q511.80652,1273.6288,509.5667,1274.8586Q507.14697,1275.9806,506.38403,1279.0709Q505.8816,1280.9203,505.62164,1284.7358Q504.4577,1313.0068,503.4699,1320.2075Q502.87823,1325.6221,501.80518,1330.3674Q501.53918,1332.0358,498.49707,1342.2985Q498.13074,1344.4094,498.83313,1345.4543Q500.6363,1347.5476,502.4217,1347.3782Q512.71106,1347.4053,527.35596,1344.833L553.0856,1340.3605Q556.1363,1338.3893,556.2353,1335.966Q556.4058,1334.3121,555.6565,1331.8724Q555.7569,1331.698,551.85596,1321.6068Q551.0873,1319.3969,550.8224,1317.9149Q550.5587,1316.5084,550.6079,1315.061Q550.5445,1314.3286,551.3632,1310.2845Q551.4566,1309.4893,551.19885,1308.4413Q550.9135,1307.3925,550.3208,1306.2675Q546.76166,1300.1989,546.3854,1299.077Q545.30804,1296.6366,545.14124,1294.4457Q544.3093,1289.6891,552.4373,1280.8407Q545.96265,1276.3625,542.65466,1277.0948Q540.8064,1277.4152,538.8028,1278.8927Q537.8535,1279.5836,536.78235,1280.5781L533.1864,1284.0986Q532.27356,1284.8876,531.46155,1285.2152Q527.89417,1286.4165,522.7644,1285.5514Q518.98065,1284.7677,518.04834,1282.132Q517.0343,1279.7994,517.9409,1273.3137 Z"/> </g> <g style="fill:rgb(255,183,126); fill-opacity:1.0; stroke-linejoin: miter"> <path d="M642.0678,1288.6664L606.4555,1302.4393L613.7529,1319.0144Q605.79663,1321.8296,597.33545,1323.0488L557.34265,1328.0562Q551.44183,1328.8086,550.46204,1328.7017Q549.2992,1328.6444,548.7848,1328.1556Q546.1721,1324.665,536.91205,1317.9088Q530.3485,1313.2216,529.61676,1313.669Q528.82196,1313.7843,530.6795,1316.8563Q536.4377,1322.9685,537.3693,1325.0927Q538.5697,1327.4761,536.99994,1328.2587Q535.6863,1328.9647,531.7077,1328.5732Q530.853,1328.7614,511.2356,1325.1062Q508.10223,1324.6506,507.82544,1325.4941Q508.04175,1326.6298,512.3278,1328.6871Q514.60297,1330.0426,528.471,1334.2601Q530.72656,1335.1287,530.0369,1335.976Q528.2674,1337.9921,507.3938,1336.7612Q505.45032,1337.8489,505.56592,1338.4653Q505.48053,1339.2474,508.6974,1340.0671Q508.48047,1340.2227,524.16016,1342.7577Q526.92084,1343.2894,527.317,1343.6815Q527.63446,1344.133,525.5861,1344.5211Q513.9378,1346.2617,513.3281,1346.6161Q510.26752,1347.4801,509.67548,1348.3586Q507.31934,1351.5702,529.12604,1348.8767Q529.5072,1349.806,528.1988,1350.5233L521.14557,1353.4011Q519.4133,1354.1648,518.40063,1354.898Q516.2749,1356.4003,518.50964,1356.6342Q521.0317,1356.9761,541.9019,1351.1666L553.6904,1346.2999L580.64594,1346.9794L626.09644,1344.9661Q629.731,1344.9751,631.1258,1344.8857Q635.10547,1344.6592,637.3344,1343.7809Q644.2873,1341.44,645.00543,1330.6155Q646.20575,1323.7296,642.07275,1288.7196 Z"/> </g> <g style="fill:rgb(155,75,11); fill-opacity:0.47843137; stroke-linejoin: miter"> <path d="M584.6512,1225.7009L578.1256,1232.4806Q577.0006,1233.7863,576.40326,1234.3792Q575.3544,1235.4363,574.3973,1236.0203Q573.1285,1236.8357,571.27563,1237.0706Q569.7071,1237.2988,566.2532,1237.0812L570.176,1244.8793L575.3813,1243.44Q576.888,1241.61,578.5327,1238.4167Q580.131,1235.3892,584.64465,1225.7213 Z"/> </g> <g style="fill:rgb(155,75,11); fill-opacity:0.57254905; stroke-linejoin: miter"> <path d="M517.8328,1271.0588Q522.68835,1275.9908,524.55615,1277.4446Q526.65796,1279.1648,527.9664,1279.2135Q529.20233,1279.3622,531.2258,1277.985Q533.1197,1276.7673,537.9697,1272.574Q533.2959,1275.5623,531.4684,1276.4166Q529.50085,1277.3835,528.2561,1277.268Q527.62964,1277.2402,526.68677,1276.8273L517.84283,1271.0638 Z"/> </g> <g style="fill:rgb(155,75,11); fill-opacity:0.30980393; stroke-linejoin: miter"> <path d="M469.70575,1239.9521L476.25452,1251.7189L478.9425,1271.3427L480.854,1259.8241L490.10938,1248.7163L497.38684,1239.6023Q492.16833,1244.9363,489.55884,1246.6555Q486.76776,1248.5999,484.2304,1248.6039Q481.5885,1248.6453,478.40527,1246.7108Q475.52826,1245.0632,469.70715,1239.9521 Z"/> </g> <g style="fill:rgb(10,4,0); fill-opacity:0.07058824; stroke-linejoin: miter"> <path d="M598.6282,1292.5272L604.3128,1313.3865L591.42114,1321.1938L591.42114,1321.1945L589.9423,1322.0895L591.8113,1321.8514L591.8138,1321.8517Q591.8138,1321.8512,591.8137,1321.8511L591.8137,1321.8518L613.554,1319.0835L613.55676,1319.0841Q613.5575,1319.0833,613.55817,1319.0831L613.5583,1319.0836L614.49664,1318.9636L611.6223,1314.1749L598.655,1292.5719L598.6282,1292.5272 Z"/> </g> <g style="fill:rgb(10,4,0); fill-opacity:0.07058824; stroke-linejoin: miter"> <path d="M474.10413,1412.4774L470.87488,1413.2058L473.19354,1425.4211L474.10345,1412.4882L474.10413,1412.4774 Z"/> </g> <g style="fill:rgb(10,4,0); fill-opacity:0.07058824; stroke-linejoin: miter"> <path d="M531.2323,1361.1559L524.0315,1362.605L526.0729,1401.7692Q526.6819,1387.089,527.60913,1380.1727Q528.46185,1373.0842,531.22705,1361.1833L531.2323,1361.1559 Z"/> </g> <g style="fill:rgb(10,4,0); fill-opacity:0.07058824; stroke-linejoin: miter"> <path d="M651.146,1378.7655L572.9432,1385.2854L572.841,1385.2942L650.0574,1385.4977L651.146,1378.7655 Z"/> </g> <g style="fill:rgb(10,4,0); fill-opacity:0.07058824; stroke-linejoin: miter"> <path d="M469.21973,1365.3158L465.6656,1366.3556L468.52197,1375.5741L469.21918,1365.3251L469.21973,1365.3158 Z"/> </g> <g style="fill:rgb(10,4,0); fill-opacity:0.07058824; stroke-linejoin: miter"> <path d="M441.31174,1276.4617L436.2526,1327.0328L456.00687,1361.3591L444.4667,1323.8567L445.4246,1290.1637L441.33902,1276.5519L441.31174,1276.4617 Z"/> </g> <g style="fill:rgb(10,4,0); fill-opacity:0.07058824; stroke-linejoin: miter"> <path d="M487.56238,1319.286Q481.9162,1329.8774,480.7896,1337.4174Q479.6903,1345.2122,482.6703,1352.0917Q485.65808,1358.4927,490.03363,1360.2805Q490.77643,1360.5029,491.40588,1360.4918Q491.41724,1360.4916,491.4286,1360.4911Q494.097,1360.4253,494.71564,1356.129Q495.1679,1353.1456,494.7473,1347.3749Q494.71027,1346.8267,494.65845,1346.2008L494.65692,1346.2013L494.00848,1347.8754Q487.53534,1333.6162,487.32788,1332.0789Q485.49707,1326.0201,486.22974,1322.6195Q486.4948,1321.1041,487.80414,1319.8336L487.80573,1319.8344L487.5746,1319.3136L487.56238,1319.286 Z"/> </g> <g style="fill:rgb(10,4,0); fill-opacity:0.07058824; stroke-linejoin: miter"> <path d="M636.4456,1249.0103L643.98425,1290.0641L644.4737,1311.6493L644.92584,1331.5961L644.9259,1331.5968Q644.92474,1331.6091,644.92346,1331.6218L644.9266,1331.6226L645.24524,1345.6731L664.3364,1345.8043L644.9814,1270.3438L636.46735,1249.0641L636.4456,1249.0103 Z"/> </g> <g style="fill:rgb(10,4,0); fill-opacity:0.07058824; stroke-linejoin: miter"> <path d="M594.5878,1220.0172L590.47516,1233.2196L590.47516,1233.2202L582.42053,1259.0763L579.36804,1268.8754L579.3681,1268.8759L587.27,1263.3292L594.9961,1230.1151L594.5915,1220.1029L594.5878,1220.0172 Z"/> </g> <g style="fill:rgb(10,4,0); fill-opacity:0.07058824; stroke-linejoin: miter"> <path d="M563.8914,1247.7258L563.8848,1247.7347L561.0817,1251.5568L561.0973,1251.5869L566.072,1259.2207L570.87616,1266.5924L575.6937,1268.4291L576.1928,1268.6191L575.92694,1268.1674L563.8961,1247.7336L563.8914,1247.7258 Z"/> </g> </g> </svg>