<?xml version="1.0" encoding="UTF-8" standalone="no"?>
<!-- Created with Inkscape (http://www.inkscape.org/) -->

<svg
   width="111.46172mm"
   height="161.73843mm"
   viewBox="0 0 111.46171 161.73843"
   version="1.1"
   id="svg5"
   xml:space="preserve"
   xmlns:inkscape="http://www.inkscape.org/namespaces/inkscape"
   xmlns:sodipodi="http://sodipodi.sourceforge.net/DTD/sodipodi-0.dtd"
   xmlns="http://www.w3.org/2000/svg"
   xmlns:svg="http://www.w3.org/2000/svg"><sodipodi:namedview
     id="namedview7"
     pagecolor="#505050"
     bordercolor="#eeeeee"
     borderopacity="1"
     inkscape:showpageshadow="0"
     inkscape:pageopacity="0"
     inkscape:pagecheckerboard="0"
     inkscape:deskcolor="#505050"
     inkscape:document-units="mm"
     showgrid="false" /><defs
     id="defs2" /><g
     inkscape:label="Layer 1"
     inkscape:groupmode="layer"
     id="layer1"
     transform="translate(408.6182,-22.264334)"><path
       id="path2487"
       style="fill:none;fill-opacity:1;stroke:#ffffff;stroke-width:6.636;stroke-dasharray:none;stroke-opacity:1;paint-order:markers stroke fill"
       d="m -353.98447,25.587537 c -17.53474,0.259447 -35.99837,10.375953 -49.03422,38.919588 -11.20012,38.548625 20.9263,84.688745 53.24429,115.144905 23.56771,-18.071 58.89656,-63.98821 46.87725,-118.789644 -1.81601,-14.977451 -25.45964,-35.654042 -51.08732,-35.274849 z m 3.87469,37.968225 a 16.531614,16.795286 0 0 1 16.53181,16.79484 16.531614,16.795286 0 0 1 -16.53181,16.795358 16.531614,16.795286 0 0 1 -16.5318,-16.795358 16.531614,16.795286 0 0 1 16.5318,-16.79484 z"
       inkscape:export-filename="location.svg"
       inkscape:export-xdpi="96"
       inkscape:export-ydpi="96" /></g></svg>
