<?xml version='1.0' encoding='utf-8'?>
<svg xmlns="http://www.w3.org/2000/svg" version="1.1" width="1080px" height="2132px" viewBox="0 0 1080 2132"> <g id="layer1"> <g style="fill:rgb(255,255,255); fill-opacity:1.0; stroke-linejoin: miter"> <path d="M-152.001,558.62134C-152.1012,558.62134,-152.19728,558.661,-152.26813,558.73193C-152.33897,558.80273,-152.37878,558.8988,-152.37878,558.999L-152.37778,1547.0C-152.37778,1547.2086,-152.20863,1547.3778,-152.0,1547.3778L1231.001,1547.3788C1231.1012,1547.3788,1231.1973,1547.3389,1231.2681,1547.2681C1231.3389,1547.1973,1231.3788,1547.1012,1231.3788,1547.001L1231.3778,559.0C1231.3778,558.7914,1231.2086,558.6223,1231.0,558.6223L-152.001,558.62134 Z"/> </g> <g style="fill:rgb(135,163,184); fill-opacity:1.0; stroke-linejoin: miter"> <path d="M1056.5824,1420.7561L1052.0901,1421.3281Q1020.1588,1423.0071,865.24805,1423.6515Q709.2653,1424.2921,497.89185,1423.5278Q296.16342,1422.7104,175.21968,1421.0325Q54.373207,1419.3455,77.21966,1417.5582Q109.15068,1415.879,264.0617,1415.2349Q420.0442,1414.5941,631.4179,1415.3583Q833.146,1416.176,954.0902,1417.8536Q992.84204,1418.395,1017.9287,1418.9786L1039.0134,1419.5658Q1056.389,1420.1602,1056.5824,1420.7561"/> </g> <g> <g style="fill:rgb(199,231,255); fill-opacity:1.0; stroke-linejoin: miter"> <path d="M192.75557,1416.1674L179.1524,1399.2186Q67.60727,1263.1399,87.624214,1208.6967Q93.99107,1180.7544,112.04057,1155.8092L168.3034,1086.3909Q173.92809,1080.7584,188.2162,1055.1522Q196.02562,1044.865,218.98468,956.5449Q226.86786,936.1346,239.29861,915.2336Q272.47385,861.2507,311.9139,821.8237Q384.8882,751.30786,617.2297,739.22186Q768.39685,733.07513,822.2238,806.9749Q830.34326,814.0528,853.0054,862.6541Q889.9238,964.8647,900.44867,980.1545Q910.16547,997.3968,921.8841,1012.27563Q1002.48364,1100.3197,1003.43243,1106.6693Q1024.013,1142.5966,1023.62427,1152.2465Q1044.3107,1216.3429,959.66296,1418.3229L192.75557,1416.1674"/> </g> <g style="fill:rgb(104,137,85); fill-opacity:1.0; stroke-linejoin: miter"> <path d="M470.65952,1180.7277L470.6368,1180.7278Q467.08652,1187.6266,464.2136,1189.4022Q445.21085,1200.1395,444.7756,1201.1904Q441.9437,1203.6783,438.37747,1213.9467Q437.34592,1215.8256,435.5931,1217.8367Q415.66663,1235.3341,407.56207,1245.006Q407.5952,1243.861,409.3836,1241.1885Q416.2072,1235.0479,417.0161,1233.4529Q419.46448,1229.4777,420.16565,1225.9678Q420.5998,1217.3618,419.9687,1213.1489Q415.98462,1190.1404,415.51642,1192.0945Q416.417,1197.6378,415.07452,1201.8986L412.89557,1207.1412Q409.05133,1213.4961,406.2975,1219.1564Q404.65607,1222.5947,404.5672,1223.6812Q403.35345,1227.5,407.14447,1238.804Q407.4823,1240.939,406.04156,1245.5491Q405.43024,1247.2169,404.5202,1248.5975Q398.23132,1256.3706,391.15424,1267.6273Q386.65497,1274.893,380.6133,1287.2064Q380.02213,1286.2289,380.56314,1282.3427Q384.7835,1272.8037,384.7937,1270.2881Q385.0871,1265.6501,384.5495,1263.0024Q383.301,1254.8378,367.1959,1233.3052Q369.49142,1236.9513,370.6641,1243.2219Q371.1108,1246.318,369.3096,1262.0579Q369.10153,1265.5923,369.47073,1267.7115Q370.22342,1270.5314,371.92447,1273.3715L377.63736,1280.4286Q379.29843,1284.7002,379.29153,1288.0297Q379.2219,1290.9282,378.811,1291.8401Q372.56375,1308.4805,371.68985,1313.5924Q369.1594,1323.7098,367.8491,1333.9272Q366.57455,1333.4121,363.88474,1329.3495Q361.10617,1313.465,355.73813,1308.8816Q350.5991,1302.9298,325.3256,1299.0331Q331.04947,1301.0864,333.2272,1303.8835Q334.6932,1304.6874,343.74966,1322.1289Q345.6235,1325.3431,346.78293,1326.2867Q348.4869,1327.9304,351.8759,1328.9182L361.04453,1330.1172Q364.8535,1332.4641,367.16165,1337.1425Q364.5002,1366.8868,372.89633,1398.9978Q372.18112,1399.0742,369.95834,1395.5293Q366.2007,1387.2592,363.04507,1383.0714Q358.61667,1377.9518,356.05594,1376.6665Q347.3159,1371.2834,323.26834,1371.2864Q329.64822,1372.4053,333.1783,1375.6464Q337.23,1378.9031,348.12125,1392.0948Q351.93234,1396.1655,353.57346,1397.0251Q357.78104,1399.8649,367.6331,1398.3391Q369.41183,1398.6006,373.11636,1401.2809L380.0502,1419.015L382.18692,1413.6643Q379.80496,1408.222,376.58817,1396.8407Q375.88937,1395.8485,376.91275,1392.7777Q378.43002,1388.5868,381.5413,1385.5394L390.8438,1380.6373Q393.84155,1378.7028,396.26648,1375.2638Q397.5611,1373.0243,398.33282,1369.7108Q400.5653,1361.3422,401.71875,1352.7941Q402.86377,1348.2396,403.96655,1345.2454Q405.56982,1340.3976,411.9757,1335.2544Q405.6765,1338.3617,389.9339,1349.8792Q383.08817,1355.7178,378.86606,1361.4086Q376.73276,1365.449,375.9434,1370.6716Q375.2618,1373.6348,376.9813,1385.9677Q376.72012,1389.8799,375.28226,1391.9358Q367.9398,1361.5702,372.10306,1331.3397Q375.21646,1324.6487,379.1489,1322.3016Q379.9045,1321.1803,389.45758,1319.7671Q394.42108,1317.78,395.97687,1316.0125Q397.64075,1314.2894,399.69348,1310.577Q407.3056,1295.02,410.38318,1291.1526Q413.4068,1287.4894,419.61755,1284.8308Q419.0561,1284.6041,414.5835,1286.0459L395.20618,1292.8754Q387.20038,1297.0387,383.60757,1300.0156Q381.56284,1301.8093,378.78574,1307.5481Q377.75662,1308.8837,375.92972,1321.2988Q374.97562,1323.9374,372.8301,1326.3317Q375.59744,1308.7976,381.42282,1294.0493Q383.64975,1287.7765,388.01068,1278.9965Q388.6363,1277.3481,391.00897,1276.0193Q393.57343,1274.4391,397.76648,1273.5104Q408.69446,1274.4865,414.00397,1271.9669Q415.5835,1271.8026,435.24768,1255.5608Q437.76758,1253.6599,446.39325,1252.0878Q415.67706,1253.0675,407.8329,1257.4065Q406.5166,1257.551,401.05457,1262.1722Q399.6239,1263.0046,394.0633,1271.8538Q391.51685,1274.629,390.12695,1275.0327Q400.61603,1254.7864,416.88605,1238.1437Q422.193,1235.1476,426.28186,1235.0563Q439.81665,1238.0873,443.9937,1236.3109L447.52216,1235.1382Q464.28555,1225.4202,468.76956,1223.8123Q473.69168,1222.5327,479.569,1222.7911Q450.0895,1218.3539,441.7131,1220.8069Q438.8229,1221.0066,432.72748,1224.7007Q430.96283,1225.5969,424.10327,1233.1008Q420.31128,1235.4701,419.5158,1235.3241Q427.30817,1227.0632,437.35715,1220.0288Q453.12344,1216.5889,455.92172,1212.396Q463.55533,1203.3575,470.65952,1180.7277 Z"/> </g> <g style="fill:rgb(10,30,46); fill-opacity:1.0; stroke-linejoin: miter"> <path d="M600.607,1210.916L607.10785,1231.5957C606.23944,1241.7344,605.8168,1251.0153,605.7635,1259.442L605.44476,1254.4202L600.607,1210.916 Z M593.95984,998.5602C572.714,998.50354,551.972,999.4855,529.96106,1002.5708L531.02374,1086.9906L542.88525,1173.8049L553.7118,1215.4019L559.12494,1310.0804L563.8449,1345.4985L566.0842,1388.8949L560.048,1398.6753L548.3923,1404.4125C543.7798,1405.7224,537.26544,1406.4243,528.8486,1406.514C527.23016,1407.5117,526.6105,1408.7551,527.18585,1410.171C528.4012,1413.1635,531.3642,1414.8792,535.764,1415.9363C539.49414,1416.8324,548.2649,1418.0406,562.2369,1418.3567C566.3906,1418.4508,570.20197,1418.4972,573.6696,1418.5063C585.8843,1418.539,593.8453,1418.1134,597.5655,1417.7054C603.1444,1417.092,606.90894,1415.7137,608.8262,1413.2415L605.9604,1387.3721L608.2685,1361.3505L605.2298,1345.3937L608.6324,1304.6512L608.42,1301.2983L608.4266,1301.3C609.483,1311.1755,610.889,1323.0286,612.67755,1336.8562L614.6901,1391.3834L612.855,1406.5413C612.9317,1411.539,612.45776,1415.1732,612.1856,1417.5724C611.98615,1419.3278,612.41876,1420.3276,612.5686,1420.6334C613.8855,1423.328,616.0872,1425.1055,619.3836,1425.262C622.39215,1425.4049,625.2289,1425.479,627.8954,1425.4861C647.3302,1425.538,657.6926,1422.0159,659.2003,1415.3975C659.45825,1414.2656,659.5623,1411.9022,657.95135,1408.7366C655.20197,1403.3368,651.47736,1396.4062,647.93506,1387.302L654.39276,1376.9667L657.8206,1348.3696L658.11487,1325.8395L655.8546,1257.7195L652.4409,1235.2449C651.8066,1211.8075,651.0083,1190.6093,650.0462,1171.6464L652.9495,1154.0581L662.0736,1079.0306L662.241,1003.4557L650.9597,1000.33215C630.83875,999.42456,612.2132,998.6089,593.95984,998.5602 Z"/> </g> <g style="fill:rgb(116,195,255); fill-opacity:1.0; stroke-linejoin: miter"> <path d="M661.89606,992.00977L666.24066,1080.8666Q587.34015,1124.5154,546.00684,1096.4646Q536.1287,1090.4331,519.6485,1076.0564Q528.0788,1044.9757,521.5948,934.0817Q500.42267,983.3071,475.54514,991.87366Q470.11148,992.6826,466.24112,989.4243Q465.01083,989.1582,460.0455,981.725Q455.9623,976.3463,446.37503,946.5357L476.5729,929.7647Q510.26172,853.0713,520.6268,852.3877Q521.94354,851.1521,527.7688,849.08923Q544.1066,846.7888,546.58923,844.3462Q553.38464,840.6892,563.4279,831.1489L615.4478,831.3403Q620.2729,838.4714,626.25226,840.7657Q630.72125,842.14514,632.5059,842.0759Q654.1695,841.5724,656.74817,843.07104Q664.41,844.8001,669.8202,850.3818Q674.9319,855.82074,679.13354,863.7885Q695.7433,899.8408,700.62354,905.11Q700.67883,908.0344,740.9248,949.66Q730.0083,970.8531,725.47723,973.66705Q718.491,979.7194,711.9792,977.0756Q699.92633,974.7503,665.9688,923.1371L661.89606,992.00977"/> </g> <g style="fill:rgb(255,190,157); fill-opacity:1.0; stroke-linejoin: miter"> <path d="M462.9268,956.7255L462.53122,958.06854Q459.7217,966.84344,460.3856,972.40717Q460.7902,977.3906,466.72464,986.35425L508.56116,1007.952Q509.2929,1017.55176,510.51215,1026.4431Q512.274,1038.7888,514.2158,1048.465Q518.42773,1068.8389,520.88116,1070.7935Q521.70593,1072.1113,523.39087,1071.2284Q524.59235,1070.6246,526.292,1065.6637Q529.0202,1056.0358,527.3282,1050.0219Q531.08356,1052.7673,531.5304,1050.8787Q531.7677,1050.1871,531.5613,1048.4719Q529.5818,1037.633,529.8143,1033.8917Q530.11566,1029.3259,530.5195,1028.5375L532.9872,1020.0204Q533.3368,1018.23193,533.2819,1016.24414Q533.4705,1010.44116,526.558,1001.2678Q523.61383,996.9248,510.8766,984.0187Q483.6061,957.6169,483.55533,958.7941Q478.9042,955.8426,475.81534,955.70123Q472.28098,955.0214,462.9268,956.7255"/> </g> <g style="fill:rgb(0,0,0); fill-opacity:1.0; stroke-linejoin: miter"> <path d="M619.3244,800.11835L552.9757,793.1593Q551.27594,771.4426,552.0785,765.9753Q552.6315,756.9316,556.2309,751.8309Q559.0136,747.2939,567.76794,744.01324Q584.9821,738.5701,593.6891,739.40485Q598.63965,739.88495,601.98157,742.6479Q604.43445,744.1639,609.3829,751.7646Q616.0989,751.9925,617.623,757.0142Q620.81494,763.0131,619.3244,800.11835"/> </g> <g style="fill:rgb(255,190,157); fill-opacity:1.0; stroke-linejoin: miter"> <path d="M727.0274,949.8481L727.387,951.20123Q729.9598,960.04767,729.1466,965.5926Q728.60846,970.5627,722.43524,979.3641L680.03394,999.83044Q679.04474,1009.40784,677.5866,1018.2632Q675.4939,1030.5566,673.2933,1040.1769Q668.53546,1060.4305,666.03076,1062.3176Q665.17084,1063.6135,663.5101,1062.6849Q662.3255,1062.05,660.7595,1057.0444Q658.2903,1047.3479,660.1433,1041.381Q656.3161,1044.0254,655.92017,1042.1251Q655.702,1041.4269,655.9541,1039.7185Q658.2237,1028.9358,658.09186,1025.1906Q657.9128,1020.61816,657.5305,1019.8192L655.2921,1011.23804Q654.99133,1009.44116,655.0992,1007.4558Q655.06647,1001.65027,662.22284,992.66516Q665.2821,988.40265,678.3616,975.8438Q706.33185,950.1828,706.35114,951.3614Q711.08,948.5357,714.1709,948.47833Q717.7223,947.8934,727.0274,949.8481"/> </g> <g style="fill:rgb(255,190,157); fill-opacity:1.0; stroke-linejoin: miter"> <path d="M591.8319,873.0751L568.7132,843.1736L567.6896,831.4614Q563.92346,828.8325,562.0221,825.4553Q559.7941,821.1178,558.3793,811.6266Q555.1479,811.39197,553.6474,808.9037Q552.3417,806.77783,551.7843,801.8042Q550.9503,792.1515,551.8254,788.4999Q552.5717,785.1127,555.6297,790.66345Q554.7242,782.9873,558.65106,780.62366Q558.9025,768.00305,560.6528,763.4515Q561.7908,760.6733,564.4106,760.27155Q575.3636,759.47455,580.01447,758.4372Q588.01514,756.9533,603.88293,753.08466Q614.1587,779.38983,615.746,792.1424Q619.82764,781.8549,621.3243,786.2789Q622.99414,792.10175,622.3508,800.7912Q621.8424,805.00006,620.3401,806.69244Q619.147,808.2492,616.318,809.3177Q615.74554,815.08716,614.501,818.57574Q613.4278,821.38116,611.16986,824.7978L591.8319,873.0751"/> </g> <g style="fill:rgb(255,0,0); fill-opacity:0.13333334; stroke-linejoin: miter"> <path d="M567.78845,831.3241L569.6645,832.3077Q578.113,836.75995,582.542,838.0463Q584.32227,838.6004,586.04816,838.9095L587.757,839.1431Q589.5826,839.3333,591.5112,839.09576Q593.29004,838.85223,594.97815,838.20294L596.64795,837.47064Q598.29663,836.6468,599.8805,835.5278Q603.8558,832.80365,610.5053,825.6287L592.17114,850.7516L567.78845,831.3241"/> </g> <g style="fill:rgb(0,0,0); fill-opacity:1.0; stroke-linejoin: miter"> <path d="M571.9515,803.6087L571.9515,803.6104L571.95123,803.6087L571.95184,803.6104 Z"/> </g> <g style="fill:rgb(255,255,255); fill-opacity:1.0; stroke-linejoin: miter"> <path d="M593.6471,787.5284L594.0296,787.2386Q595.17426,786.34235,596.34564,785.69244Q596.73694,785.4848,597.13434,785.332L597.5339,785.1961L597.93726,785.0948L598.3439,785.03033L598.6276,785.0096Q598.91235,784.99786,599.201,785.0219Q599.77826,785.07086,600.36755,785.2315Q601.1903,785.40594,603.4708,786.46783Q601.7157,787.2845,600.7228,787.6099Q600.3259,787.743,599.9251,787.8466L599.52277,787.9411Q599.11914,788.0268,598.7099,788.0717Q598.30066,788.1154,597.8852,788.118Q597.6804,788.13873,596.6295,788.05206Q595.57587,787.94696,593.6471,787.5284 Z"/> </g> <g style="fill:rgb(0,0,0); fill-opacity:1.0; stroke-linejoin: miter"> <path d="M600.3884,786.5933L600.37067,786.79913Q600.24756,787.4212,599.6599,787.7924Q599.0676,788.163,598.2673,788.0904Q597.50323,787.9893,597.0469,787.5107Q596.9002,787.35565,596.8057,787.1729L596.7265,786.98505Q596.6613,786.79205,596.66113,786.58185Q596.6833,785.9368,597.21027,785.5103Q597.7373,785.0837,598.5291,785.06976Q599.3209,785.0887,599.84564,785.5184Q600.3703,785.9483,600.3884,786.5933 Z"/> </g> <g style="fill:rgb(0,0,0); fill-opacity:1.0; stroke-linejoin: miter"> <path d="M592.99384,780.73566L592.99384,780.7359L605.4639,778.46Q606.898,780.17706,608.3319,781.8946Q606.4511,780.87604,604.56964,779.85785L592.99384,780.73566 Z"/> </g> <g style="fill:rgb(0,0,0); fill-opacity:1.0; stroke-linejoin: miter"> <path d="M605.61896,800.7673L605.61896,800.7681L605.61896,800.768L605.61896,800.7673 Z"/> </g> <g style="fill:rgb(255,255,255); fill-opacity:1.0; stroke-linejoin: miter"> <path d="M577.1263,786.96246L576.7096,786.7242Q575.45984,785.9827,574.2145,785.4882Q573.7997,785.3327,573.38617,785.23175L572.9723,785.14813L572.55945,785.0992L572.14777,785.0877L571.86365,785.1036Q571.5798,785.12885,571.29663,785.18866Q570.7304,785.3118,570.1668,785.5467Q569.3728,785.82526,567.2476,787.1708Q569.0929,787.7553,570.11957,787.95074Q570.5303,788.03253,570.9413,788.08344L571.3522,788.12555Q571.76324,788.1586,572.1751,788.15106Q572.5866,788.1419,572.99866,788.0909Q573.20447,788.08563,574.2356,787.86444Q575.2671,787.6248,577.1263,786.96246 Z"/> </g> <g style="fill:rgb(0,0,0); fill-opacity:1.0; stroke-linejoin: miter"> <path d="M570.321,786.89996L570.3649,787.1016Q570.5664,787.7021,571.197,787.9954Q571.832,788.2879,572.61664,788.1126Q573.36127,787.9146,573.7526,787.3803Q573.8778,787.2082,573.94806,787.0147L574.00287,786.81903Q574.0426,786.61884,574.0157,786.41046Q573.9111,785.7735,573.33356,785.4183Q572.7561,785.0629,571.9686,785.15045Q571.1861,785.27094,570.72125,785.76447Q570.25604,786.2576,570.321,786.89996 Z"/> </g> <g style="fill:rgb(0,0,0); fill-opacity:1.0; stroke-linejoin: miter"> <path d="M576.9027,780.142L576.90295,780.1424L564.24396,779.4852Q563.0417,781.3723,561.8403,783.2594Q563.575,782.0083,565.3101,780.75696L576.9027,780.142 Z"/> </g> <g style="fill:rgb(255,163,139); fill-opacity:1.0; stroke-linejoin: miter"> <path d="M579.17944,803.7802L587.3522,805.11066L594.2418,802.2292L587.6084,807.5444L579.17944,803.7802 Z"/> </g> <g style="fill:rgb(255,163,139); fill-opacity:1.0; stroke-linejoin: miter"> <path d="M577.0299,816.03613L577.7214,816.20667Q581.8719,817.2051,583.29553,817.32117Q585.4695,817.599,587.4895,817.4551Q588.3953,817.3871,589.317,817.23535L590.2418,817.0658Q591.17004,816.8773,592.1098,816.6266Q594.4555,816.01624,598.7655,814.44434L587.00964,813.4905L577.0299,816.03613 Z"/> </g> <g style="fill:rgb(255,255,255); fill-opacity:1.0; stroke-linejoin: miter"> <path d="M579.877,816.2129L580.6589,816.20764Q585.80414,816.1957,588.6612,815.96936Q591.25085,815.78284,595.0454,814.98315L579.877,816.2129 Z"/> </g> <g style="fill:rgb(0,0,0); fill-opacity:1.0; stroke-linejoin: miter"> <path d="M648.6221,1386.2024L614.6638,1390.6666L614.6901,1391.3834L612.855,1406.5413C612.9317,1411.539,612.45776,1415.1732,612.1856,1417.5724C611.98615,1419.3278,612.41876,1420.3276,612.5686,1420.6334C613.8855,1423.328,616.0872,1425.1055,619.3836,1425.262C622.39215,1425.4049,625.2289,1425.479,627.8954,1425.4861C647.3302,1425.538,657.6926,1422.0159,659.2003,1415.3975C659.45825,1414.2656,659.5623,1411.9022,657.95135,1408.7366C655.20197,1403.3368,651.47736,1396.4062,647.93506,1387.302L648.6221,1386.2024 Z"/> </g> <g style="fill:rgb(0,0,0); fill-opacity:1.0; stroke-linejoin: miter"> <path d="M606.0493,1388.1737L565.2378,1390.2655L560.048,1398.6753L548.3923,1404.4125C543.7798,1405.7224,537.26544,1406.4243,528.8486,1406.514C527.23016,1407.5117,526.6105,1408.7551,527.18585,1410.171C528.4012,1413.1635,531.3642,1414.8792,535.764,1415.9363C539.49414,1416.8324,548.2649,1418.0406,562.2369,1418.3567C566.3906,1418.4508,570.20197,1418.4972,573.6696,1418.5063C585.8843,1418.539,593.8453,1418.1134,597.5655,1417.7054C603.1444,1417.092,606.90894,1415.7137,608.8262,1413.2415L606.0493,1388.1737 Z"/> </g> <g style="fill:rgb(0,0,0); fill-opacity:1.0; stroke-linejoin: miter"> <path d="M664.27563,1028.136L664.3391,1028.2798Q664.51044,1028.6731,664.5869,1028.825Q664.7777,1029.1832,664.9105,1029.3735L664.27795,1028.136L664.27563,1028.1366"/> </g> <g> <g style="fill:rgb(146,159,168); fill-opacity:1.0; stroke-linejoin: miter"> <path d="M582.1076,1055.8052L573.0174,1039.0922L563.9272,1022.3773Q577.811,1014.827,591.69434,1007.27454Q600.785,1023.98816,609.87573,1040.7023L582.1076,1055.8052"/> </g> <g style="fill:rgb(253,217,8); fill-opacity:1.0; stroke-linejoin: miter"> <path d="M528.0314,1030.3688L528.4244,1021.3855Q532.08026,994.17773,552.5157,977.4367Q573.09576,960.7055,601.5715,963.11017Q628.78033,966.7653,645.52075,987.2Q650.8855,993.80676,654.4429,1001.66394L657.4674,1009.7551Q659.9997,1018.1207,660.23944,1027.273Q660.1876,1055.3809,641.9713,1074.471Q623.75507,1093.5592,595.68195,1094.926Q567.5747,1094.8739,548.48584,1076.658Q529.3977,1058.443,528.0314,1030.3688 Z"/> </g> <g style="fill:rgb(238,170,1); fill-opacity:1.0; stroke-linejoin: miter"> <path d="M538.375,1029.9606L538.7082,1022.38306Q541.79156,999.43286,559.02826,985.31116Q576.3877,971.19904,600.40717,973.22723Q623.3566,976.3111,637.4767,993.548Q642.0018,999.121,645.00165,1005.7483L647.5544,1012.5737Q649.6891,1019.62854,649.89276,1027.35Q649.84875,1051.0581,634.48346,1067.1598Q619.118,1083.262,595.43713,1084.4143Q571.7299,1084.3705,555.6289,1069.0059Q539.5281,1053.6389,538.375,1029.9606 Z"/> </g> <g style="fill:rgb(255,183,13); fill-opacity:1.0; stroke-linejoin: miter"> <path d="M539.7373,1029.9062L540.0618,1022.5143Q543.07074,1000.12524,559.8862,986.34985Q576.8213,972.58185,600.25354,974.56036Q622.6422,977.5682,636.4176,994.3854Q640.83154,999.82227,643.7591,1006.28564L646.24817,1012.94495Q648.3311,1019.828,648.52954,1027.3604Q648.48737,1050.4893,633.4965,1066.1969Q618.5075,1081.9061,595.4047,1083.0305Q572.2776,1082.9874,556.5701,1067.9982Q540.8629,1053.0077,539.7373,1029.9062 Z"/> </g> <g style="fill:rgb(238,170,1); fill-opacity:1.0; stroke-linejoin: miter"> <path d="M588.3738,991.7185L588.42834,997.3258Q583.7599,999.29736,580.8716,1003.5106Q577.98376,1007.723,578.0361,1013.07983Q578.06964,1016.5116,579.43866,1019.595Q580.8069,1022.5956,583.0883,1024.8328Q585.3708,1027.0706,588.4803,1028.3794Q591.5061,1029.6891,594.9379,1029.6556L595.4406,1029.6508Q596.44604,1029.8087,597.1225,1030.555Q597.79987,1031.3019,597.8106,1032.3899Q597.82166,1033.5618,596.9925,1034.4059Q596.1643,1035.2518,594.99225,1035.2626Q593.82074,1035.2736,592.9758,1034.4459Q592.13086,1033.6168,592.11896,1032.4456L578.2265,1032.5814Q578.2528,1035.2587,579.11316,1037.6783Q579.8893,1040.0148,581.33203,1042.0931Q582.69086,1044.0885,584.63116,1045.6603Q586.57104,1047.148,588.9233,1048.0457L588.98566,1054.4059L603.0461,1054.2703L602.9767,1047.1556Q606.972,1044.9393,609.3612,1040.9828Q611.7511,1037.1086,611.7036,1032.2544Q611.67017,1028.8228,610.3011,1025.7396Q608.9324,1022.7394,606.6502,1020.5021Q604.369,1018.26416,601.2591,1016.9553Q598.23315,1015.6456,594.80164,1015.6787L594.2995,1015.6841Q593.29364,1015.52637,592.6159,1014.6958Q591.93896,1013.9485,591.92944,1012.9441Q591.918,1011.7721,592.74524,1010.8441Q593.5742,1009.99927,594.74603,1009.9868Q595.9178,1009.9761,596.764,1010.8883Q597.60846,1011.71704,597.6199,1012.8894L611.5135,1012.754Q611.4664,1007.8992,608.9998,1003.98987Q606.53455,1000.0786,602.49634,997.94214L602.4347,991.5813 Z"/> </g> <g style="fill:rgb(253,217,8); fill-opacity:1.0; stroke-linejoin: miter"> <path d="M587.2031,992.43335L587.25726,998.0409Q582.5896,1000.0121,579.70184,1004.225Q576.81323,1008.4385,576.8651,1013.7948Q576.8987,1017.2257,578.26776,1020.3093Q579.63684,1023.3092,581.9186,1025.5466Q584.2001,1027.7853,587.30963,1029.0936Q590.3352,1030.4039,593.76715,1030.3698L594.26935,1030.3655Q595.2756,1030.5232,595.9525,1031.2692Q596.6287,1032.0166,596.6399,1033.1035Q596.65106,1034.2759,595.82227,1035.1215Q594.99347,1035.9664,593.822,1035.9773Q592.6498,1035.989,591.8053,1035.1603Q590.9599,1034.3317,590.9486,1033.1597L577.0557,1033.2955Q577.0819,1035.9735,577.9427,1038.3921Q578.71826,1040.7284,580.1614,1042.807Q581.5205,1044.804,583.46075,1046.3743Q585.40063,1047.8618,587.753,1048.76L587.81537,1055.1205L601.8755,1054.984L601.8061,1047.8696Q605.80194,1045.6536,608.1905,1041.6969Q610.58044,1037.8235,610.53284,1032.9691Q610.5,1029.538,609.1298,1026.454Q607.7615,1023.4541,605.48004,1021.21655Q603.1979,1018.9784,600.0881,1017.66943Q597.06226,1016.3596,593.63074,1016.3937L593.1287,1016.3993Q592.1227,1016.24023,591.4453,1015.41003Q590.7684,1014.66284,590.75824,1013.6588Q590.7468,1012.48755,591.5746,1011.5586Q592.4042,1010.713,593.5755,1010.70215Q594.7467,1010.6897,595.5924,1011.60254Q596.43774,1012.431,596.4495,1013.60364L610.3427,1013.4691Q610.29535,1008.6139,607.82983,1004.7042Q605.364,1000.7938,601.3254,998.65686L601.26324,992.2954 Z"/> </g> </g> <g> <g style="fill:rgb(146,159,168); fill-opacity:1.0; stroke-linejoin: miter"> <path d="M424.16388,1210.6649L415.0738,1193.9519L405.98358,1177.2373Q419.86737,1169.6866,433.7506,1162.1342Q442.84134,1178.848,451.93204,1195.562L424.16388,1210.6649"/> </g> <g style="fill:rgb(253,217,8); fill-opacity:1.0; stroke-linejoin: miter"> <path d="M370.08783,1185.2285L370.4807,1176.2451Q374.13666,1149.0372,394.57214,1132.2966Q415.15216,1115.5653,443.62766,1117.9697Q470.83652,1121.625,487.57693,1142.0598Q492.94165,1148.6665,496.49902,1156.5238L499.52356,1164.6152Q502.0559,1172.9805,502.2956,1182.1327Q502.24384,1210.2407,484.0275,1229.3309Q465.81143,1248.4193,437.73834,1249.786Q409.63098,1249.7338,390.5423,1231.518Q371.45404,1213.3025,370.08783,1185.2285 Z"/> </g> <g style="fill:rgb(238,170,1); fill-opacity:1.0; stroke-linejoin: miter"> <path d="M380.4314,1184.8203L380.7646,1177.2428Q383.8479,1154.2925,401.08472,1140.1711Q418.44403,1126.0591,442.4634,1128.0872Q465.41293,1131.1709,479.533,1148.4077Q484.05795,1153.9808,487.05783,1160.6082L489.61057,1167.4337Q491.74542,1174.4885,491.94897,1182.2102Q491.90497,1205.9182,476.53964,1222.0195Q461.1744,1238.1218,437.49353,1239.2742Q413.7862,1239.2302,397.68524,1223.8658Q381.5844,1208.4988,380.4314,1184.8203 Z"/> </g> <g style="fill:rgb(255,183,13); fill-opacity:1.0; stroke-linejoin: miter"> <path d="M381.79364,1184.766L382.11823,1177.3739Q385.12708,1154.9849,401.94257,1141.2096Q418.87762,1127.4415,442.31003,1129.4202Q464.69852,1132.428,478.4738,1149.245Q482.8878,1154.6823,485.81534,1161.1455L488.30435,1167.8046Q490.38742,1174.6879,490.5858,1182.2202Q490.5436,1205.3491,475.5527,1221.0568Q460.56387,1236.766,437.46118,1237.8903Q414.33392,1237.847,398.62665,1222.858Q382.91925,1207.8674,381.79364,1184.766 Z"/> </g> <g style="fill:rgb(238,170,1); fill-opacity:1.0; stroke-linejoin: miter"> <path d="M430.43005,1146.5781L430.48468,1152.1854Q425.81628,1154.1573,422.9278,1158.3704Q420.04004,1162.583,420.09235,1167.9396Q420.12592,1171.3715,421.495,1174.4546Q422.86316,1177.4553,425.1446,1179.6926Q427.42712,1181.9304,430.53668,1183.2393Q433.56244,1184.549,436.9943,1184.5156L437.49686,1184.5109Q438.50235,1184.6688,439.17892,1185.4148Q439.85617,1186.1619,439.8669,1187.2498Q439.87808,1188.4216,439.04892,1189.2657Q438.2206,1190.1115,437.04874,1190.1223Q435.87717,1190.1333,435.03204,1189.3055Q434.1872,1188.4767,434.17517,1187.3054L420.28284,1187.4413Q420.30908,1190.1183,421.1695,1192.5383Q421.94556,1194.8745,423.3885,1196.9528Q424.74713,1198.9484,426.68756,1200.5199Q428.62738,1202.0077,430.97968,1202.9054L431.04193,1209.2655L445.10245,1209.1301L445.03305,1202.0154Q449.0283,1199.7991,451.41745,1195.8425Q453.8074,1191.9685,453.75986,1187.1143Q453.7266,1183.6825,452.3574,1180.5996Q450.98868,1177.5991,448.70663,1175.3617Q446.4252,1173.1239,443.31534,1171.815Q440.28946,1170.5055,436.858,1170.5383L436.35593,1170.5436Q435.34995,1170.386,434.67224,1169.5553Q433.99518,1168.8082,433.98584,1167.8037Q433.97437,1166.6317,434.80145,1165.7036Q435.63058,1164.8593,436.80252,1164.8467Q437.9742,1164.8359,438.82047,1165.7479Q439.66476,1166.5767,439.6763,1167.7491L453.56967,1167.6136Q453.5226,1162.759,451.05618,1158.8496Q448.59085,1154.9384,444.55264,1152.8018L444.49106,1146.4412 Z"/> </g> <g style="fill:rgb(253,217,8); fill-opacity:1.0; stroke-linejoin: miter"> <path d="M429.25946,1147.293L429.31354,1152.9005Q424.64594,1154.872,421.75812,1159.0847Q418.8695,1163.2983,418.9214,1168.6543Q418.95502,1172.0852,420.32397,1175.1691Q421.6931,1178.1692,423.97485,1180.4064Q426.25635,1182.6453,429.36603,1183.9535Q432.3916,1185.2638,435.82364,1185.2297L436.32584,1185.2253Q437.33194,1185.383,438.00888,1186.1289Q438.6852,1186.8765,438.6962,1187.9634Q438.7075,1189.1356,437.87863,1189.9812Q437.04977,1190.8259,435.87845,1190.837Q434.70612,1190.8488,433.86163,1190.02Q433.0161,1189.1915,433.00488,1188.0194L419.112,1188.1553Q419.1383,1190.8331,419.9989,1193.2517Q420.77466,1195.588,422.21753,1197.6669Q423.57678,1199.6637,425.51715,1201.2341Q427.45703,1202.7217,429.8094,1203.6198L429.87177,1209.9803L443.93167,1209.844L443.8624,1202.7296Q447.85837,1200.5131,450.24686,1196.5565Q452.6368,1192.6833,452.5892,1187.8289Q452.55643,1184.3977,451.1862,1181.3138Q449.8179,1178.3138,447.53635,1176.0764Q445.25418,1173.8384,442.14444,1172.529Q439.11868,1171.2194,435.68716,1171.2535L435.18494,1171.259Q434.17902,1171.0999,433.50153,1170.2698Q432.82465,1169.5227,432.8145,1168.5183Q432.80304,1167.3474,433.63086,1166.4183Q434.46045,1165.5726,435.63187,1165.5616Q436.803,1165.5493,437.6487,1166.4623Q438.49417,1167.2908,438.5059,1168.4633L452.39914,1168.3289Q452.35178,1163.4739,449.8862,1159.5638Q447.42026,1155.6536,443.3818,1153.5166L443.31967,1147.1552 Z"/> </g> </g> <g style="fill:rgb(104,137,85); fill-opacity:1.0; stroke-linejoin: miter"> <path d="M305.87283,1168.7902L305.85196,1168.7991Q305.20633,1176.5308,303.2297,1179.2692Q289.77,1196.4514,289.76926,1197.5891Q288.10245,1200.9701,288.72934,1211.8218Q288.49393,1213.9523,287.64243,1216.4806Q275.91162,1240.2631,272.11658,1252.2979Q271.70984,1251.2268,272.3416,1248.074Q276.30176,1239.7921,276.44,1238.0088Q277.18414,1233.4003,276.49146,1229.8887Q273.6049,1221.7694,271.41214,1218.1171Q258.94064,1198.3756,259.2543,1200.3602Q262.2043,1205.1393,262.59134,1209.5897L262.58035,1215.2668Q261.45547,1222.6084,261.07275,1228.8916Q260.8695,1232.6965,261.2024,1233.7344Q261.53967,1237.7269,269.3614,1246.7257Q270.4892,1248.5697,270.91882,1253.3805Q270.99103,1255.1554,270.6775,1256.7788Q267.83496,1266.3646,265.59503,1279.4712Q264.2126,1287.9048,263.3332,1301.5924Q262.41345,1300.9149,261.4287,1297.1166Q261.685,1286.6886,260.7334,1284.3602Q259.23267,1279.9617,257.7244,1277.7203Q253.45148,1270.6516,230.34206,1256.9043Q233.85645,1259.3972,237.33562,1264.7441Q238.93123,1267.4348,243.27962,1282.6691Q244.43744,1286.0149,245.58824,1287.8325Q247.36107,1290.151,250.01811,1292.1259L257.99368,1296.4651Q261.16064,1299.7786,262.4261,1302.858Q263.46912,1305.5632,263.43774,1306.5631Q264.02136,1324.3281,265.1665,1329.3864Q266.69305,1339.7029,269.3853,1349.6462Q268.01062,1349.6569,263.97284,1346.9299Q255.33685,1333.3116,248.62498,1331.1262Q241.60207,1327.5891,216.75688,1333.6423Q222.8311,1333.3535,225.91222,1335.1067Q227.57408,1335.2894,242.60643,1347.9486Q245.56613,1350.2031,246.99814,1350.6323Q249.20078,1351.5004,252.7102,1351.1189L261.6413,1348.7245Q266.05798,1349.4384,269.9784,1352.8798Q278.88165,1381.3853,298.9081,1407.8538Q298.27628,1408.1978,294.86783,1405.7705Q288.23587,1399.563,283.71973,1396.8986Q277.67133,1393.8589,274.81378,1393.6493Q264.68024,1392.013,242.45784,1401.202Q248.78123,1399.7991,253.28175,1401.446Q258.2703,1402.9077,273.37488,1410.9387Q278.4519,1413.2446,280.297,1413.4121Q285.27026,1414.4293,293.7924,1409.2557Q295.53604,1408.8177,299.98355,1409.8795L313.16623,1423.62L313.09683,1417.859Q308.8165,1413.7394,301.49576,1404.4498Q300.47098,1403.7998,300.24356,1400.571Q300.04465,1396.1183,301.756,1392.1135L308.48026,1384.0293Q310.51144,1381.0966,311.4388,1376.9917Q311.77975,1374.4277,311.22708,1371.0707Q310.0933,1362.4841,307.8936,1354.1433Q307.21194,1349.4971,307.08725,1346.3086Q306.717,1341.2161,310.6722,1334.0159Q306.03775,1339.2935,295.88913,1355.9515Q291.793,1363.9625,290.0651,1370.8345Q289.63712,1375.3837,290.90286,1380.5118Q291.40494,1383.5104,297.7053,1394.2515Q298.9586,1397.9668,298.41513,1400.4159Q280.02942,1375.1581,272.3282,1345.6296Q272.64935,1338.2566,275.3869,1334.5852Q275.65686,1333.2604,283.9455,1328.3053Q287.77344,1324.573,288.53598,1322.3446Q289.41544,1320.117,289.8942,1315.9019Q290.98605,1298.6168,292.35275,1293.867Q293.74753,1289.3262,298.47165,1284.497Q297.86618,1284.5021,294.28354,1287.5427L278.98474,1301.257Q273.17676,1308.1628,270.99365,1312.2864Q269.78918,1314.7251,269.41516,1321.0896Q268.97424,1322.7169,272.02875,1334.8885Q272.15503,1337.6913,271.0869,1340.7238Q266.94604,1323.4624,266.69537,1307.6069Q266.35718,1300.9592,267.03308,1291.1791Q266.98157,1289.4169,268.66663,1287.2822Q270.43298,1284.8423,273.9533,1282.3824Q284.42523,1279.11,288.36954,1274.7532Q289.7665,1273.9978,301.73447,1251.4757Q303.337,1248.7561,310.70804,1244.0085Q282.69574,1256.6481,277.1042,1263.6543Q275.94275,1264.2906,272.66034,1270.6481Q271.65625,1271.9639,269.898,1282.2657Q268.60492,1285.8035,267.47467,1286.7075Q269.43372,1263.9896,278.11188,1242.394Q281.87164,1237.5975,285.61548,1235.9512Q299.2817,1233.582,302.4633,1230.3446L305.2761,1227.9127Q317.05576,1212.5281,320.58542,1209.3293Q324.64554,1206.2666,330.1757,1204.26Q301.2369,1211.4207,294.43283,1216.8873Q291.83804,1218.176,287.61624,1223.9186Q286.32785,1225.4211,282.85516,1234.9763Q280.25598,1238.6145,279.46497,1238.7836Q283.51068,1228.1725,290.10995,1217.8323Q303.36655,1208.6309,304.35074,1203.687Q307.9526,1192.4176,305.87283,1168.7902 Z"/> </g> <g> <g style="fill:rgb(146,159,168); fill-opacity:1.0; stroke-linejoin: miter"> <path d="M274.34018,1214.2186L259.55502,1202.2462L244.7688,1190.2711Q254.71513,1177.9895,264.6602,1165.7062Q279.44644,1177.6798,294.23282,1189.6534L274.34018,1214.2186"/> </g> <g style="fill:rgb(253,217,8); fill-opacity:1.0; stroke-linejoin: miter"> <path d="M214.64862,1211.3693L211.57986,1202.9171Q204.56468,1176.3761,217.05476,1153.0983Q229.68211,1129.7744,256.91656,1121.1183Q283.45798,1114.1023,306.7352,1126.5919Q314.21695,1130.648,320.50613,1136.5505L326.39236,1142.8728Q331.9283,1149.6364,335.6462,1158.0029Q346.33627,1183.9993,336.79434,1208.6003Q327.25192,1233.2,301.83017,1245.1874Q275.83478,1255.8767,251.23499,1246.3342Q226.636,1236.7922,214.64862,1211.3693 Z"/> </g> <g style="fill:rgb(238,170,1); fill-opacity:1.0; stroke-linejoin: miter"> <path d="M224.05164,1207.0406L221.46483,1199.9106Q215.54688,1177.5231,226.08157,1157.8877Q236.73315,1138.2146,259.7056,1130.9131Q282.09244,1124.9957,301.7263,1135.5316Q308.0372,1138.9534,313.34128,1143.9319L318.30783,1149.2643Q322.97586,1154.9689,326.1138,1162.0271Q335.1301,1183.9539,327.08133,1204.7043Q319.0328,1225.4551,297.5881,1235.5663Q275.66223,1244.5822,254.91289,1236.5339Q234.16289,1228.483,224.05164,1207.0406 Z"/> </g> <g style="fill:rgb(255,183,13); fill-opacity:1.0; stroke-linejoin: miter"> <path d="M225.28983,1206.47L222.76585,1199.5146Q216.9935,1177.6743,227.27109,1158.5198Q237.66202,1139.3267,260.07297,1132.2035Q281.91245,1126.4303,301.06747,1136.71Q307.22366,1140.0485,312.39835,1144.9031L317.2424,1150.1063Q321.79715,1155.672,324.85794,1162.5574Q333.65463,1183.9482,325.80148,1204.1917Q317.95053,1224.435,297.02957,1234.3Q275.64,1243.095,255.39793,1235.2429Q235.15521,1227.3896,225.28983,1206.47 Z"/> </g> <g style="fill:rgb(238,170,1); fill-opacity:1.0; stroke-linejoin: miter"> <path d="M255.64879,1152.5984L257.84125,1157.7596Q254.28014,1161.3652,253.22043,1166.3623Q252.16095,1171.3586,254.25568,1176.2892Q255.59776,1179.448,258.04077,1181.7743Q260.45145,1184.0247,263.41458,1185.2208Q266.3788,1186.4166,269.75253,1186.4385Q273.04898,1186.4929,276.20792,1185.151L276.67044,1184.9546Q277.66006,1184.7164,278.57034,1185.1476Q279.48172,1185.5795,279.90714,1186.5807Q280.36508,1187.6592,279.92142,1188.7561Q279.4789,1189.8541,278.40012,1190.3119Q277.32162,1190.7695,276.22452,1190.3275Q275.12698,1189.884,274.66843,1188.806L261.88156,1194.2388Q262.92862,1196.703,264.64822,1198.6107Q266.25797,1200.4734,268.38535,1201.843Q270.4033,1203.168,272.79678,1203.8793Q275.15793,1204.5132,277.67477,1204.4442L280.16202,1210.2982L293.10434,1204.8016L290.3223,1198.2528Q293.16788,1194.6783,293.8644,1190.1091Q294.593,1185.6161,292.69467,1181.1482Q291.35287,1177.989,288.90982,1175.6632Q286.4988,1173.4131,283.535,1172.2172Q280.5718,1171.0205,277.19772,1170.9993Q273.9011,1170.9447,270.74246,1172.2861L270.28043,1172.4825Q269.29062,1172.7216,268.34695,1172.2126Q267.43582,1171.7804,267.04343,1170.8561Q266.58505,1169.7772,266.99496,1168.6038Q267.43845,1167.5067,268.51675,1167.0472Q269.5955,1166.5896,270.7261,1167.1093Q271.8229,1167.5527,272.28134,1168.6318L285.0693,1163.1989Q283.17117,1158.7302,279.39835,1156.0597Q275.62595,1153.387,271.07773,1152.9551L268.59085,1147.1005 Z"/> </g> <g style="fill:rgb(253,217,8); fill-opacity:1.0; stroke-linejoin: miter"> <path d="M254.84007,1153.7064L257.0322,1158.8679Q253.47166,1162.4728,252.41225,1167.4694Q251.3524,1172.4667,253.44653,1177.3969Q254.78831,1180.5549,257.23148,1182.8818Q259.6428,1185.1312,262.60617,1186.3274Q265.56985,1187.5247,268.94345,1187.5455Q272.24008,1187.6007,275.39877,1186.2583L275.8613,1186.0624Q276.8513,1185.8239,277.76187,1186.2546Q278.67245,1186.6873,279.09787,1187.6874Q279.55618,1188.7666,279.11313,1189.8645Q278.6699,1190.9619,277.59164,1191.4193Q276.5126,1191.8782,275.41568,1191.4348Q274.31784,1190.9921,273.85965,1189.9132L261.07242,1195.3462Q262.11972,1197.811,263.83902,1199.7174Q265.4484,1201.5802,267.57608,1202.9501Q269.595,1204.2761,271.988,1204.9861Q274.34915,1205.6201,276.86612,1205.5511L279.3536,1211.4059L292.2952,1205.9087L289.51334,1199.3601Q292.35947,1195.7852,293.05533,1191.2162Q293.78433,1186.7238,291.88583,1182.2556Q290.54465,1179.0974,288.10037,1176.7709Q285.6898,1174.5209,282.72647,1173.3246Q279.76236,1172.128,276.3884,1172.1062Q273.09195,1172.0519,269.93362,1173.3944L269.47165,1173.5913Q268.48117,1173.8285,267.53787,1173.3198Q266.62692,1172.8881,266.23398,1171.9637Q265.77603,1170.8861,266.18613,1169.7112Q266.62967,1168.6127,267.70804,1168.1553Q268.78568,1167.6965,269.91605,1168.217Q271.01376,1168.6597,271.47256,1169.7389L284.26083,1164.3074Q282.36215,1159.8383,278.59,1157.1667Q274.81735,1154.4951,270.26877,1154.063L267.78116,1148.2078 Z"/> </g> </g> <g style="fill:rgb(104,137,85); fill-opacity:1.0; stroke-linejoin: miter"> <path d="M949.4145,1189.8204L949.3919,1189.8188Q945.40826,1196.4766,942.42786,1198.0652Q922.778,1207.567,922.2767,1208.588Q919.2916,1210.89,915.0768,1220.9093Q913.9274,1222.7186,912.0498,1224.6138Q891.04663,1240.8027,882.3407,1249.9371Q882.4469,1248.7964,884.40234,1246.2435Q891.6043,1240.5515,892.5133,1239.011Q895.21063,1235.2008,896.13464,1231.7429Q897.11743,1223.1821,896.7568,1218.9376Q894.2503,1195.7216,893.658,1197.6416Q894.2028,1203.2314,892.59106,1207.3975L890.08167,1212.4902Q885.8394,1218.5867,882.72986,1224.0596Q880.8721,1227.3861,880.71405,1228.4646Q879.25903,1232.1981,882.32007,1243.7211Q882.5209,1245.8732,880.7886,1250.3821Q880.07196,1252.0072,879.0758,1253.3269Q872.30334,1260.6823,864.5219,1271.4644Q859.5676,1278.4275,852.7519,1290.3302Q852.22437,1289.3171,853.0126,1285.4729Q857.8335,1276.2233,858.0044,1273.7134Q858.5933,1269.1036,858.22595,1266.4269Q857.50146,1258.1992,842.8045,1235.6821Q844.86255,1239.4673,845.6322,1245.8Q845.8803,1248.9182,843.0774,1264.511Q842.6439,1268.0249,842.87726,1270.1635Q843.4481,1273.0256,844.96436,1275.9681L850.215,1283.3759Q851.59985,1287.7454,851.3803,1291.0673Q851.12555,1293.9554,850.6575,1294.8395Q843.36005,1311.0468,842.1614,1316.0924Q838.9898,1326.0276,837.0298,1336.1404Q835.79065,1335.545,833.3659,1331.3187Q831.6074,1315.2892,826.5433,1310.3727Q821.7948,1304.1049,796.8219,1298.6014Q802.4029,1301.0166,804.39764,1303.947Q805.80927,1304.8429,813.73315,1322.8271Q815.398,1326.1547,816.4949,1327.1703Q818.09015,1328.9193,821.4091,1330.1218L830.48236,1331.9036Q834.13367,1334.4886,836.1383,1339.3054Q831.5826,1368.8188,837.9107,1401.4006Q837.1921,1401.4314,835.2001,1397.7517Q831.97845,1389.2583,829.09674,1384.8778Q825.00433,1379.4854,822.531,1378.0394Q814.15265,1372.1089,790.154,1370.5759Q796.44946,1372.1001,799.7653,1375.5602Q803.6007,1379.0691,813.6271,1392.9297Q817.1703,1397.235,818.7532,1398.1979Q822.7708,1401.3005,832.7001,1400.407Q834.4586,1400.7816,837.98444,1403.6931L843.7713,1421.8341L846.24536,1416.6305Q844.2159,1411.0472,841.7326,1399.4838Q841.09863,1398.4489,842.3161,1395.4497Q844.0979,1391.3641,847.3974,1388.5219L856.99396,1384.2236Q860.10925,1382.4847,862.74896,1379.2075Q864.18384,1377.0554,865.16565,1373.7979Q867.9281,1365.589,869.6251,1357.132Q871.0586,1352.6597,872.35046,1349.7423Q874.25995,1345.0066,880.98126,1340.2833Q874.4966,1342.9816,858.05066,1353.4706Q850.8459,1358.86,846.26904,1364.2692Q843.88196,1368.165,842.7605,1373.327Q841.8911,1376.2404,842.81934,1388.658Q842.3087,1392.5454,840.74274,1394.5054Q835.35474,1363.7327,841.4402,1333.83Q844.97473,1327.3516,849.04895,1325.2603Q849.8745,1324.1896,859.4984,1323.3896Q864.5787,1321.7235,866.24426,1320.0586Q868.01465,1318.4453,870.3003,1314.8717Q878.89044,1299.8329,882.20874,1296.1698Q885.4602,1292.7072,891.82825,1290.4508Q891.2824,1290.1888,886.7267,1291.3419L866.9529,1296.9197Q858.6975,1300.5634,854.92194,1303.3046Q852.7669,1304.964,849.6288,1310.5137Q848.51654,1311.7808,845.9004,1324.0538Q844.77954,1326.626,842.4856,1328.8787Q846.3672,1311.557,853.12274,1297.2108Q855.7458,1291.0933,860.6585,1282.6095Q861.38824,1281.0048,863.8409,1279.83Q866.5009,1278.4165,870.7448,1277.7576Q881.5879,1279.4298,887.0476,1277.2549Q888.63434,1277.1915,909.29565,1262.2386Q911.9319,1260.5027,920.6403,1259.485Q889.9243,1258.5006,881.819,1262.3292Q880.49603,1262.3895,874.7502,1266.6526Q873.26935,1267.3917,867.1549,1275.8679Q864.4364,1278.4747,863.02356,1278.7888Q874.78424,1259.2538,892.08405,1243.6846Q897.57153,1241.0333,901.6578,1241.2032Q914.9714,1245.0927,919.2534,1243.5865L922.8495,1242.6414Q940.1991,1234.014,944.77655,1232.696Q949.7705,1231.7334,955.6192,1232.3663Q926.48346,1226.0557,917.9676,1227.9688Q915.0705,1227.9836,908.7516,1231.2805Q906.9332,1232.0623,899.6085,1239.1125Q895.67303,1241.2351,894.88855,1241.0385Q903.19257,1233.2922,913.6702,1226.914Q929.6238,1224.4879,932.68427,1220.4827Q940.8797,1211.9502,949.4145,1189.8204 Z"/> </g> <g> <g style="fill:rgb(146,159,168); fill-opacity:1.0; stroke-linejoin: miter"> <path d="M901.1019,1216.7264L893.09784,1199.4673L885.0939,1182.2062Q899.4315,1175.5575,913.76855,1168.9072Q921.77325,1186.1677,929.7778,1203.4282L901.1019,1216.7264"/> </g> <g style="fill:rgb(253,217,8); fill-opacity:1.0; stroke-linejoin: miter"> <path d="M848.7612,1187.8888L849.72723,1178.9487Q855.11334,1152.0298,876.5761,1136.6284Q898.18256,1121.2457,926.44617,1125.4641Q953.36597,1130.8499,968.76697,1152.3116Q973.69867,1159.2476,976.7469,1167.3158L979.2484,1175.5839Q981.2413,1184.094,980.89606,1193.2426Q979.0494,1221.2899,959.6509,1239.1776Q940.25305,1257.0636,912.15015,1256.6345Q884.1034,1254.7874,866.2174,1235.3896Q848.3315,1215.9924,848.7612,1187.8888 Z"/> </g> <g style="fill:rgb(238,170,1); fill-opacity:1.0; stroke-linejoin: miter"> <path d="M859.1097,1188.142L859.9262,1180.6011Q864.46906,1157.8948,882.57245,1144.9025Q900.79736,1131.9281,924.6381,1135.4866Q947.3437,1140.0295,960.3338,1158.1329Q964.49365,1163.9835,967.0644,1170.789L969.17584,1177.7635Q970.85565,1184.9402,970.5657,1192.6589Q969.0076,1216.3159,952.6453,1231.4032Q936.2832,1246.4911,912.5772,1246.1285Q888.9212,1244.5707,873.83435,1228.2092Q858.748,1211.8455,859.1097,1188.142 Z"/> </g> <g style="fill:rgb(255,183,13); fill-opacity:1.0; stroke-linejoin: miter"> <path d="M860.47253,1188.1746L861.2687,1180.8182Q865.70123,1158.6672,883.3621,1145.994Q901.142,1133.3357,924.4,1136.807Q946.55054,1141.2383,959.2234,1158.9005Q963.28107,1164.6088,965.79,1171.246L967.8484,1178.0504Q969.4878,1185.0526,969.2045,1192.5822Q967.6853,1215.6611,951.72186,1230.3794Q935.76056,1245.099,912.6333,1244.7455Q889.55615,1243.2255,874.83813,1227.2638Q860.1203,1211.3008,860.47253,1188.1746 Z"/> </g> <g style="fill:rgb(238,170,1); fill-opacity:1.0; stroke-linejoin: miter"> <path d="M911.44836,1153.1709L911.14484,1158.7701Q906.3599,1160.4396,903.2084,1164.4598Q900.0576,1168.4791,899.7676,1173.8284Q899.5819,1177.2554,900.7512,1180.4198Q901.925,1183.5018,904.05884,1185.88Q906.1938,1188.259,909.2132,1189.7638Q912.1492,1191.264,915.5762,1191.45L916.07806,1191.4772Q917.07153,1191.6993,917.699,1192.487Q918.32715,1193.2759,918.26843,1194.3619Q918.20465,1195.5321,917.3232,1196.3218Q916.44257,1197.1128,915.2724,1197.0488Q914.10254,1196.9851,913.31213,1196.1051Q912.52203,1195.2238,912.58484,1194.0541L898.71216,1193.3021Q898.5672,1195.9757,899.27136,1198.4454Q899.89667,1200.8267,901.2039,1202.9928Q902.4324,1205.0712,904.2683,1206.7633Q906.1092,1208.3722,908.3993,1209.4182L908.0552,1215.7692L922.0955,1216.532L922.48083,1209.4276Q926.6095,1207.4708,929.24646,1203.6752Q931.8789,1199.9617,932.1416,1195.1145Q932.3274,1191.6875,931.1581,1188.5234Q929.9839,1185.4415,927.8492,1183.0627Q925.7154,1180.6838,922.6956,1179.1791Q919.7594,1177.679,916.33307,1177.4928L915.83154,1177.4658Q914.8377,1177.2446,914.2144,1176.3722Q913.5867,1175.5833,913.64124,1174.5803Q913.70465,1173.4098,914.5894,1172.5365Q915.4707,1171.7466,916.64105,1171.8088Q917.81104,1171.873,918.5974,1172.8373Q919.3869,1173.7184,919.3236,1174.8892L933.19714,1175.6415Q933.46045,1170.7936,931.2485,1166.7345Q929.038,1162.674,925.1447,1160.2838L925.48944,1153.9323 Z"/> </g> <g style="fill:rgb(253,217,8); fill-opacity:1.0; stroke-linejoin: miter"> <path d="M910.2345,1153.8094L909.9305,1159.409Q905.14636,1161.078,901.99536,1165.0978Q898.84375,1169.1185,898.55347,1174.4669Q898.3678,1177.8931,899.537,1181.0579Q900.7116,1184.1394,902.84576,1186.5178Q904.9796,1188.8977,907.9993,1190.4017Q910.93506,1191.9027,914.3623,1192.088L914.86383,1192.1157Q915.8579,1192.3374,916.4858,1193.1249Q917.113,1193.9143,917.0545,1194.9994Q916.99084,1196.1703,916.10956,1196.9609Q915.2286,1197.7512,914.0589,1197.6874Q912.8883,1197.6243,912.0984,1196.7433Q911.30756,1195.8622,911.3712,1194.6919L897.49805,1193.9401Q897.3531,1196.6143,898.05756,1199.0831Q898.68256,1201.464,899.9898,1203.6307Q901.2186,1205.7102,903.0548,1207.4014Q904.89575,1209.0099,907.1858,1210.0564L906.8417,1216.4077L920.88165,1217.1698L921.2671,1210.0654Q925.39624,1208.1088,928.0326,1204.313Q930.6649,1200.6003,930.9275,1195.7526Q931.114,1192.3262,929.94366,1189.1615Q928.76965,1186.0798,926.6357,1183.7012Q924.50116,1181.3221,921.4814,1179.8169Q918.5454,1178.317,915.11884,1178.1318L914.6173,1178.1051Q913.6236,1177.8822,913.0004,1177.0099Q912.3727,1176.2214,912.42676,1175.2186Q912.49005,1174.0491,913.3754,1173.1747Q914.25745,1172.3839,915.42706,1172.4479Q916.59674,1172.5103,917.3823,1173.4755Q918.17303,1174.3563,918.1101,1175.5273L931.9834,1176.2809Q932.2462,1171.4323,930.0353,1167.3724Q927.82416,1163.3129,923.9306,1160.9225L924.27484,1154.5701 Z"/> </g> </g> <g style="fill:rgb(104,137,85); fill-opacity:1.0; stroke-linejoin: miter"> <path d="M785.72766,1167.3824L785.70624,1167.3899Q784.56805,1175.0646,782.4205,1177.6713Q767.89105,1193.9587,767.8176,1195.094Q765.93835,1198.3618,765.87085,1209.2314Q765.4999,1211.3425,764.4885,1213.8114Q751.2627,1236.7955,746.70685,1248.5634Q746.3693,1247.4686,747.2011,1244.3624Q751.68225,1236.3507,751.934,1234.58Q752.97095,1230.0278,752.5039,1226.4796Q750.14197,1218.1924,748.18713,1214.4077Q737.00183,1193.9098,737.1881,1195.9102Q739.8269,1200.868,739.9289,1205.334L739.55536,1210.9991Q737.96387,1218.2537,737.18066,1224.4995Q736.7346,1228.2837,737.00073,1229.3411Q737.08203,1233.347,744.313,1242.8265Q745.3208,1244.7389,745.4423,1249.5675Q745.401,1251.3431,744.9845,1252.9434Q741.5355,1262.3279,738.463,1275.2649Q736.5446,1283.5928,734.79297,1297.1963Q733.9182,1296.4614,733.17816,1292.6079Q734.0999,1282.2178,733.299,1279.8335Q732.08234,1275.3479,730.7204,1273.0149Q726.9077,1265.6875,704.72345,1250.4924Q708.07166,1253.2052,711.2023,1258.7632Q712.62256,1261.5502,715.98914,1277.031Q716.93097,1280.4441,717.9632,1282.3314Q719.5843,1284.758,722.10986,1286.8989L729.7918,1291.7383Q732.7408,1295.2473,733.8069,1298.4012Q734.675,1301.1676,734.57965,1302.1636Q734.0276,1319.9297,734.8473,1325.0508Q735.7117,1335.4436,737.7635,1345.5388Q736.391,1345.4615,732.53564,1342.4822Q724.787,1328.3403,718.2284,1325.7307Q711.4459,1321.7522,686.2648,1326.2062Q692.34515,1326.306,695.3079,1328.2522Q696.9547,1328.5409,711.1479,1342.1342Q713.9574,1344.5735,715.35925,1345.0933Q717.5018,1346.1005,721.0283,1345.9435L730.09424,1344.124Q734.45624,1345.1189,738.1487,1348.8036Q745.21295,1377.8192,763.508,1405.5132Q762.85547,1405.8158,759.60895,1403.176Q753.38715,1396.5579,749.0505,1393.6101Q743.2085,1390.1903,740.37036,1389.7986Q730.36194,1387.5184,707.598,1395.2697Q713.9982,1394.2734,718.3843,1396.2045Q723.26935,1397.9818,737.83,1406.9608Q742.7494,1409.5862,744.57996,1409.8712Q749.47815,1411.2042,758.3131,1406.5854Q760.0813,1406.2596,764.4518,1407.6034L776.73004,1422.158L777.0289,1416.4039Q773.02026,1412.0194,766.3078,1402.2814Q765.32666,1401.5671,765.3058,1398.3307Q765.3918,1393.8739,767.35535,1389.9869L774.5825,1382.3484Q776.79663,1379.5514,777.9843,1375.5144Q778.4883,1372.9775,778.15137,1369.5917Q777.56824,1360.9502,775.90576,1352.4861Q775.5222,1347.8059,775.60144,1344.6157Q775.5573,1339.51,779.96423,1332.577Q775.00214,1337.5481,763.81024,1353.524Q759.2108,1361.2568,757.04767,1368.0046Q756.3299,1372.5171,757.2654,1377.7156Q757.5751,1380.7402,763.1764,1391.8616Q764.18976,1395.6494,763.49115,1398.0591Q746.7561,1371.6782,740.9568,1341.7184Q741.7482,1334.3807,744.71466,1330.8915Q745.0686,1329.5869,753.65686,1325.1713Q757.71545,1321.6909,758.6187,1319.5161Q759.63855,1317.349,760.38556,1313.1731Q762.5791,1295.993,764.24646,1291.3401Q765.92834,1286.8976,770.9514,1282.38Q770.3467,1282.3467,766.57733,1285.1521L750.43384,1297.861Q744.19666,1304.3823,741.7546,1308.3577Q740.39685,1310.7145,739.6171,1317.0424Q739.07306,1318.638,741.344,1330.9799Q741.29095,1333.7852,740.0314,1336.7432Q737.00146,1319.2524,737.764,1303.4133Q737.8512,1296.7574,739.1503,1287.0404Q739.2114,1285.2786,741.0295,1283.256Q742.94806,1280.9342,746.6181,1278.7037Q757.27765,1276.107,761.4921,1272.0107Q762.9346,1271.3463,776.31647,1249.6346Q778.08954,1247.023,785.7488,1242.7557Q756.9866,1253.5806,750.95874,1260.2153Q749.7593,1260.776,746.07745,1266.9108Q744.99133,1268.1598,742.5787,1278.3286Q741.0622,1281.7766,739.87665,1282.6064Q743.2825,1260.0598,753.32245,1239.0627Q757.381,1234.5166,761.2223,1233.1127Q775.0117,1231.6211,778.3936,1228.5931L781.3559,1226.3461Q794.0941,1211.7454,797.8208,1208.7786Q802.0682,1205.9811,807.7151,1204.3318Q778.3783,1209.6298,771.23914,1214.6506Q768.5673,1215.7712,763.98737,1221.2323Q762.60565,1222.6497,758.52985,1231.9635Q755.7035,1235.428,754.90326,1235.5463Q759.6186,1225.2151,766.86475,1215.3179Q780.6817,1206.9813,781.9798,1202.1106Q786.294,1191.0942,785.72766,1167.3824 Z"/> </g> <g> <g style="fill:rgb(146,159,168); fill-opacity:1.0; stroke-linejoin: miter"> <path d="M751.358,1210.7042L737.36774,1197.8116L723.3767,1184.9169Q734.08704,1173.2957,744.7963,1161.6727Q758.78754,1174.5663,772.7789,1187.4597L751.358,1210.7042"/> </g> <g style="fill:rgb(253,217,8); fill-opacity:1.0; stroke-linejoin: miter"> <path d="M691.9707,1204.048L689.44806,1195.4172Q684.1425,1168.4828,698.09375,1146.0499Q712.1849,1123.5802,739.91644,1116.6816Q766.85175,1111.375,789.2835,1125.3258Q796.4908,1129.8513,802.39,1136.1432L807.8602,1142.8285Q812.953,1149.9318,816.12897,1158.5187Q825.1368,1185.1447,814.0429,1209.0862Q802.9491,1233.0259,776.81366,1243.3654Q750.1888,1252.3724,726.24884,1241.2783Q702.3096,1230.1848,691.9707,1204.048 Z"/> </g> <g style="fill:rgb(238,170,1); fill-opacity:1.0; stroke-linejoin: miter"> <path d="M701.6309,1200.3287L699.5047,1193.0479Q695.0288,1170.3285,706.796,1151.4061Q718.6823,1132.4537,742.0741,1126.6343Q764.7931,1122.1587,783.71375,1133.927Q789.79333,1137.7448,794.7684,1143.0519L799.3842,1148.6907Q803.67834,1154.6816,806.3591,1161.9258Q813.9565,1184.3837,804.59875,1204.5778Q795.24133,1224.7717,773.1948,1233.493Q750.7381,1241.09,730.5453,1231.7332Q710.35187,1222.3735,701.6309,1200.3287 Z"/> </g> <g style="fill:rgb(255,183,13); fill-opacity:1.0; stroke-linejoin: miter"> <path d="M702.903,1199.8383L700.8283,1192.7357Q696.46277,1170.5719,707.9428,1152.1128Q719.5383,1133.6227,742.35846,1127.9454Q764.52167,1123.5789,782.98114,1135.0608Q788.9115,1138.7856,793.7654,1143.9612L798.2672,1149.4629Q802.45715,1155.308,805.0719,1162.3748Q812.4844,1184.2839,803.35425,1203.9843Q794.22644,1223.6849,772.71844,1232.1936Q750.8107,1239.6044,731.11176,1230.4756Q711.4121,1221.3457,702.903,1199.8383 Z"/> </g> <g style="fill:rgb(238,170,1); fill-opacity:1.0; stroke-linejoin: miter"> <path d="M736.6407,1148.0161L738.49884,1153.3068Q734.7149,1156.6777,733.33795,1161.5969Q731.9617,1166.5153,733.7371,1171.5696Q734.87463,1174.8075,737.16425,1177.2849Q739.42615,1179.6848,742.307,1181.0677Q745.18854,1182.4506,748.554,1182.6877Q751.8404,1182.9526,755.07855,1181.8153L755.5527,1181.649Q756.55536,1181.4744,757.4364,1181.9629Q758.31824,1182.4519,758.67883,1183.4781Q759.06696,1184.584,758.554,1185.6501Q758.0425,1186.7178,756.93646,1187.1057Q755.83105,1187.4935,754.76434,1186.9824Q753.6976,1186.4696,753.3088,1185.3647L740.2011,1189.9696Q741.0885,1192.4955,742.68286,1194.5089Q744.17017,1196.4705,746.2057,1197.9733Q748.13495,1199.4246,750.47833,1200.2874Q752.7939,1201.0708,755.31006,1201.1627L757.41833,1207.1637L770.68524,1202.505L768.32715,1195.792Q771.3953,1192.4064,772.3821,1187.8911Q773.39636,1183.4536,771.7871,1178.8737Q770.6499,1175.6354,768.36035,1173.1582Q766.0981,1170.7585,763.2166,1169.3759Q760.3359,1167.9924,756.97003,1167.7556Q753.6838,1167.4906,750.446,1168.6277L749.9723,1168.7942Q748.9692,1168.9691,748.05994,1168.4014Q747.1784,1167.9119,746.8458,1166.9641Q746.4572,1165.8583,746.94135,1164.7135Q747.4538,1163.647,748.55927,1163.2574Q749.6651,1162.8695,750.7602,1163.4604Q751.8265,1163.973,752.2151,1165.0795L765.324,1160.4741Q763.71497,1155.8932,760.1204,1152.9873Q756.5265,1150.0791,752.01526,1149.3575L749.90735,1143.3561 Z"/> </g> <g style="fill:rgb(253,217,8); fill-opacity:1.0; stroke-linejoin: miter"> <path d="M735.76276,1149.0701L737.6208,1154.361Q733.83716,1157.7312,732.46075,1162.65Q731.08386,1167.5693,732.85895,1172.6232Q733.9962,1175.8604,736.2858,1178.3386Q738.54846,1180.7377,741.42944,1182.1205Q744.3105,1183.5046,747.67596,1183.7407Q750.96234,1184.0066,754.2004,1182.8685L754.67444,1182.7026Q755.67755,1182.5277,756.55884,1183.0157Q757.4398,1183.5057,757.8005,1184.5312Q758.1888,1185.6371,757.67664,1186.7046Q757.1643,1187.7716,756.059,1188.1593Q754.9529,1188.5482,753.8864,1188.0359Q752.81915,1187.5237,752.43085,1186.4178L739.3229,1191.0227Q740.2106,1193.5496,741.80457,1195.5616Q743.2916,1197.5236,745.3274,1199.0265Q747.2575,1200.4789,749.60046,1201.3405Q751.91626,1202.1238,754.4323,1202.2158L756.5409,1208.2173L769.80707,1203.558L767.4492,1196.8451Q770.5179,1193.4594,771.504,1188.9445Q772.51855,1184.5076,770.9093,1179.9272Q769.7726,1176.6897,767.48193,1174.2119Q765.21985,1171.8124,762.3392,1170.4294Q759.45746,1169.0459,756.09174,1168.8086Q752.8056,1168.5441,749.5679,1169.6819L749.0941,1169.8488Q748.09076,1170.0223,747.1817,1169.4542Q746.30035,1168.9653,745.96716,1168.018Q745.57886,1166.9132,746.0634,1165.7668Q746.5761,1164.6991,747.6815,1164.3116Q748.7864,1163.9226,749.88104,1164.5143Q750.9484,1165.026,751.3374,1166.1322L764.4463,1161.5287Q762.83704,1156.9474,759.243,1154.0405Q755.6488,1151.1333,751.1371,1150.4116L749.0285,1144.4094 Z"/> </g> </g> </g> <g style="fill:rgb(177,222,255); fill-opacity:1.0; stroke-linejoin: miter"> <path d="M706.1231,1425.5366L705.5685,1425.5352L705.01385,1425.5338L706.1231,1425.5366"/> </g> </g> </svg>